<svg width="173" height="41" viewBox="0 0 173 41" fill="none" xmlns="http://www.w3.org/2000/svg">
<g clip-path="url(#clip0_810_25392)">
<path d="M108.453 12.4463L104.186 16.7153L102.321 18.5449L94.5381 26.3297L96.9768 28.7692L104.759 20.9844L108.453 24.6795V12.4463Z" fill="#54AEE2"/>
<path d="M104.186 14.814L101.819 12.4463L93.7854 20.4822L90.1631 16.8588V28.8409L94.7896 24.2131L96.1524 22.8499L104.186 14.814Z" fill="#54AEE2"/>
<path d="M99.3081 2.76009C106.373 2.76009 112.614 5.70179 116.451 10.1861C112.937 4.37444 106.589 0.5 99.3081 0.5C92.0277 0.5 85.6797 4.37444 82.165 10.1861C86.0025 5.70179 92.2429 2.76009 99.3081 2.76009Z" fill="#54AEE2"/>
<path d="M99.3081 38.24C92.2429 38.24 86.0025 35.2983 82.165 30.814C85.6797 36.6256 92.0277 40.5001 99.3081 40.5001C106.589 40.5001 112.937 36.6256 116.451 30.814C112.614 35.2983 106.373 38.24 99.3081 38.24Z" fill="#54AEE2"/>
<path d="M133.199 12.3745H130.33V28.805H133.199V12.3745Z" fill="white"/>
<path d="M142.74 28.7691V21.666H137.038L134.491 19.1189H142.74V12.3745H145.573V28.7691H142.74Z" fill="white"/>
<path d="M149.23 28.7333V12.3745H152.1V28.7333H149.23Z" fill="white"/>
<path d="M0.251049 28.7333L3.04846 25.8633H11.2614C12.8035 25.8633 13.6284 25.0023 13.6284 23.7108C13.6284 22.3117 12.7677 21.5942 11.2614 21.5942H4.98512C1.9008 21.6301 0 19.6929 0 16.9664C0 14.3476 1.79321 12.3745 5.02099 12.3745H15.5292L12.6601 15.2445H5.02099C3.72988 15.2445 2.94086 15.9978 2.94086 17.2534C2.94086 18.4732 3.72988 19.2265 4.98512 19.2265H11.2255C14.525 19.2265 16.3182 20.7691 16.3182 23.962C16.3182 26.6884 14.6685 28.7691 11.2255 28.7691H0.251049V28.7333Z" fill="white"/>
<path d="M44.3994 16.1771L36.9756 28.7332H33.7119L43.1083 13.0919C43.4311 12.5179 43.8615 12.1592 44.507 12.1592C45.1526 12.1592 45.5471 12.5179 45.8699 13.0919L55.3022 28.7332H51.8592L44.3994 16.1771Z" fill="white"/>
<path d="M62.8342 28.7333C58.2794 28.7333 54.9082 25.1458 54.9082 20.3745C54.9082 15.5673 58.2794 12.3745 62.8342 12.3745H70.545L67.7476 15.2445H62.8701C59.9292 15.2445 57.7773 17.4328 57.7773 20.518C57.7773 23.6032 59.9292 25.8633 62.8701 25.8633H70.5809L67.7834 28.7333H62.8342Z" fill="white"/>
<path d="M29.9107 12.3745H19.2949L22.1641 15.2445H29.9107C31.9191 15.2445 33.1026 16.4283 33.1026 18.3297C33.1026 20.1593 31.9191 21.4507 29.9107 21.4507H21.5185H19.2949V28.7691H22.1282V24.2131H29.9107C33.6765 24.2131 35.9 21.7736 35.9 18.2579C35.8642 14.6705 33.6765 12.3745 29.9107 12.3745Z" fill="white"/>
<path d="M86.6118 19.2266H77.2871L79.69 21.6301H86.6118V19.2266Z" fill="white"/>
<path d="M75.8889 15.2445H86.6482V12.3745H73.0557V14.0965V15.2445V19.2265V21.6301V25.8992V28.1234V28.7333H86.6482V25.8992H75.8889V15.2445Z" fill="white"/>
<path d="M111.681 28.805L114.478 25.9351H122.691C124.233 25.9351 125.058 25.0741 125.058 23.7826C125.058 22.3835 124.197 21.666 122.691 21.666H116.415C113.33 21.666 111.43 19.6929 111.43 17.0023C111.43 14.3835 113.223 12.4104 116.451 12.4104H126.959L124.09 15.2804H116.451C115.16 15.2804 114.371 16.0337 114.371 17.2893C114.371 18.5091 115.16 19.2624 116.415 19.2624H122.655C125.955 19.2624 127.748 20.805 127.748 23.9978C127.748 26.7243 126.098 28.805 122.655 28.805H111.681Z" fill="white"/>
<path d="M166.159 12.4463H155.543L158.412 15.3162H166.159C168.167 15.3162 169.351 16.5001 169.351 18.4014C169.351 20.231 168.167 21.5225 166.159 21.5225H157.802H155.579V28.8409H158.412V24.249H166.195C169.96 24.249 172.184 21.8095 172.184 18.2938C172.148 14.7064 169.96 12.4463 166.159 12.4463Z" fill="white"/>
</g>
<defs>
<clipPath id="clip0_810_25392">
<rect width="172.148" height="40" fill="white" transform="translate(0 0.5)"/>
</clipPath>
</defs>
</svg>
