<svg width="173" height="41" viewBox="0 0 173 41" fill="none" xmlns="http://www.w3.org/2000/svg">
<g clip-path="url(#clip0_679_23469)">
<path d="M108.453 12.4463L104.185 16.7153L102.321 18.5449L94.538 26.3297L96.9768 28.7692L104.759 20.9844L108.453 24.6795V12.4463Z" fill="#38B6FF"/>
<path d="M104.186 14.814L101.818 12.4463L93.7849 20.4822L90.1626 16.8588V28.8409L94.7891 24.2131L96.1519 22.8499L104.186 14.814Z" fill="#38B6FF"/>
<path d="M99.308 2.76009C106.373 2.76009 112.614 5.70179 116.451 10.1861C112.936 4.37444 106.588 0.5 99.308 0.5C92.0276 0.5 85.6796 4.37444 82.1649 10.1861C86.0024 5.70179 92.2428 2.76009 99.308 2.76009Z" fill="#38B6FF"/>
<path d="M99.308 38.24C92.2428 38.24 86.0024 35.2983 82.1649 30.814C85.6796 36.6256 92.0276 40.5001 99.308 40.5001C106.588 40.5001 112.936 36.6256 116.451 30.814C112.614 35.2983 106.373 38.24 99.308 38.24Z" fill="#38B6FF"/>
<path d="M133.2 12.3745H130.331V28.805H133.2V12.3745Z" fill="#1D1D1B"/>
<path d="M142.739 28.7691V21.666H137.037L134.491 19.1189H142.739V12.3745H145.573V28.7691H142.739Z" fill="#1D1D1B"/>
<path d="M149.231 28.7333V12.3745H152.1V28.7333H149.231Z" fill="#1D1D1B"/>
<path d="M0.251049 28.7333L3.04846 25.8633H11.2614C12.8035 25.8633 13.6284 25.0023 13.6284 23.7108C13.6284 22.3117 12.7677 21.5942 11.2614 21.5942H4.98512C1.9008 21.6301 0 19.6929 0 16.9664C0 14.3476 1.79321 12.3745 5.02099 12.3745H15.5292L12.6601 15.2445H5.02099C3.72988 15.2445 2.94086 15.9978 2.94086 17.2534C2.94086 18.4732 3.72988 19.2265 4.98512 19.2265H11.2255C14.525 19.2265 16.3182 20.7691 16.3182 23.962C16.3182 26.6884 14.6685 28.7691 11.2255 28.7691H0.251049V28.7333Z" fill="#1D1D1B"/>
<path d="M44.3999 16.1771L36.976 28.7332H33.7123L43.1088 13.0919C43.4315 12.5179 43.8619 12.1592 44.5075 12.1592C45.153 12.1592 45.5475 12.5179 45.8703 13.0919L55.3026 28.7332H51.8596L44.3999 16.1771Z" fill="#1D1D1B"/>
<path d="M62.8341 28.7333C58.2793 28.7333 54.9081 25.1458 54.9081 20.3745C54.9081 15.5673 58.2793 12.3745 62.8341 12.3745H70.5449L67.7475 15.2445H62.8699C59.9291 15.2445 57.7772 17.4328 57.7772 20.518C57.7772 23.6032 59.9291 25.8633 62.8699 25.8633H70.5807L67.7833 28.7333H62.8341Z" fill="#1D1D1B"/>
<path d="M29.9107 12.3745H19.2949L22.1641 15.2445H29.9107C31.9191 15.2445 33.1026 16.4283 33.1026 18.3297C33.1026 20.1593 31.9191 21.4507 29.9107 21.4507H21.5185H19.2949V28.7691H22.1282V24.2131H29.9107C33.6765 24.2131 35.9 21.7736 35.9 18.2579C35.8642 14.6705 33.6765 12.3745 29.9107 12.3745Z" fill="#1D1D1B"/>
<path d="M86.612 19.2266H77.2874L79.6903 21.6301H86.612V19.2266Z" fill="#1D1D1B"/>
<path d="M75.8886 15.2445H86.6479V12.3745H73.0554V14.0965V15.2445V19.2265V21.6301V25.8992V28.1234V28.7333H86.6479V25.8992H75.8886V15.2445Z" fill="#1D1D1B"/>
<path d="M111.681 28.8048L114.479 25.9348H122.691C124.234 25.9348 125.058 25.0738 125.058 23.7824C125.058 22.3833 124.198 21.6658 122.691 21.6658H116.415C113.331 21.6658 111.43 19.6927 111.43 17.0021C111.43 14.3833 113.223 12.4102 116.451 12.4102H126.959L124.09 15.2801H116.451C115.16 15.2801 114.371 16.0335 114.371 17.2891C114.371 18.5088 115.16 19.2622 116.415 19.2622H122.656C125.955 19.2622 127.748 20.8048 127.748 23.9976C127.748 26.7241 126.099 28.8048 122.656 28.8048H111.681Z" fill="#1D1D1B"/>
<path d="M166.159 12.4463H155.543L158.412 15.3162H166.159C168.167 15.3162 169.351 16.5001 169.351 18.4014C169.351 20.231 168.167 21.5225 166.159 21.5225H157.802H155.579V28.8409H158.412V24.249H166.195C169.96 24.249 172.184 21.8095 172.184 18.2938C172.148 14.7064 169.96 12.4463 166.159 12.4463Z" fill="#1D1D1B"/>
</g>
<defs>
<clipPath id="clip0_679_23469">
<rect width="172.148" height="40" fill="white" transform="translate(0 0.5)"/>
</clipPath>
</defs>
</svg>
