<svg width="814" height="701" viewBox="0 0 814 701" fill="none" xmlns="http://www.w3.org/2000/svg">
<circle opacity="0.5" cx="398.001" cy="351" r="150.825" stroke="#C1C1C1" stroke-width="2" stroke-linecap="round" stroke-dasharray="0.5 5"/>
<circle cx="398" cy="350" r="241" stroke="#C1C1C1" stroke-width="2" stroke-linecap="round" stroke-dasharray="0.5 5"/>
<path d="M445 697.871C616.075 674.911 748 528.362 748 351C748 157.7 591.3 1 398 1C204.7 1 48 157.7 48 351C48 533.171 187.176 682.835 365 699.465" stroke="#C1C1C1" stroke-width="2" stroke-linecap="round" stroke-dasharray="0.5 5"/>
<path d="M521.429 562.797L529.034 551.969L515.929 553.27L520.72 556.769L521.429 562.797Z" fill="#464646"/>
<path d="M272.571 562.797L264.966 551.969L278.071 553.27L273.28 556.769L272.571 562.797Z" fill="#464646"/>
<path d="M521.429 137.703L529.034 148.531L515.929 147.23L520.72 143.731L521.429 137.703Z" fill="#464646"/>
<path d="M272.571 137.703L264.966 148.531L278.071 147.23L273.28 143.731L272.571 137.703Z" fill="#464646"/>
<path d="M151.75 356.25L157.324 344.25L162.75 356.25L157.324 353.85L151.75 356.25Z" fill="#464646"/>
<path d="M633.75 356.25L639.324 344.25L644.75 356.25L639.324 353.85L633.75 356.25Z" fill="#464646"/>
<path d="M53.25 344.25L47.6757 356.25L42.25 344.25L47.6757 346.65L53.25 344.25Z" fill="#464646"/>
<path d="M753.25 344.25L747.676 356.25L742.25 344.25L747.676 346.65L753.25 344.25Z" fill="#464646"/>
<path d="M622.955 624.72L610.528 629.263L615.177 616.942L617.316 622.475L622.955 624.72Z" fill="#464646"/>
<path d="M171.045 624.72L183.472 629.263L178.823 616.942L176.684 622.475L171.045 624.72Z" fill="#464646"/>
<path d="M607.045 77.7198L619.472 82.2634L614.823 69.9416L612.684 75.4752L607.045 77.7198Z" fill="#464646"/>
<path d="M186.955 77.7198L174.528 82.2634L179.177 69.9416L181.316 75.4752L186.955 77.7198Z" fill="#464646"/>
</svg>
