<svg width="364" height="108" viewBox="0 0 364 108" fill="none" xmlns="http://www.w3.org/2000/svg">
<g clip-path="url(#clip0_982_54705)">
<path d="M83.3688 41.5925C83.345 62.0452 68.4693 79.3479 48.1641 82.0857C33.9156 84.0074 21.8579 79.3756 12.0228 68.9472C11.4909 68.3846 11.4354 67.925 11.6775 67.2277C15.8211 55.2778 21.9849 44.5285 30.9785 35.5423C42.1512 24.3769 55.5583 17.2411 71.0531 14.008C71.8985 13.8297 72.4938 13.9604 73.1209 14.6815C79.8205 22.4236 83.3212 31.3543 83.3688 41.5925Z" fill="white"/>
<path d="M256.856 77.058C260.948 71.8279 262.167 65.7857 262.056 59.3392C262.044 58.7053 261.889 58.4279 261.19 58.4359C258.523 58.4676 255.856 58.4794 253.189 58.4319C252.411 58.42 252.248 58.7608 252.213 59.4145C252.086 61.7839 251.883 64.1493 251.32 66.4671C249.831 72.5847 246.807 75.4573 240.564 76.3923C234.872 77.2442 229.828 76.2022 226.422 71.0117C224.684 68.3611 223.791 65.3855 223.156 62.3188C222.215 57.7821 221.961 53.1781 221.906 48.5701C221.79 39.2551 221.874 29.944 223.14 20.6805C223.723 16.4172 225.045 12.5818 228.407 9.61416C234.098 4.59411 246.545 5.46182 250.18 12.7997C251.558 15.5812 252.105 18.5092 252.121 21.568C252.129 23.1502 252.944 23.9413 254.566 23.9413C256.578 23.9413 258.591 23.8858 260.603 23.9651C261.619 24.0047 261.936 23.7789 261.936 22.6932C261.925 16.0804 261.159 13.1841 257.547 6.54349C270.013 14.345 277.344 25.3994 277.789 40.2297C278.281 56.5657 270.648 68.6424 256.852 77.054L256.856 77.058Z" fill="white"/>
<path d="M131.501 76.8081C121.011 71.6058 110.667 58.5624 110.6 41.8659C110.525 23.6717 122.082 10.03 134.549 4.68896C131.635 7.65266 129.984 10.9888 129.405 14.7845C127.782 25.415 131.631 33.5295 140.8 39.1993C145.455 42.0798 150.5 44.2194 155.239 46.9374C158.914 49.0453 162.49 51.3434 164.471 55.25C167.162 60.5554 166.951 65.9598 164.288 71.2096C162.601 74.5339 159.537 76.1306 155.985 76.7844C152.877 77.3589 149.75 77.2796 146.666 76.5268C141.224 75.1955 138.53 71.4394 137.517 66.2133C137.093 64.0143 136.859 61.7916 136.922 59.553C136.95 58.6575 136.692 58.3286 135.747 58.3485C133.128 58.4079 130.508 58.392 127.889 58.3564C127.087 58.3445 126.833 58.6179 126.865 59.4103C127.103 65.4209 127.817 71.2968 131.409 76.4199C131.473 76.511 131.469 76.6497 131.508 76.8081H131.501Z" fill="white"/>
<path d="M344.332 7.58936C369.046 23.3508 369.32 59.1647 344.955 75.4254C344.784 75.3343 344.84 75.2115 344.919 75.1005C348.455 70.2707 349.753 64.6999 350.341 58.8874C350.436 57.9484 350.15 57.6869 349.221 57.7067C346.602 57.7621 343.978 57.7701 341.359 57.7067C340.339 57.6789 340.097 58.0751 340.085 58.9904C340.057 61.3281 339.696 63.6182 338.898 65.837C337.168 70.6669 333.953 74.0981 329.004 75.5364C322.268 77.4937 315.727 77.3788 310.179 72.3429C306.885 69.3475 305.345 65.3417 304.313 61.1141C302.971 55.6186 303.146 50.0201 303.13 44.4334C303.13 43.7559 303.36 43.5063 304.019 43.5737C304.344 43.6054 304.674 43.5776 304.999 43.5776C319.645 43.5776 334.294 43.5618 348.94 43.6054C350.114 43.6054 350.396 43.3122 350.388 42.1552C350.349 35.1224 350.361 28.0896 349.253 21.1122C348.487 16.2902 347.094 11.706 344.324 7.59332L344.332 7.58936Z" fill="white"/>
<path d="M171.158 6.09185C181.45 10.9178 191.499 23.5016 192.567 38.4191C193.98 58.1982 181.716 72.2955 170.579 77.581C176.195 70.6988 177.1 62.826 175.215 54.5411C173.782 48.2452 169.384 44.085 164.078 40.7686C160.03 38.2408 155.636 36.3588 151.425 34.136C147.738 32.1906 144.114 30.158 141.518 26.7466C137.621 21.6275 137.962 14.0241 142.34 9.84401C145.114 7.19333 148.579 6.36524 152.278 6.46826C154.461 6.52769 156.656 6.74957 158.732 7.59747C162.709 9.22196 164.447 12.4749 165.273 16.3935C165.618 18.0338 165.876 19.6979 165.868 21.3739C165.868 22.1703 166.197 22.4793 166.928 22.4833C169.547 22.4952 172.167 22.4991 174.79 22.511C175.751 22.511 175.639 21.8137 175.604 21.2233C175.306 16.0567 174.425 11.0525 171.416 6.65844C171.341 6.5475 171.301 6.40883 171.158 6.08789V6.09185Z" fill="white"/>
<path d="M49.145 11.9874H14.5437C27.5777 -1.61469 54.3047 -4.69725 71.8038 13.2711C41.866 18.8221 21.1163 36.2001 7.36383 62.7585C2.93844 55.3096 0.64438 47.4328 1.46992 38.9221C2.22006 31.184 1.21591 33.4425 7.18522 28.8543C16.6075 21.6115 27.0657 16.3973 38.7464 13.8021C41.8064 13.1245 44.9022 12.6728 48.0417 12.5698C48.3989 12.5579 48.7839 12.6293 49.145 11.9874Z" fill="white"/>
<path d="M321.836 35.7881C316.037 35.7881 310.238 35.7643 304.444 35.8118C303.408 35.8197 303.138 35.5781 303.15 34.5004C303.217 29.4645 303.412 24.4484 304.622 19.5353C305.491 16.009 306.889 12.7402 309.703 10.2559C313.306 7.07431 317.72 6.42055 322.268 6.45225C326.186 6.47998 330 7.13374 333.25 9.58631C336.862 12.3083 338.434 16.2031 339.367 20.407C340.418 25.1576 340.597 29.9914 340.609 34.8411C340.609 35.895 340.041 35.792 339.367 35.792C333.52 35.7881 327.678 35.792 321.832 35.792L321.836 35.7881Z" fill="white"/>
<path d="M221.386 3.88092C220.389 4.92692 219.695 5.66389 218.988 6.39292C214.908 10.6047 213.09 15.7793 212.467 21.4729C211.154 33.4505 211.046 45.4479 211.963 57.4453C212.352 62.5129 213.38 67.4735 215.73 72.0775C217.147 74.859 219.08 77.2125 221.409 79.2847C213.618 76.214 207.399 71.1861 202.72 64.2879C198.008 57.3462 195.691 49.62 195.802 41.2599C195.945 30.467 199.806 21.1123 207.32 13.3108C211.225 9.25756 215.789 6.14331 221.39 3.87695L221.386 3.88092Z" fill="white"/>
<path d="M299.586 75.6713C287.08 66.9942 280.467 55.1513 281.075 39.897C281.65 25.4351 288.762 14.563 300.899 6.81299C297.633 10.8306 295.748 15.4663 294.644 20.4626C293.807 24.2544 293.414 28.1017 293.386 31.9687C293.331 39.8455 293.279 47.7262 293.434 55.603C293.573 62.8339 295.065 69.7241 299.59 75.6713H299.586Z" fill="white"/>
<path d="M25.0016 13.5683C17.1946 17.5661 10.3521 22.7446 3.87479 28.6126C3.73985 27.7884 4.14071 27.2417 4.36297 26.6632C6.2006 21.8214 8.89949 17.5106 12.3842 13.6752C12.928 13.077 13.4519 12.8392 14.3052 12.9066C17.8654 13.1879 21.4335 13.3583 25.0016 13.5683Z" fill="white"/>
<path d="M221.188 104.258C221.188 100.399 221.18 96.54 221.195 92.6849C221.195 92.1975 220.91 91.5279 221.902 91.5358C222.906 91.5438 222.581 92.2371 222.581 92.7086C222.6 96.9957 222.604 101.287 222.573 105.574C222.573 105.982 222.966 106.727 222.077 106.743C221.35 106.754 220.549 107.052 220.084 106.002C218.493 102.388 216.814 98.8143 215.163 95.2286C214.98 94.8323 214.766 94.448 214.309 94.1192C214.309 96.9402 214.309 99.7613 214.309 102.582C214.309 103.656 214.301 104.726 214.309 105.8C214.313 106.342 214.341 106.81 213.535 106.778C212.769 106.751 212.896 106.255 212.896 105.815C212.892 102.087 212.896 98.3587 212.896 94.6303C212.896 94.2103 212.817 93.7705 212.916 93.3782C213.071 92.7601 212.357 91.8013 213.527 91.5715C214.555 91.3694 215.171 91.7141 215.643 92.7918C217.33 96.6589 219.167 100.463 220.949 104.29C221.029 104.282 221.108 104.274 221.188 104.266V104.258Z" fill="white"/>
<path d="M285.548 94.0319C285.548 97.899 285.556 101.766 285.54 105.629C285.54 106.12 285.798 106.77 284.822 106.778C283.833 106.786 284.103 106.132 284.103 105.641C284.091 101.402 284.079 97.1621 284.119 92.9225C284.123 92.4748 283.659 91.6665 284.568 91.5754C285.385 91.4922 286.223 91.2901 286.731 92.4748C288.207 95.9298 289.854 99.3135 291.438 102.725C291.64 103.165 291.882 103.585 292.378 103.965C292.378 102.182 292.378 100.399 292.378 98.6162C292.378 96.5677 292.378 94.5153 292.378 92.4669C292.378 91.9796 292.335 91.5398 293.061 91.5318C293.732 91.5279 293.807 91.8646 293.803 92.4075C293.791 96.8807 293.803 101.35 293.787 105.823C293.787 106.2 293.95 106.774 293.271 106.735C292.597 106.695 291.807 107.091 291.37 106.077C290.303 103.605 289.144 101.176 288.013 98.7271C287.278 97.1383 286.532 95.5495 285.794 93.9646C285.715 93.9844 285.631 94.0042 285.552 94.024L285.548 94.0319Z" fill="white"/>
<path d="M130.052 103.965C130.052 101.901 130.052 99.8324 130.052 97.7681C130.052 95.9971 130.056 94.2299 130.052 92.4589C130.052 91.9636 130.028 91.5396 130.743 91.5357C131.421 91.5317 131.481 91.8843 131.477 92.4192C131.465 96.8925 131.477 101.362 131.465 105.835C131.465 106.215 131.624 106.782 130.945 106.742C130.266 106.707 129.484 107.083 129.048 106.077C127.861 103.355 126.591 100.664 125.349 97.9663C124.734 96.631 124.099 95.2997 123.233 94.016C123.233 97.6572 123.233 101.302 123.233 104.944C123.233 105.269 123.218 105.597 123.233 105.922C123.261 106.449 123.19 106.806 122.495 106.778C121.908 106.75 121.812 106.477 121.812 105.99C121.82 101.425 121.82 96.8608 121.812 92.2964C121.812 91.8764 121.872 91.5238 122.392 91.5674C123.075 91.6228 123.857 91.2425 124.289 92.2409C125.266 94.4954 126.341 96.7103 127.377 98.9409C128.167 100.641 128.957 102.337 129.746 104.032C129.85 104.013 129.949 103.993 130.052 103.973V103.965Z" fill="white"/>
<path d="M195.929 101.429C195.858 100.225 195.576 99.2144 194.084 98.8499C196.37 97.8514 196.274 95.9932 196.044 94.1468C195.818 92.3559 195.235 91.7893 193.441 91.6427C191.952 91.5239 190.452 91.5991 188.956 91.5357C188.174 91.504 188.174 91.9597 188.174 92.5184C188.186 96.9441 188.182 101.374 188.178 105.8C188.178 106.342 188.146 106.806 188.952 106.778C189.71 106.75 189.595 106.267 189.599 105.819C189.607 104.005 189.591 102.186 189.611 100.367C189.615 100.031 189.456 99.6344 189.952 99.4204C192.21 98.4537 194.512 99.9434 194.556 102.388C194.58 103.644 194.699 104.9 194.731 106.152C194.746 106.786 195.127 106.766 195.576 106.762C196.112 106.758 196.199 106.457 196.112 106.029C195.806 104.504 196.028 102.963 195.929 101.429ZM192.294 98.1724C190.497 98.2595 189.599 97.3297 189.599 95.383C189.599 93.5868 190.51 92.7165 192.333 92.7719C194.056 92.8234 194.679 93.4415 194.731 95.1453C194.794 97.1224 194.016 98.0852 192.294 98.1724Z" fill="white"/>
<path d="M85.2623 98.9926C85.31 97.6494 85.1433 96.1121 85.5322 94.5946C86.33 91.4804 90.3744 90.0896 92.9423 92.0668C93.8274 92.7482 94.1052 93.711 94.2203 94.7531C94.2679 95.1731 94.2441 95.5138 93.6845 95.4702C93.2955 95.4386 92.9423 95.5733 92.7597 94.9393C92.1683 92.879 91.4222 92.3718 89.5369 92.4947C87.9414 92.5977 87.1317 93.3465 86.8658 95.3355C86.5007 98.0615 86.4332 100.819 86.9611 103.529C87.3619 105.586 90.6165 106.723 92.3112 105.491C92.3469 105.463 92.3985 105.451 92.4303 105.415C92.6168 105.229 92.7359 100.34 92.5097 100.197C91.9659 99.8524 91.3349 100.118 90.7514 100.031C90.3109 99.9633 89.652 100.32 89.6044 99.4443C89.5528 98.4815 90.2553 98.739 90.7594 98.7271C92.9899 98.6875 94.1052 99.7824 94.1052 102.012V103.969C94.1052 105.71 93.2214 106.707 91.4539 106.96C87.4334 107.535 85.3933 105.851 85.2584 101.826C85.2266 100.942 85.2544 100.058 85.2544 98.9847L85.2623 98.9926Z" fill="white"/>
<path d="M28.8555 101.295C28.8197 100.122 28.4625 99.1906 27.1409 98.8935C28.9309 97.7009 29.4468 96.1398 28.9586 93.7625C28.6967 92.4946 28.4586 91.5358 26.6368 91.5278C25.1207 91.5358 23.5172 91.5437 21.9296 91.5397C21.0128 91.5397 21.1835 92.0073 21.1835 92.5342C21.1874 96.9639 21.1835 101.394 21.1914 105.823C21.1914 106.251 21.0287 106.762 21.8185 106.778C22.6083 106.79 22.6004 106.354 22.5964 105.8C22.5845 103.981 22.5805 102.162 22.6043 100.348C22.6043 100.023 22.4059 99.6186 22.9258 99.4086C25.2159 98.4814 27.4822 99.9395 27.5497 102.404C27.5814 103.612 27.6608 104.821 27.6648 106.029C27.6648 106.683 27.9863 106.774 28.5379 106.77C29.2682 106.762 29.0579 106.283 29.042 105.899C28.9825 104.365 28.9031 102.828 28.8555 101.295ZM25.4144 98.1684C23.5331 98.3137 22.5924 97.3931 22.5924 95.4068C22.5924 93.5657 23.5304 92.6874 25.4064 92.7719C27.0456 92.8433 27.6013 93.4257 27.6449 95.1136C27.6965 97.1145 27.0139 98.0416 25.4144 98.1684Z" fill="white"/>
<path d="M271.776 101.069C271.732 99.9909 271.308 99.1866 270.03 98.8815C271.903 97.6968 272.427 96.1199 271.891 93.7109C271.625 92.5222 270.942 91.8447 269.728 91.6704C268.192 91.4485 266.648 91.6308 265.116 91.5396C264.322 91.4921 264.08 91.7496 264.088 92.55C264.124 96.9717 264.1 101.394 264.112 105.811C264.112 106.231 263.929 106.758 264.727 106.774C265.501 106.79 265.525 106.382 265.521 105.815C265.501 103.997 265.501 102.182 265.525 100.367C265.529 100.042 265.318 99.6343 265.823 99.4124C268.025 98.4457 270.419 99.9513 270.474 102.344C270.502 103.596 270.585 104.852 270.605 106.105C270.609 106.715 270.954 106.742 271.423 106.766C271.974 106.798 272.022 106.509 271.998 106.077C271.915 104.409 271.851 102.741 271.776 101.069ZM268.255 98.1683C266.427 98.2766 265.513 97.3706 265.513 95.4503C265.513 93.5907 266.442 92.6979 268.299 92.7719C269.994 92.8352 270.593 93.4732 270.609 95.2125C270.625 97.1817 269.914 98.0732 268.255 98.1683Z" fill="white"/>
<path d="M323.777 98.8817C325.646 97.6891 326.38 94.8403 325.34 92.8869C324.936 92.1262 324.261 91.7181 323.416 91.6785C321.88 91.6072 320.336 91.623 318.8 91.5398C318.022 91.4962 317.764 91.7221 317.772 92.5343C317.811 96.9561 317.792 101.382 317.792 105.804C317.792 106.319 317.7 106.798 318.534 106.782C319.431 106.758 319.185 106.172 319.189 105.724C319.208 103.91 319.189 102.091 319.204 100.276C319.208 99.9871 319.05 99.6305 319.439 99.4205C321.324 98.3943 324.138 99.9673 324.209 102.095C324.249 103.399 324.273 104.702 324.301 106.002C324.309 106.497 324.487 106.77 325.051 106.766C325.519 106.762 325.721 106.636 325.698 106.136C325.61 104.417 325.555 102.701 325.487 100.982C325.44 99.8722 324.912 99.1432 323.777 98.8817ZM321.959 98.1724C320.117 98.2728 319.197 97.3325 319.197 95.3514C319.197 93.5763 320.105 92.7152 321.923 92.7681C323.773 92.8235 324.289 93.3624 324.297 95.2405C324.305 97.2611 323.65 98.0813 321.959 98.1724Z" fill="white"/>
<path d="M160.827 101.053C160.784 99.9632 160.355 99.1668 159.069 98.8894C160.911 97.7364 161.431 96.1634 160.958 93.7941C160.704 92.5341 160.006 91.7615 158.72 91.6822C157.136 91.5832 155.541 91.6189 153.957 91.5396C153.175 91.5 153.167 91.9358 153.171 92.5024C153.183 96.9281 153.175 101.358 153.175 105.788C153.175 106.299 153.076 106.81 153.917 106.774C154.783 106.738 154.572 106.16 154.576 105.696C154.592 103.925 154.576 102.15 154.596 100.379C154.596 100.05 154.394 99.6422 154.886 99.4164C156.974 98.4575 159.446 99.9394 159.538 102.226C159.589 103.529 159.653 104.833 159.669 106.132C159.672 106.758 160.038 106.746 160.494 106.766C161.05 106.79 161.081 106.505 161.058 106.073C160.966 104.401 160.899 102.725 160.827 101.053ZM157.033 98.1723C155.401 98.2119 154.584 97.4419 154.584 95.8623V94.749C154.584 93.4282 155.233 92.7679 156.529 92.7679C159.176 92.7718 159.831 93.4058 159.633 95.7752C159.494 97.4789 158.783 98.1326 157.033 98.1723Z" fill="white"/>
<path d="M242.592 101.247C242.564 100.046 242.171 99.1548 240.837 98.8854C242.695 97.7087 243.254 96.1634 242.73 93.7742C242.465 92.5539 241.758 91.7417 240.46 91.6743C238.829 91.5832 237.194 91.603 235.563 91.5475C234.816 91.5198 234.9 92.0111 234.9 92.4786C234.9 96.9043 234.9 101.33 234.9 105.756C234.904 106.243 234.745 106.794 235.606 106.774C236.46 106.758 236.301 106.211 236.301 105.724C236.309 103.953 236.297 102.186 236.317 100.415C236.321 100.078 236.126 99.662 236.575 99.4243C238.551 98.3743 241.278 100.015 241.329 102.285C241.357 103.541 241.393 104.793 241.401 106.049C241.405 106.592 241.647 106.754 242.171 106.77C242.814 106.794 242.826 106.453 242.802 105.986C242.719 104.409 242.627 102.828 242.592 101.247ZM239.166 98.1643C237.259 98.3069 236.305 97.3904 236.305 95.4146C236.305 93.5735 237.249 92.6926 239.139 92.7718C240.821 92.8431 241.361 93.3978 241.405 95.1055C241.453 97.1342 240.786 98.0454 239.166 98.1643Z" fill="white"/>
<path d="M185.304 94.8362C184.744 92.3162 183.462 91.2544 180.906 91.2742C178.382 91.29 176.969 92.4272 176.58 94.9194C176.139 97.7444 176.151 100.593 176.572 103.414C176.933 105.827 178.386 107.008 180.787 107.036C183.486 107.067 184.752 106.041 185.304 103.462C185.609 102.031 185.51 100.589 185.581 99.151C185.502 97.7127 185.621 96.2665 185.304 94.8362ZM183.859 103.525C183.446 105.078 182.66 105.76 181.128 105.819C179.497 105.883 178.437 105.261 178.12 103.715C177.497 100.688 177.485 97.6176 178.128 94.5905C178.461 93.0096 179.438 92.4391 181.124 92.4906C182.633 92.5381 183.462 93.2474 183.859 94.7767C184.24 96.2427 184.065 97.7404 184.18 99.2223C184.057 100.657 184.236 102.103 183.859 103.525Z" fill="white"/>
<path d="M314.998 97.6609C314.998 99.432 315.069 101.207 314.982 102.974C314.851 105.557 313.398 106.956 310.93 107.035C308.028 107.126 306.477 105.95 306.203 103.251C305.838 99.6301 306.131 95.9849 306.036 92.3556C306.02 91.7414 306.235 91.5433 306.838 91.5354C307.536 91.5275 307.56 91.9197 307.556 92.4348C307.544 95.4183 307.544 98.4018 307.556 101.385C307.556 102.035 307.592 102.693 307.691 103.335C307.945 104.955 308.83 105.744 310.394 105.815C312.061 105.89 313.053 105.193 313.43 103.549C313.787 101.992 313.605 100.391 313.621 98.8099C313.641 96.7139 313.637 94.614 313.621 92.518C313.617 91.9554 313.621 91.5235 314.399 91.5354C315.177 91.5473 315.034 92.0505 315.034 92.4903C315.042 94.2138 315.034 95.9413 315.034 97.6649C315.022 97.6649 315.01 97.6649 314.994 97.6649L314.998 97.6609Z" fill="white"/>
<path d="M41.3975 105.779C40.0362 101.298 38.6193 96.8328 37.2341 92.3556C37.0595 91.793 36.8134 91.5196 36.1664 91.5275C35.5632 91.5315 35.2218 91.6939 35.0393 92.2843C33.5509 97.0626 32.0427 101.833 30.5146 106.687C31.3759 106.817 31.9435 106.869 32.1895 105.966C32.4793 104.908 32.4277 103.418 33.3009 102.939C34.2058 102.447 35.5671 102.776 36.73 102.752C37.1984 102.74 37.6667 102.78 38.1311 102.74C38.8177 102.685 39.1233 102.962 39.2662 103.644C39.4488 104.5 39.8179 105.32 40.0282 106.172C40.2148 106.92 40.7744 106.806 41.2467 106.73C42.0802 106.6 41.469 106.025 41.3975 105.779ZM33.5747 101.473C34.3844 98.7664 35.1663 96.1632 36.0593 93.1797C36.9602 96.1355 37.762 98.7624 38.5875 101.473H33.5747Z" fill="white"/>
<path d="M64.4809 99.1074C64.4809 96.9203 64.4809 94.7292 64.4809 92.5421C64.4809 92.0429 64.3499 91.5278 65.1993 91.5318C66.0725 91.5357 65.882 92.0944 65.882 92.5698C65.8939 94.1547 65.9415 95.7396 65.8661 97.3205C65.8224 98.2159 66.132 98.4497 66.9774 98.3744C68.5451 98.2357 70.6487 99.0321 71.5377 98.0693C72.3156 97.2254 71.76 95.1532 71.7838 93.6277C71.7917 93.1602 71.8155 92.6927 71.7798 92.2331C71.7362 91.6467 72.0299 91.5436 72.5379 91.5476C73.0142 91.5476 73.2007 91.7021 73.1967 92.1895C73.1848 96.845 73.1848 101.505 73.1967 106.16C73.1967 106.663 72.9626 106.758 72.5141 106.774C71.9703 106.794 71.7719 106.616 71.7798 106.069C71.8036 104.254 71.752 102.436 71.8036 100.621C71.8275 99.8246 71.7084 99.4442 70.7677 99.5115C69.4659 99.6066 68.1482 99.5908 66.8424 99.5155C65.9971 99.468 65.8502 99.7968 65.87 100.546C65.9216 102.313 65.8899 104.084 65.8859 105.855C65.8859 106.303 66.0129 106.766 65.239 106.79C64.4174 106.814 64.4769 106.358 64.4809 105.823C64.4888 103.589 64.4809 101.354 64.4809 99.1153V99.1074Z" fill="white"/>
<path d="M338.899 99.1074C338.899 96.9639 338.899 94.8203 338.899 92.6768C338.899 92.1499 338.708 91.5278 339.649 91.5357C340.546 91.5476 340.288 92.1617 340.296 92.6134C340.32 94.1983 340.348 95.7831 340.288 97.368C340.256 98.1842 340.542 98.414 341.328 98.3784C342.634 98.3229 343.947 98.3229 345.257 98.3784C345.988 98.4101 346.238 98.1842 346.214 97.4433C346.166 95.8584 346.19 94.2736 346.202 92.6887C346.202 92.1697 345.995 91.5357 346.94 91.5397C347.829 91.5397 347.599 92.1499 347.599 92.6055C347.611 96.9876 347.607 101.366 347.599 105.748C347.599 106.223 347.778 106.79 346.904 106.778C346.059 106.77 346.198 106.231 346.198 105.74C346.194 104.017 346.138 102.289 346.218 100.569C346.261 99.6661 345.956 99.464 345.118 99.5155C343.908 99.5868 342.681 99.6106 341.471 99.5115C340.419 99.4244 340.236 99.8483 340.28 100.775C340.352 102.451 340.312 104.131 340.292 105.807C340.288 106.223 340.487 106.758 339.685 106.778C338.915 106.798 338.879 106.398 338.883 105.823C338.899 103.585 338.891 101.35 338.891 99.1114L338.899 99.1074Z" fill="white"/>
<path d="M332.266 107.035C329.603 107.043 328.119 105.716 328.047 103.267C328.031 102.78 328.004 102.344 328.734 102.352C329.321 102.36 329.564 102.515 329.56 103.137C329.548 104.551 330.103 105.565 331.655 105.783C333.203 106.001 334.207 105.554 334.683 104.405C335.247 103.053 334.878 101.623 333.604 100.7C332.477 99.8798 331.234 99.2181 330.103 98.4058C328.151 96.9993 327.627 94.5546 328.821 92.7637C329.806 91.2898 332.997 90.7391 334.703 91.7653C335.87 92.4626 336.172 93.6196 336.283 94.8637C336.319 95.2757 336.128 95.4382 335.723 95.4739C335.164 95.5254 334.854 95.3748 334.799 94.7567C334.672 93.2947 333.937 92.4428 332.366 92.4824C331.302 92.5102 330.29 92.5973 329.845 93.7979C329.381 95.0499 329.726 96.3931 330.814 97.1538C331.957 97.9542 333.132 98.7109 334.33 99.4281C336.104 100.49 336.561 102.087 336.255 103.985C335.926 106.061 334.624 107.028 332.262 107.031L332.266 107.035Z" fill="white"/>
<path d="M5.21242 107.036C2.64848 107.04 1.19187 105.835 1.04502 103.513C1.0212 103.105 0.644152 102.452 1.56098 102.356C2.35874 102.273 2.43415 102.646 2.50162 103.311C2.6842 105.027 3.31526 105.677 4.79171 105.796C5.96256 105.891 7.11752 105.772 7.61364 104.5C8.09786 103.252 7.99466 102.024 6.9548 101.029C6.00225 100.114 4.80362 99.5552 3.69231 98.8737C1.89437 97.7722 0.902134 96.3221 1.28315 94.127C1.61258 92.2093 3.13269 91.1792 5.59741 91.2663C7.7724 91.3456 9.0385 92.4431 9.16154 94.4044C9.18535 94.8046 9.48699 95.387 8.6932 95.4662C8.0661 95.5296 7.77637 95.3315 7.73271 94.6381C7.65333 93.3702 7.00639 92.5461 5.63313 92.4906C4.4742 92.4431 3.33511 92.4907 2.80327 93.7744C2.31905 94.9472 2.71595 96.3973 3.7836 97.1422C5.00604 97.9981 6.30389 98.7429 7.53426 99.5829C9.16154 100.696 9.71719 102.606 9.07025 104.67C8.5781 106.243 7.30406 107.02 5.20845 107.02L5.21242 107.036Z" fill="white"/>
<path d="M47.2635 107.036C44.5607 107.04 42.9532 105.506 43.0802 103.093C43.108 102.578 43.2271 102.34 43.7947 102.352C44.2987 102.364 44.5527 102.451 44.5567 103.038C44.5686 104.405 44.9893 105.546 46.5729 105.756C47.7676 105.914 48.9345 105.891 49.6132 104.627C50.2402 103.458 50.0061 101.802 48.9106 100.946C47.7438 100.03 46.4618 99.2579 45.2036 98.4615C43.5248 97.3996 43.0326 95.8861 43.3819 94.012C43.7431 92.0824 45.3981 91.076 47.9105 91.2741C49.9942 91.4366 51.2642 92.7005 51.2801 94.6419C51.2801 95.058 51.3714 95.4819 50.6927 95.4898C50.1212 95.4938 49.9267 95.3393 49.8116 94.741C49.4663 92.9303 48.9543 92.5063 47.3667 92.4945C46.2911 92.4826 45.2791 92.6331 44.8544 93.8178C44.4178 95.0302 44.8266 96.4685 45.8625 97.1777C47.0889 98.0217 48.3907 98.7586 49.6171 99.6065C51.4508 100.874 51.9469 103.739 50.7046 105.574C50.022 106.584 48.9543 107.036 47.2635 107.04V107.036Z" fill="white"/>
<path d="M53.6055 99.143C53.661 97.3719 53.5658 95.5929 54.1373 93.8852C54.82 91.8288 56.737 90.9056 59.2652 91.3653C60.9877 91.6783 62.0038 92.9937 62.0038 94.8797C62.0038 95.3314 62.0395 95.7117 61.3807 95.6721C60.9163 95.6444 60.6623 95.5968 60.5472 95.0263C60.1304 92.9224 59.543 92.4033 57.9237 92.4945C56.3758 92.5816 55.4312 93.5246 55.2367 95.3433C54.9668 97.8909 54.9629 100.454 55.2447 103.002C55.3717 104.143 55.8003 105.193 57.0029 105.649C58.8604 106.354 60.3051 105.447 60.5234 103.323C60.6147 102.447 60.9163 102.182 61.7101 102.329C62.6428 102.499 62.0673 103.149 62.0117 103.525C61.6942 105.768 60.5075 106.933 58.5429 107.036C56.0305 107.17 54.5977 106.176 53.9825 103.858C53.9111 103.589 53.8357 103.315 53.8158 103.042C53.7325 101.742 53.6729 100.443 53.6055 99.143Z" fill="white"/>
<path d="M262.167 94.2217C261.984 92.5814 261.099 91.7097 259.436 91.5948C258.182 91.5076 256.912 91.5988 255.649 91.5354C254.848 91.4957 254.614 91.7771 254.633 92.5695C254.681 94.7091 254.649 96.8565 254.649 98.9961C254.649 101.136 254.633 103.378 254.661 105.569C254.665 106.045 254.348 106.734 255.328 106.774C256.316 106.809 256.038 106.128 256.05 105.637C256.078 104.519 256.058 103.402 256.058 102.281C256.058 100.667 256.867 99.8282 258.483 99.7648C260.829 99.6697 261.94 98.7425 262.167 96.5911C262.246 95.8105 262.25 95.0062 262.167 94.2217ZM258.598 98.4533C256.905 98.5088 256.058 97.5341 256.058 95.5292V95.2519C256.058 93.5164 256.914 92.6897 258.626 92.7716C260.277 92.8548 260.845 93.5878 260.825 95.6085C260.805 97.5816 260.162 98.4018 258.598 98.4533Z" fill="white"/>
<path d="M362.522 93.7626C362.216 92.4749 361.411 91.6111 360.081 91.5319C358.775 91.4566 357.489 91.5239 356.184 91.5319C355.227 91.5398 355.104 91.829 355.124 92.6492C355.18 94.7927 355.144 96.9363 355.144 99.0798C355.144 101.223 355.108 103.276 355.168 105.372C355.18 105.875 355.001 106.822 355.878 106.758C356.751 106.762 356.525 105.867 356.521 105.304C356.509 104.33 356.549 103.351 356.549 102.372C356.549 100.708 357.362 99.8379 358.99 99.7613C360.466 99.69 361.816 99.3492 362.347 97.7564C362.78 96.4568 362.844 95.1137 362.522 93.7626ZM358.109 98.5805C356.259 98.5964 356.327 98.5132 356.366 96.6708C356.35 96.0923 356.331 95.6882 356.342 95.1097C356.327 94.2856 356.128 92.9622 356.751 92.9107C357.684 92.8354 358.894 92.8077 360.041 92.9226C361.145 93.2831 361.26 94.3569 361.272 95.3633C361.153 97.907 360.776 98.5964 358.109 98.5805Z" fill="white"/>
<path d="M143.956 99.1232C143.956 96.9361 143.987 94.745 143.94 92.5579C143.92 91.7773 144.13 91.5039 144.944 91.5317C146.579 91.5911 148.214 91.5317 149.853 91.5594C150.302 91.5673 150.973 91.3138 150.937 92.1973C150.901 93.0928 150.211 92.7362 149.786 92.752C148.572 92.7956 147.353 92.7996 146.139 92.752C145.519 92.7283 145.333 92.9343 145.353 93.5405C145.392 94.8916 145.392 96.2427 145.353 97.5898C145.333 98.2198 145.575 98.3822 146.17 98.3664C147.385 98.3268 148.599 98.3506 149.818 98.3585C150.227 98.3585 150.667 98.2753 150.667 98.9488C150.667 99.6462 150.207 99.5154 149.81 99.5194C148.643 99.5313 147.468 99.5828 146.305 99.5035C145.436 99.4441 145.321 99.8205 145.353 100.55C145.404 101.853 145.42 103.161 145.349 104.46C145.305 105.296 145.507 105.613 146.408 105.554C147.667 105.471 148.933 105.534 150.195 105.534C150.623 105.534 151.036 105.486 151.044 106.14C151.048 106.786 150.655 106.758 150.215 106.754C148.437 106.75 146.658 106.715 144.884 106.77C144.134 106.794 143.932 106.552 143.944 105.827C143.987 103.592 143.96 101.358 143.96 99.1192L143.956 99.1232Z" fill="white"/>
<path d="M203.493 99.0754C203.493 96.9359 203.529 94.7923 203.477 92.6528C203.458 91.8484 203.592 91.48 204.525 91.5275C206.204 91.6068 207.887 91.5513 209.57 91.5513C210.046 91.5513 210.526 91.4958 210.479 92.2367C210.439 92.9262 209.947 92.7597 209.566 92.7637C208.351 92.7796 207.137 92.7994 205.922 92.7597C205.248 92.7399 204.894 92.8628 204.93 93.6592C204.993 94.9587 204.97 96.2662 204.938 97.5658C204.922 98.172 205.14 98.39 205.748 98.3702C206.914 98.3345 208.085 98.3424 209.252 98.3702C209.641 98.382 210.225 98.0968 210.252 98.9209C210.28 99.7371 209.724 99.5192 209.308 99.5231C208.141 99.539 206.97 99.5628 205.803 99.5152C205.128 99.4875 204.914 99.7094 204.934 100.383C204.982 101.778 204.997 103.176 204.93 104.571C204.89 105.431 205.271 105.573 206.006 105.55C207.264 105.506 208.53 105.55 209.788 105.534C210.272 105.526 210.594 105.601 210.574 106.203C210.554 106.762 210.225 106.758 209.828 106.758C207.958 106.754 206.089 106.722 204.224 106.77C203.386 106.79 203.497 106.283 203.497 105.775C203.497 103.541 203.497 101.306 203.497 99.0754H203.493Z" fill="white"/>
<path d="M245.568 99.1587C245.568 97.0151 245.604 94.8716 245.552 92.7281C245.533 91.8723 245.679 91.4681 246.68 91.5236C248.311 91.6107 249.954 91.5434 251.589 91.5513C251.99 91.5513 252.466 91.4285 252.506 92.0941C252.55 92.8232 252.077 92.7756 251.589 92.7717C250.375 92.7637 249.156 92.8034 247.942 92.7558C247.259 92.732 246.922 92.8549 246.965 93.6473C247.033 94.9033 247.017 96.1633 246.969 97.4193C246.942 98.1404 247.156 98.4138 247.91 98.3702C248.934 98.3107 249.97 98.3147 250.994 98.3702C251.45 98.394 252.244 97.974 252.216 98.9804C252.193 99.8877 251.474 99.4796 251.057 99.5034C249.986 99.5588 248.906 99.5588 247.831 99.5073C247.16 99.4756 246.942 99.6817 246.965 100.359C247.013 101.801 247.017 103.248 246.965 104.69C246.938 105.399 247.208 105.558 247.854 105.538C249.164 105.498 250.474 105.522 251.784 105.53C252.181 105.53 252.629 105.411 252.657 106.092C252.689 106.857 252.196 106.746 251.74 106.746C250.01 106.746 248.275 106.703 246.549 106.766C245.703 106.798 245.541 106.473 245.556 105.72C245.6 103.529 245.572 101.342 245.572 99.1507L245.568 99.1587Z" fill="white"/>
<path d="M274.776 99.1625C274.776 97.019 274.807 94.8755 274.76 92.732C274.74 91.8801 274.883 91.468 275.883 91.5235C277.514 91.6146 279.157 91.5512 280.793 91.5433C281.281 91.5433 281.753 91.4997 281.709 92.2288C281.67 92.8944 281.194 92.7597 280.793 92.7637C279.578 92.7716 278.36 92.7993 277.145 92.7557C276.467 92.732 276.121 92.8469 276.165 93.6472C276.232 94.9032 276.216 96.1632 276.169 97.4192C276.141 98.1363 276.351 98.4177 277.105 98.3741C278.129 98.3146 279.165 98.3186 280.189 98.3741C280.646 98.3978 281.436 97.9778 281.416 98.9842C281.396 99.8916 280.674 99.4874 280.261 99.5072C279.189 99.5627 278.11 99.5627 277.034 99.5112C276.367 99.4795 276.141 99.6816 276.165 100.363C276.216 101.805 276.216 103.251 276.165 104.694C276.137 105.399 276.399 105.565 277.054 105.542C278.364 105.498 279.673 105.526 280.983 105.534C281.38 105.534 281.829 105.411 281.856 106.096C281.888 106.861 281.4 106.754 280.94 106.754C279.209 106.754 277.475 106.71 275.748 106.774C274.907 106.806 274.74 106.489 274.756 105.728C274.8 103.537 274.772 101.35 274.772 99.1586L274.776 99.1625Z" fill="white"/>
<path d="M296.963 99.1075C296.963 96.964 297.019 94.8205 296.939 92.6769C296.903 91.7181 297.233 91.4962 298.126 91.5319C299.761 91.5953 301.4 91.5517 303.035 91.5477C303.472 91.5477 303.893 91.5081 303.901 92.146C303.909 92.7681 303.524 92.776 303.067 92.772C301.805 92.7601 300.539 92.8156 299.281 92.7522C298.515 92.7126 298.328 92.986 298.36 93.7031C298.427 95.1889 297.872 97.0789 298.59 98.0576C299.281 98.9966 301.293 98.2517 302.722 98.3626C303.107 98.3904 303.591 98.2121 303.627 98.9055C303.663 99.6979 303.115 99.5235 302.682 99.5275C301.559 99.5394 300.436 99.5711 299.317 99.5196C298.614 99.4879 298.328 99.6583 298.36 100.427C298.424 101.869 298.404 103.315 298.368 104.758C298.352 105.364 298.558 105.566 299.166 105.55C300.523 105.514 301.876 105.542 303.234 105.538C303.674 105.538 304.055 105.51 304.055 106.16C304.055 106.822 303.651 106.762 303.222 106.762C301.444 106.762 299.666 106.727 297.892 106.778C297.134 106.802 296.943 106.533 296.955 105.819C296.995 103.585 296.971 101.346 296.967 99.1115L296.963 99.1075Z" fill="white"/>
<path d="M112.454 99.135C112.454 96.9439 112.485 94.7529 112.438 92.5658C112.422 91.7852 112.632 91.5039 113.45 91.5316C115.133 91.5911 116.815 91.5475 118.502 91.5514C118.919 91.5514 119.371 91.4682 119.391 92.122C119.415 92.8629 118.911 92.7718 118.443 92.7718C117.181 92.7718 115.915 92.7995 114.652 92.7599C114.053 92.7401 113.827 92.9105 113.847 93.5365C113.89 94.8876 113.882 96.2387 113.847 97.5898C113.831 98.2118 114.077 98.3862 114.668 98.3703C115.883 98.3347 117.101 98.3703 118.316 98.3545C118.784 98.3505 119.133 98.3901 119.106 99.0162C119.082 99.6105 118.689 99.5273 118.324 99.5273C117.153 99.5312 115.982 99.5827 114.815 99.5114C113.982 99.4599 113.795 99.769 113.835 100.534C113.894 101.79 113.91 103.054 113.835 104.306C113.775 105.249 114.005 105.641 115.037 105.558C116.244 105.463 117.466 105.534 118.685 105.534C119.102 105.534 119.522 105.459 119.53 106.124C119.538 106.762 119.177 106.758 118.725 106.754C116.899 106.746 115.077 106.719 113.251 106.766C112.501 106.786 112.43 106.433 112.434 105.835C112.454 103.6 112.442 101.362 112.442 99.1271L112.454 99.135Z" fill="white"/>
<path d="M79.5704 106.758C78.6337 106.631 77.1096 107.277 76.4349 106.509C75.8674 105.863 76.2365 104.385 76.2325 103.275C76.2206 99.7847 76.2801 96.2941 76.1968 92.8074C76.173 91.7099 76.5302 91.4761 77.5383 91.5276C79.1219 91.6108 80.7135 91.5514 82.301 91.5474C82.7376 91.5474 83.1583 91.5117 83.1623 92.1497C83.1702 92.7717 82.7852 92.7796 82.3288 92.7757C81.0667 92.7638 79.8046 92.8153 78.5464 92.7559C77.7923 92.7202 77.5899 92.9777 77.6216 93.6989C77.6732 94.9549 77.6812 96.2148 77.6216 97.4669C77.5859 98.2435 77.9034 98.4099 78.602 98.3782C79.7212 98.3267 80.8444 98.3465 81.9637 98.3782C82.3645 98.3901 82.948 98.1325 82.9797 98.9289C83.0115 99.7411 82.432 99.5193 82.0192 99.5272C80.9 99.547 79.7768 99.5747 78.6575 99.5193C77.9153 99.4836 77.57 99.6342 77.6177 100.482C77.705 102.103 77.0938 104.167 77.8796 105.221C78.6337 106.227 80.8325 105.443 82.3923 105.538C82.8527 105.566 83.3369 105.439 83.3091 106.203C83.2853 106.897 82.8329 106.754 82.4399 106.762C81.5509 106.77 80.6658 106.762 79.5664 106.762L79.5704 106.758Z" fill="white"/>
<path d="M102.964 98.7826C102.952 100.653 102.916 102.051 103.226 103.426C103.587 105.035 104.488 105.807 106.024 105.819C107.389 105.827 108.096 105.118 108.469 103.446C108.568 102.998 108.247 102.245 109.243 102.305C109.818 102.341 110.048 102.416 110.025 103.078C109.945 105.094 108.703 106.719 106.905 107.012C104.603 107.388 102.638 106.449 102.107 104.405C101.19 100.89 101.182 97.3007 102.13 93.7863C102.662 91.825 104.504 91.0009 106.881 91.3258C108.735 91.5793 109.719 92.6174 109.902 94.5906C109.937 94.9789 110.227 95.5692 109.437 95.6604C108.826 95.7317 108.592 95.5653 108.465 94.8838C108.108 92.9701 107.485 92.4471 105.968 92.4906C104.385 92.5342 103.587 93.3148 103.202 95.0819C102.9 96.4647 102.988 97.8633 102.968 98.7826H102.964Z" fill="white"/>
<path d="M136.978 99.7135C136.978 97.7562 136.934 95.7989 136.997 93.8455C137.025 93.0055 136.827 92.6489 135.93 92.7599C135.287 92.8391 134.624 92.7599 133.969 92.7797C133.489 92.7916 133.306 92.5935 133.322 92.1141C133.334 91.6822 133.548 91.5475 133.933 91.5475C136.458 91.5475 138.982 91.5514 141.51 91.5396C142.006 91.5396 142.165 91.7694 142.149 92.225C142.133 92.645 141.919 92.7995 141.522 92.7757C141.431 92.7678 141.336 92.7757 141.24 92.7757C139.412 92.8682 138.498 93.8297 138.498 95.6602C138.498 99.0122 138.498 102.368 138.498 105.72C138.498 106.307 138.549 106.818 137.66 106.786C136.795 106.754 136.982 106.196 136.982 105.724C136.97 103.723 136.978 101.718 136.978 99.7135Z" fill="white"/>
<path d="M14.3407 99.7532C14.3407 97.7959 14.2851 95.8386 14.3645 93.8853C14.4042 92.9304 14.0668 92.6649 13.1857 92.76C12.6301 92.8194 12.0625 92.756 11.5029 92.7759C11.0266 92.7917 10.6694 92.7323 10.6893 92.1261C10.7051 91.6149 10.9949 91.5317 11.4235 91.5317C13.8565 91.5397 16.2855 91.5397 18.7185 91.5317C19.1789 91.5317 19.54 91.5714 19.5242 92.1934C19.5083 92.7402 19.1947 92.7798 18.7859 92.7679C18.7383 92.7679 18.6907 92.7679 18.647 92.7679C17.7262 92.8432 16.4363 92.3479 15.9759 92.974C15.5036 93.6198 15.7814 94.8362 15.7775 95.8029C15.7656 99.1113 15.7775 102.416 15.7695 105.724C15.7695 106.204 15.9323 106.766 15.075 106.774C14.2415 106.782 14.3447 106.263 14.3407 105.756C14.3407 103.755 14.3407 101.75 14.3407 99.7492V99.7532Z" fill="white"/>
<path d="M168.34 99.0441C168.34 96.9006 168.384 94.7571 168.32 92.6135C168.292 91.7379 168.566 91.4883 169.424 91.5279C170.916 91.5953 172.416 91.5398 173.913 91.5517C174.305 91.5517 174.778 91.4288 174.809 92.1064C174.845 92.8631 174.341 92.7641 173.881 92.7681C172.805 92.7681 171.726 92.8196 170.654 92.7522C169.888 92.7047 169.697 92.982 169.733 93.6992C169.789 94.9076 169.813 96.124 169.729 97.3325C169.662 98.2675 170.063 98.426 170.868 98.3745C171.801 98.3111 172.738 98.3587 173.674 98.3587C174.055 98.3587 174.413 98.327 174.44 98.8975C174.472 99.5473 174.083 99.5354 173.635 99.5315C172.698 99.5235 171.761 99.583 170.829 99.5116C169.999 99.4482 169.682 99.6464 169.725 100.558C169.809 102.277 169.753 104.005 169.745 105.728C169.745 106.22 169.892 106.758 169.043 106.774C168.177 106.79 168.34 106.231 168.34 105.752C168.332 103.517 168.34 101.279 168.34 99.0441Z" fill="white"/>
<path d="M228.157 99.6659C228.157 97.7561 228.117 95.8464 228.177 93.9406C228.204 93.0689 228.022 92.633 227.041 92.7598C226.442 92.8351 225.827 92.7598 225.22 92.7796C224.743 92.7955 224.386 92.74 224.406 92.1299C224.422 91.6108 224.72 91.5435 225.148 91.5435C227.625 91.5514 230.102 91.5514 232.582 91.5435C233.015 91.5435 233.281 91.6187 233.281 92.1457C233.281 92.637 233.086 92.8232 232.618 92.7717C232.527 92.7638 232.431 92.7717 232.336 92.7717C230.492 92.8404 229.57 93.79 229.57 95.6205C229.57 98.9725 229.57 102.324 229.57 105.68C229.57 106.235 229.701 106.814 228.776 106.778C227.863 106.742 228.173 106.1 228.169 105.676C228.141 103.676 228.157 101.671 228.157 99.6698V99.6659Z" fill="white"/>
<path d="M350.79 99.2459C350.79 97.0073 350.794 94.7726 350.786 92.534C350.786 91.9912 350.738 91.5117 351.544 91.5355C352.286 91.5593 352.199 92.0268 352.199 92.4944C352.199 96.9201 352.199 101.35 352.199 105.776C352.199 106.302 352.262 106.794 351.445 106.77C350.683 106.746 350.794 106.267 350.794 105.815C350.79 103.624 350.794 101.433 350.794 99.2419L350.79 99.2459Z" fill="white"/>
</g>
<defs>
<clipPath id="clip0_982_54705">
<rect width="362.1" height="106.313" fill="white" transform="translate(0.950195 0.77832)"/>
</clipPath>
</defs>
</svg>
