<svg width="364" height="122" viewBox="0 0 364 122" fill="none" xmlns="http://www.w3.org/2000/svg">
<g clip-path="url(#clip0_1110_35388)">
<path d="M0.950195 71.3585C1.30649 70.7705 1.59006 70.139 2.19358 69.747C2.55714 69.5075 2.3899 69.1445 2.34627 68.8397C1.89546 65.6749 1.75003 62.4955 1.85183 59.3089C2.25175 47.1505 6.11277 36.1825 13.2895 26.3686C15.878 22.8336 18.852 19.647 22.1967 16.8088C22.5167 16.533 22.6912 16.2935 22.6185 15.8216C22.4076 14.4134 23.0765 13.2303 24.3345 12.6786C25.4688 12.1777 26.9376 12.4971 27.7301 13.3972C28.6318 14.4279 28.7554 15.8579 28.0428 16.9976C27.3448 18.1081 25.9487 18.6743 24.6471 18.217C24.0582 18.0065 23.7237 18.1154 23.302 18.4929C13.2386 27.3849 6.99259 38.4254 4.62217 51.6146C3.61147 57.2402 3.53148 62.9093 4.33859 68.5784C4.39676 68.9994 4.49128 69.2462 4.94937 69.4276C6.28728 69.943 7.03621 71.206 6.88352 72.4691C6.70901 73.87 5.69831 74.9225 4.32405 75.133C3.02977 75.329 1.79366 74.6394 1.16106 73.3691C1.09562 73.2385 1.01564 73.1151 0.950195 72.9917C0.950195 72.4473 0.950195 71.9101 0.950195 71.3657L0.950195 71.3585Z" fill="white"/>
<path d="M317.605 121.553C317.561 121.603 317.561 121.661 317.598 121.72H313.976C313.998 121.661 313.998 121.611 313.962 121.56C315.176 121.066 316.39 121.074 317.605 121.56V121.553Z" fill="white"/>
<path d="M202.421 94.8113C201.221 97.7439 200.014 100.684 198.815 103.616C196.524 109.22 194.227 114.817 191.958 120.435C191.769 120.907 191.536 121.052 191.042 121.045C189.551 121.03 189.544 121.059 188.991 119.709C185.632 111.499 182.273 103.29 178.906 95.0872C178.877 95.0073 178.826 94.9347 178.681 94.6662C178.659 95.1307 178.637 95.3993 178.637 95.6679C178.637 103.819 178.622 111.971 178.652 120.123C178.652 120.885 178.463 121.095 177.714 121.052C176.601 120.986 175.481 120.986 174.369 121.052C173.627 121.095 173.489 120.841 173.489 120.152C173.511 111.79 173.504 103.427 173.504 95.0654C173.504 92.7498 173.525 90.4343 173.489 88.1188C173.474 87.4727 173.685 87.313 174.303 87.3275C176.201 87.3638 178.106 87.3638 180.004 87.3275C180.615 87.313 180.891 87.5018 181.117 88.0752C184.156 95.6098 187.224 103.13 190.278 110.65C190.366 110.868 190.46 111.093 190.605 111.448C191.558 109.104 192.474 106.868 193.383 104.625C195.615 99.123 197.862 93.6282 200.065 88.1188C200.305 87.5163 200.611 87.3203 201.251 87.3348C203.177 87.3784 205.112 87.3711 207.038 87.3348C207.547 87.3275 207.693 87.4582 207.693 87.9736C207.678 98.7746 207.678 109.568 207.693 120.369C207.693 120.943 207.533 121.074 206.988 121.052C205.846 121.008 204.69 120.986 203.548 121.052C202.785 121.095 202.552 120.921 202.552 120.094C202.588 111.971 202.574 103.849 202.574 95.7332V94.8476C202.516 94.8331 202.458 94.8259 202.399 94.8113H202.421Z" fill="white"/>
<path d="M274.683 112.494V103.602C274.683 98.4555 274.697 93.3163 274.668 88.1698C274.668 87.5311 274.77 87.277 275.49 87.3206C276.631 87.3932 277.787 87.3932 278.929 87.3206C279.671 87.277 279.801 87.5383 279.801 88.2207C279.78 96.4957 279.787 104.763 279.787 113.038C279.787 115.477 279.772 117.909 279.801 120.348C279.801 120.892 279.685 121.074 279.111 121.052C277.933 121.001 276.755 121.001 275.584 121.052C274.988 121.081 274.668 120.849 274.341 120.392C268.509 112.291 262.656 104.204 256.81 96.1109C256.657 95.9004 256.504 95.6972 256.315 95.4431C256.105 95.8133 256.199 96.1472 256.199 96.4594C256.199 104.342 256.185 112.225 256.214 120.101C256.214 120.842 256.054 121.088 255.29 121.045C254.149 120.979 253 120.994 251.851 121.045C251.24 121.074 251.109 120.871 251.116 120.297C251.146 116.661 251.131 113.017 251.131 109.38C251.131 102.339 251.146 95.3052 251.116 88.2642C251.116 87.5311 251.255 87.2698 252.04 87.3206C253.182 87.3932 254.33 87.3786 255.479 87.3206C256.126 87.2915 256.519 87.5093 256.89 88.0319C262.641 95.9658 268.415 103.892 274.188 111.812C274.304 111.979 274.435 112.138 274.704 112.494H274.683Z" fill="white"/>
<path d="M363.036 104.205C363.036 109.525 363.021 114.853 363.05 120.174C363.05 120.892 362.861 121.081 362.163 121.045C360.992 120.987 359.807 120.994 358.637 121.045C358.055 121.067 357.946 120.878 357.953 120.341C357.975 115.862 357.953 111.376 357.982 106.898C357.982 106.244 357.888 105.99 357.131 105.997C351.46 106.034 345.788 106.034 340.124 105.997C339.419 105.997 339.302 106.201 339.31 106.847C339.339 111.296 339.31 115.746 339.339 120.196C339.339 120.834 339.244 121.096 338.524 121.045C337.383 120.972 336.234 120.98 335.085 121.045C334.365 121.088 334.205 120.856 334.205 120.159C334.227 110.447 334.22 100.735 334.22 91.0226C334.22 90.0572 334.256 89.099 334.205 88.1336C334.176 87.5384 334.292 87.2771 334.969 87.3134C336.168 87.3715 337.383 87.3642 338.59 87.3134C339.186 87.2916 339.331 87.4658 339.331 88.0538C339.302 92.2348 339.331 96.4159 339.302 100.597C339.302 101.287 339.455 101.497 340.182 101.49C345.825 101.453 351.46 101.461 357.102 101.49C357.815 101.49 357.989 101.308 357.989 100.604C357.953 96.4522 357.989 92.3074 357.953 88.1554C357.953 87.4949 358.084 87.2771 358.782 87.3134C359.953 87.3787 361.138 87.3642 362.308 87.3134C362.897 87.2916 363.057 87.4658 363.05 88.0538C363.028 93.4398 363.036 98.8185 363.036 104.205Z" fill="white"/>
<path d="M231.426 121.052C230.089 121.052 228.758 121.052 227.42 121.052C222.17 120.558 218.106 118.395 216.113 113.321C215.343 111.362 215.124 109.307 215.124 107.224C215.124 100.887 215.139 94.5431 215.103 88.2062C215.103 87.4367 215.328 87.277 216.048 87.3133C217.16 87.3787 218.28 87.3714 219.393 87.3133C220.105 87.277 220.301 87.4875 220.294 88.1916C220.265 94.4124 220.272 100.633 220.28 106.854C220.28 108.632 220.454 110.389 221.225 112.044C222.454 114.672 224.599 116.08 227.42 116.508C230.074 116.907 232.67 116.697 234.946 115.122C237.614 113.271 238.392 110.505 238.421 107.5C238.472 101.069 238.45 94.6447 238.421 88.2134C238.421 87.444 238.64 87.2698 239.374 87.3133C240.545 87.3787 241.723 87.3496 242.9 87.3206C243.373 87.3061 243.584 87.3932 243.584 87.9303C243.555 94.8624 243.642 101.795 243.519 108.727C243.388 115.804 238.64 120.537 231.426 121.045V121.052Z" fill="white"/>
<path d="M317.605 121.553C316.391 121.553 315.176 121.553 313.962 121.553C305.884 120.972 299.369 114.606 298.562 106.549C297.987 100.8 299.347 95.69 303.542 91.5379C309.301 85.8471 319.256 85.1212 325.523 89.8902C326.832 90.8846 327.908 92.0823 328.868 93.4034C329.137 93.7736 329.181 93.9551 328.708 94.1874C327.574 94.7463 326.461 95.3415 325.356 95.9513C325 96.1473 324.818 96.1327 324.556 95.7843C321.582 91.8573 317.569 90.5507 312.886 91.6613C308.029 92.8082 305.106 96.1182 304.059 100.902C302.983 105.801 303.935 110.295 307.651 113.924C312.464 118.628 320.404 118.054 324.462 112.741C324.782 112.327 324.993 112.225 325.465 112.494C326.534 113.104 327.625 113.67 328.73 114.229C329.115 114.425 329.188 114.563 328.912 114.947C326.112 118.809 322.411 121.117 317.605 121.553Z" fill="white"/>
<path d="M18.1759 37.5979C18.1759 39.2311 17.2015 40.407 15.5873 40.603C15.0493 40.6683 14.802 40.8571 14.5984 41.3144C12.4534 46.3229 11.0792 51.5274 10.7156 56.9715C9.66128 72.6287 14.8166 85.934 26.0288 96.9165C28.1811 99.0288 30.5806 100.851 33.0965 102.513C33.5618 102.818 33.889 102.92 34.4489 102.615C35.9759 101.794 37.8518 102.564 38.4917 104.168C39.117 105.743 38.3099 107.514 36.7175 108.059C34.7616 108.727 32.871 107.427 32.8056 105.344C32.7911 104.858 32.6165 104.596 32.2239 104.342C21.7897 97.5045 14.6275 88.1697 10.8538 76.2871C8.88326 70.0954 8.2143 63.7439 8.67239 57.2546C9.08685 51.3532 10.4684 45.7059 12.8752 40.3054C13.086 39.8336 12.9261 39.5505 12.7007 39.173C11.8281 37.6995 12.3444 35.8412 13.8204 35.05C15.2892 34.2661 17.0707 34.8032 17.8705 36.2623C18.1104 36.6978 18.205 37.1623 18.1832 37.5906L18.1759 37.5979Z" fill="white"/>
<path d="M18.0158 77.2091C17.0487 77.2091 16.1252 76.6647 15.5799 75.5759C15.0127 74.4435 15.1291 73.3039 15.9725 72.3893C16.4452 71.8812 16.4234 71.4529 16.307 70.8795C13.1949 55.5852 16.7724 42.0622 27.2357 30.4336C31.5184 25.6719 36.7319 22.1368 42.6434 19.6398C43.116 19.4366 43.4142 19.2261 43.5087 18.6526C43.7268 17.3533 44.8321 16.4314 46.1481 16.3226C47.4352 16.2137 48.6713 16.9976 49.1439 18.2026C49.6165 19.4221 49.253 20.8085 48.2423 21.6215C47.2316 22.4345 45.7191 22.5433 44.723 21.7231C44.1704 21.273 43.7632 21.3239 43.2106 21.5779C29.4825 27.8858 20.9824 38.3747 17.9576 53.1681C16.7724 58.9606 16.9832 64.7531 18.2775 70.5238C18.4011 71.0609 18.5975 71.3005 19.1501 71.4529C20.5534 71.8376 21.4114 73.2458 21.2078 74.654C20.997 76.1348 19.7899 77.1946 18.023 77.2164L18.0158 77.2091Z" fill="white"/>
<path d="M287.204 104.211C287.204 98.8618 287.219 93.5048 287.189 88.1551C287.189 87.4582 287.386 87.284 288.047 87.3131C289.16 87.3639 290.287 87.3929 291.392 87.3058C292.257 87.2332 292.359 87.5816 292.352 88.322C292.323 95.2396 292.337 102.157 292.337 109.068C292.337 112.77 292.316 116.464 292.359 120.166C292.367 120.899 292.141 121.074 291.45 121.037C290.338 120.979 289.218 120.965 288.106 121.037C287.313 121.088 287.189 120.798 287.189 120.079C287.219 114.787 287.204 109.496 287.204 104.204V104.211Z" fill="white"/>
<path d="M61.2434 4.72998C52.5616 4.72998 45.1813 6.23255 38.0991 9.23768C37.561 9.4627 37.3138 9.74579 37.2265 10.3192C36.9939 11.7855 35.9759 12.7291 34.5943 12.8671C33.2928 12.9905 32.0785 12.2573 31.5622 11.0378C31.0751 9.89096 31.4023 8.4755 32.3403 7.66252C33.3946 6.75518 34.7761 6.6463 36.005 7.49557C36.434 7.79318 36.703 7.65526 37.0593 7.49557C45.5012 3.85167 54.3357 2.29104 63.5048 2.81367C74.717 3.4597 84.9403 7.03827 94.1239 13.4986C94.5965 13.8325 94.9674 13.9849 95.5782 13.7454C96.8433 13.2518 98.2467 13.7889 98.9811 14.9068C99.6791 15.9738 99.5919 17.4328 98.7702 18.4418C97.9704 19.4217 96.5234 19.7701 95.3237 19.2765C94.0948 18.7757 93.3168 17.4909 93.5277 16.1553C93.6004 15.7052 93.484 15.5092 93.1568 15.277C86.2492 10.3918 78.6435 7.15441 70.3034 5.64459C66.9731 5.04211 63.6211 4.70095 61.2289 4.73724L61.2434 4.72998Z" fill="white"/>
<path d="M9.53778 81.361C9.55232 81.9417 9.48688 82.5442 9.1015 82.9797C8.64342 83.5023 8.70886 83.9451 8.99243 84.5113C16.8526 100.618 29.4173 111.028 46.7956 115.644C47.3991 115.804 47.8208 115.789 48.2934 115.281C49.1951 114.323 50.6639 114.192 51.7909 114.831C52.9252 115.477 53.5069 116.769 53.2379 118.061C52.9834 119.295 51.8927 120.239 50.5548 120.37C49.3041 120.493 48.068 119.796 47.6245 118.569C47.4063 117.974 47.0719 117.771 46.4974 117.619C28.283 112.85 15.1294 101.976 7.0292 85.0267C6.81834 84.5911 6.62201 84.3661 6.0694 84.3008C4.45519 84.0903 3.47357 82.6458 3.65535 80.9472C3.80805 79.5172 5.21139 78.3486 6.702 78.4212C8.2944 78.4938 9.53051 79.764 9.54505 81.3537L9.53778 81.361Z" fill="white"/>
<path d="M60.2321 104.038C63.1914 104.009 66.129 103.711 69.0302 103.116C69.4956 103.021 69.801 102.869 69.961 102.324C70.3609 100.967 71.517 100.198 72.8913 100.241C74.1928 100.285 75.3271 101.178 75.6689 102.441C76.0034 103.682 75.458 105.061 74.3601 105.729C73.1458 106.469 71.8079 106.331 70.7172 105.301C70.3972 104.996 70.1137 104.916 69.6774 105.003C53.6589 108.073 39.8217 103.885 28.115 92.5905C28.0278 92.5034 27.9405 92.4235 27.8605 92.3364C27.2716 91.6541 26.7408 91.1823 25.621 91.2912C23.9632 91.4581 22.5671 89.7668 22.7343 88.1772C22.9307 86.3262 24.4794 85.143 26.2972 85.4551C27.9405 85.7382 29.1039 87.5021 28.5731 89.1353C28.3477 89.8322 28.5731 90.1588 28.9949 90.5943C35.9389 97.8095 44.3808 102.136 54.2915 103.617C56.262 103.907 58.247 104.03 60.2393 104.045L60.2321 104.038Z" fill="white"/>
<path d="M114.84 59.9986C115.952 58.1548 117.363 57.5886 118.977 58.3C119.762 58.6484 120.199 59.3017 120.606 60.0058C121.035 60.6591 121.013 61.3124 120.62 61.9657C120.199 62.7496 119.675 63.432 118.81 63.7804C118.686 64.8547 118.621 65.9217 118.875 66.9887C118.955 67.3154 118.984 67.6566 118.912 67.9759C118.577 69.3987 118.737 70.8432 118.73 72.2804C118.715 86.3551 118.723 100.43 118.73 114.505C118.73 114.853 118.606 115.223 118.846 115.55C120.315 116.283 120.918 117.408 120.635 118.896C120.395 120.145 119.362 121.081 118.09 121.204C116.672 121.342 115.516 120.675 114.978 119.397C114.338 117.873 115 116.327 116.621 115.543C116.847 115.281 116.738 114.962 116.738 114.679C116.738 101.816 116.817 88.9538 116.701 76.0912C116.665 72.3457 116.614 68.5929 116.578 64.8402C116.578 64.6297 116.578 64.4191 116.49 64.2232C116.287 63.7659 115.829 63.5553 115.501 63.2142C115.109 62.8004 114.723 62.3939 114.622 61.806C114.614 61.189 114.418 60.5502 114.854 59.9913L114.84 59.9986Z" fill="white"/>
<path d="M69.1689 11.8004C69.1689 10.2905 70.1506 9.10009 71.583 8.87507C73.139 8.62827 74.5569 9.434 74.9496 10.922C75.095 11.4665 75.3786 11.6334 75.8221 11.7786C89.4557 16.2572 99.6281 24.8371 106.332 37.4891C106.587 37.9682 106.878 38.1569 107.416 38.2295C108.826 38.4328 109.808 39.478 109.939 40.7919C110.07 42.0985 109.35 43.3542 108.179 43.8623C106.994 44.3777 105.547 44.0583 104.711 43.0929C103.831 42.0694 103.693 40.683 104.514 39.5143C104.885 38.9844 104.689 38.6433 104.464 38.2295C98.3557 26.8405 89.2448 18.8559 77.1091 14.3264C76.8256 14.2248 76.542 14.1304 76.2584 14.0215C75.3568 13.6731 74.5715 13.4118 73.6626 14.2611C72.8482 15.0305 71.6848 14.9144 70.6886 14.3772C69.6779 13.8401 69.1762 12.9545 69.1689 11.8004Z" fill="white"/>
<path d="M136.035 94.6374C136.035 101.308 136.035 107.986 136.027 114.657C136.027 115.238 136.115 115.63 136.682 115.971C137.838 116.661 138.26 117.996 137.867 119.266C137.474 120.544 136.369 121.357 135.031 121.357C133.686 121.357 132.581 120.551 132.188 119.274C131.796 118.011 132.217 116.653 133.366 115.971C133.933 115.63 134.028 115.245 134.028 114.664C134.013 101.315 134.013 87.9666 134.028 74.6178C134.028 74.0661 133.919 73.7177 133.388 73.4055C132.246 72.7377 131.817 71.3949 132.188 70.1101C132.544 68.8688 133.621 68.0631 134.937 68.0341C136.347 68.005 137.409 68.7236 137.845 70.0084C138.274 71.2569 137.896 72.6506 136.762 73.3402C136.129 73.7249 136.027 74.1532 136.035 74.792C136.049 81.4047 136.042 88.0174 136.042 94.6374H136.035Z" fill="white"/>
<path d="M29.8097 36.8213C30.3695 37.0753 30.6677 36.6471 31.0167 36.2478C37.4517 28.8221 45.5519 24.4015 55.288 23.0441C59.4036 22.4707 63.5263 22.6159 67.6128 23.4289C68.02 23.5087 68.2599 23.4434 68.558 23.153C69.5978 22.1295 70.9285 21.9408 72.1209 22.5723C73.2116 23.153 73.8515 24.4233 73.6406 25.592C73.3861 27.0292 72.4481 27.9438 70.9939 28.1543C69.7869 28.3358 68.369 27.5591 67.9836 26.3324C67.7509 25.6065 67.3874 25.3887 66.6821 25.2798C53.0849 23.2401 41.7345 27.3631 32.5654 37.5472C32.231 37.9174 32.1292 38.2077 32.34 38.7231C32.8418 39.9716 32.4055 41.358 31.3875 42.1129C30.3259 42.9041 28.8135 42.9041 27.7592 42.1129C26.7412 41.3508 26.334 39.928 26.7776 38.7086C27.2284 37.4673 28.3481 36.756 29.8169 36.8068L29.8097 36.8213Z" fill="white"/>
<path d="M61.6213 18.0791C61.2577 18.0791 60.8942 18.1082 60.5379 18.0791C59.7962 17.9993 59.3018 18.159 58.8873 18.9066C58.2547 20.0317 56.8223 20.4382 55.5498 20.0463C54.4155 19.6978 53.5357 18.5437 53.4848 17.346C53.4339 16.1047 54.2119 14.9216 55.4044 14.457C56.6187 13.9779 58.0366 14.3118 58.8 15.4152C59.2145 16.0104 59.6362 16.083 60.2834 16.0902C71.8883 16.1628 82.0025 20.1043 90.648 27.8131C92.2913 29.2794 93.7747 30.8909 95.1853 32.5821C95.4761 32.9306 95.7306 33.1048 96.2323 33.0757C98.0065 32.9669 99.3081 34.0412 99.4462 35.6526C99.5844 37.3003 98.53 38.6868 96.9813 38.89C95.2071 39.1223 93.8619 38.1278 93.5347 36.3567C93.4475 35.8849 93.4984 35.4131 93.7019 35.0356C94.0219 34.4331 93.8183 34.0775 93.4329 33.6274C86.4816 25.4395 77.7271 20.4165 67.1111 18.6235C65.3005 18.3187 63.4754 18.1082 61.6358 18.0864L61.6213 18.0791Z" fill="white"/>
<path d="M107.212 75.3073C106.841 75.9679 106.426 76.5921 105.699 76.9188C105.423 77.0422 105.372 77.2381 105.379 77.4922C105.379 77.6737 105.379 77.8551 105.379 78.0366C105.379 90.1878 105.379 102.339 105.372 114.49C105.372 115.093 105.437 115.514 106.048 115.877C107.182 116.552 107.575 117.931 107.182 119.216C106.819 120.384 105.656 121.219 104.361 121.226C103.016 121.226 101.889 120.421 101.496 119.158C101.126 117.96 101.54 116.559 102.616 115.891C103.227 115.514 103.358 115.085 103.358 114.432C103.343 102.31 103.343 90.1878 103.358 78.0729C103.358 77.4704 103.343 76.9913 102.66 76.6937C102.1 76.4542 101.78 75.888 101.555 75.3146C100.966 74.7556 101.191 74.0733 101.249 73.4055C102.238 71.1335 104.412 70.3931 106.266 71.6924C106.884 72.128 107.262 72.7087 107.437 73.4345C107.459 74.0661 107.648 74.7194 107.212 75.2928V75.3073Z" fill="white"/>
<path d="M19.7319 26.9928C19.7465 25.1563 21.4043 23.7336 23.1857 24.1256C23.782 24.2562 24.1165 24.111 24.5237 23.7263C32.442 16.228 41.8074 11.6405 52.5979 9.97095C53.9939 9.75319 55.4046 9.62253 56.8079 9.49188C57.2369 9.44832 57.4914 9.31767 57.7168 8.91843C58.4439 7.64815 59.8836 7.111 61.207 7.54653C62.5449 7.98931 63.352 9.24508 63.2357 10.7041C63.1339 12.0107 62.0577 13.1721 60.6689 13.339C59.4328 13.4842 58.4221 12.9906 57.7459 11.9308C57.5278 11.5824 57.3024 11.43 56.8806 11.4663C46.0901 12.3736 36.4994 16.1845 28.1884 23.1384C27.7012 23.5449 27.2431 23.9804 26.7559 24.3796C25.9125 25.0692 25.3598 25.737 25.5562 27.0363C25.8034 28.6768 24.3128 30.0052 22.6477 30.0052C21.0044 30.0052 19.7174 28.6623 19.7246 26.9855L19.7319 26.9928Z" fill="white"/>
<path d="M24.8655 46.2358C26.2834 46.2576 27.5122 47.2883 27.7304 48.6384C27.9703 50.1265 27.1705 51.6145 25.7599 51.9702C25.0546 52.1444 24.8728 52.5001 24.7492 53.1026C22.4296 64.5424 24.8437 74.8426 32.1513 83.9814C32.5221 84.4387 32.842 84.7145 33.5546 84.5621C34.8925 84.279 36.1068 85.0194 36.6522 86.2098C37.2339 87.4728 36.943 88.7794 35.8814 89.7231C34.9289 90.5651 33.5764 90.6885 32.4349 90.0207C31.3151 89.3746 30.7261 88.0608 31.0897 86.7687C31.2642 86.1735 31.0679 85.8324 30.7188 85.4114C25.8108 79.4882 22.9023 72.723 22.0879 65.065C21.6298 60.7533 21.8916 56.4924 22.8659 52.2678C22.9677 51.8178 22.9532 51.5274 22.6114 51.1572C21.7316 50.2136 21.5353 49.0885 22.1024 47.9053C22.6405 46.7657 23.593 46.214 24.8582 46.2213L24.8655 46.2358Z" fill="white"/>
<path d="M145.423 95.5085C145.437 94.8479 145.902 93.9623 146.862 93.4179C147.313 93.1639 147.4 92.8735 147.4 92.4162C147.393 80.8966 147.393 69.3842 147.4 57.8645C147.4 57.3491 147.226 57.066 146.797 56.7975C145.626 56.0716 145.168 54.7868 145.539 53.5238C145.939 52.1881 147.044 51.3461 148.411 51.3389C149.727 51.3389 150.89 52.239 151.261 53.56C151.618 54.8158 151.13 56.1514 149.96 56.8192C149.473 57.0951 149.393 57.4145 149.393 57.8935C149.4 69.3769 149.407 80.8675 149.378 92.3509C149.378 92.9679 149.633 93.2292 150.098 93.5341C151.283 94.3108 151.676 95.7988 151.123 97.1272C150.585 98.4265 149.167 99.1233 147.698 98.8112C146.353 98.5281 145.422 97.3522 145.415 95.5012L145.423 95.5085Z" fill="white"/>
<path d="M148.448 0.773975C149.749 0.781234 150.832 1.57244 151.232 2.80643C151.632 4.0622 151.211 5.46314 150.091 6.12369C149.524 6.45759 149.4 6.82053 149.4 7.41575C149.415 18.2966 149.415 29.1848 149.4 40.0657C149.4 40.6464 149.502 41.0238 150.062 41.3577C151.232 42.0618 151.647 43.441 151.218 44.7476C150.825 45.9308 149.662 46.7655 148.397 46.7728C147.088 46.78 145.917 45.8727 145.532 44.5661C145.168 43.3176 145.655 41.9747 146.812 41.2924C147.27 41.0238 147.4 40.7335 147.4 40.2326C147.386 29.2574 147.386 18.2821 147.4 7.30687C147.4 6.76246 147.255 6.46485 146.775 6.16724C145.619 5.45588 145.161 4.12753 145.539 2.87902C145.932 1.55792 147.03 0.766717 148.448 0.773975Z" fill="white"/>
<path d="M84.3078 91.8642C84.2933 94.0273 82.1846 95.4065 80.1778 94.5282C79.647 94.2959 79.2761 94.3104 78.7744 94.5862C72.4266 98.0777 65.6062 99.6383 58.3713 99.3189C54.1613 99.1302 50.0821 98.2519 46.1629 96.6768C45.683 96.4808 45.3267 96.4662 44.8541 96.7784C43.7053 97.5405 42.2292 97.3809 41.2549 96.4953C40.2805 95.6097 40.0187 94.1289 40.615 92.9385C41.1967 91.7843 42.4401 91.1746 43.7925 91.3779C45.1159 91.5738 46.0684 92.5756 46.2138 94.0201C46.2575 94.4628 46.432 94.6443 46.8028 94.7822C52.0454 96.8219 57.4624 97.6857 63.0904 97.2357C68.2675 96.8147 73.1174 95.3557 77.6837 92.9022C78.1709 92.6409 78.4327 92.3796 78.4254 91.7481C78.4108 90.0568 79.7633 88.8228 81.4575 88.8736C83.1008 88.9244 84.3151 90.2019 84.3005 91.8642H84.3078Z" fill="white"/>
<path d="M141.707 121.357C140.369 121.357 139.271 120.551 138.871 119.266C138.471 117.996 138.893 116.66 140.056 115.971C140.623 115.637 140.725 115.252 140.725 114.671C140.71 104.117 140.71 93.5629 140.725 83.0014C140.725 82.428 140.652 82.0433 140.063 81.7094C138.914 81.0634 138.478 79.6769 138.871 78.4139C139.263 77.1291 140.354 76.3379 141.714 76.3379C143.074 76.3379 144.15 77.1291 144.557 78.4212C144.95 79.6769 144.513 81.0706 143.364 81.7166C142.768 82.0505 142.703 82.4353 142.703 83.0087C142.717 93.563 142.717 104.117 142.703 114.679C142.703 115.267 142.805 115.644 143.372 115.978C144.535 116.668 144.95 117.989 144.55 119.274C144.15 120.558 143.059 121.364 141.714 121.364L141.707 121.357Z" fill="white"/>
<path d="M86.2995 106.121C86.2777 108.429 83.82 109.83 81.8422 108.596C81.3187 108.269 80.9624 108.32 80.4679 108.531C70.4773 112.719 60.1667 113.655 49.5652 111.492C49.1217 111.405 48.8163 111.441 48.4527 111.797C47.3984 112.821 45.9878 112.944 44.8026 112.211C43.6973 111.529 43.1883 110.229 43.501 108.915C43.7919 107.71 44.9334 106.789 46.1841 106.745C47.6529 106.687 48.7654 107.406 49.2017 108.821C49.3543 109.315 49.6016 109.474 50.0451 109.569C60.2612 111.623 70.1792 110.701 79.7917 106.643C80.1916 106.477 80.3807 106.288 80.4243 105.809C80.5697 104.096 81.9076 103.021 83.6527 103.137C85.1797 103.239 86.314 104.524 86.2995 106.135V106.121Z" fill="white"/>
<path d="M187.144 68.6507C182.171 68.6507 177.197 68.6507 172.224 68.6435C171.678 68.6435 171.308 68.7233 170.995 69.275C170.34 70.4364 168.973 70.8937 167.708 70.509C166.37 70.1025 165.52 68.9774 165.541 67.6272C165.563 66.3352 166.421 65.2173 167.694 64.8254C168.952 64.4406 170.333 64.898 170.988 66.0376C171.3 66.582 171.671 66.6691 172.216 66.6691C182.229 66.6546 192.234 66.6618 202.247 66.6691C202.748 66.6691 203.105 66.6255 203.41 66.0956C204.086 64.9052 205.417 64.4334 206.675 64.8036C208.005 65.1883 208.813 66.2263 208.834 67.5764C208.856 69.0064 208.1 70.0807 206.762 70.5017C205.511 70.8937 204.152 70.4727 203.454 69.3113C203.112 68.7378 202.741 68.6435 202.159 68.6435C197.157 68.658 192.147 68.6507 187.144 68.6507Z" fill="white"/>
<path d="M165.833 74.2909C165.848 72.9335 166.64 71.881 167.956 71.4818C169.192 71.1116 170.508 71.5253 171.192 72.6505C171.548 73.2312 171.941 73.3546 172.566 73.3546C182.375 73.3328 192.177 73.3328 201.986 73.3546C202.64 73.3546 203.076 73.2384 203.447 72.6142C204.094 71.5253 205.468 71.1043 206.697 71.4818C207.992 71.881 208.806 72.9698 208.806 74.3055C208.806 75.6556 208.006 76.7371 206.719 77.1436C205.483 77.5283 204.116 77.1364 203.462 76.0476C203.091 75.4306 202.662 75.3072 202.007 75.3072C192.198 75.3217 182.397 75.3217 172.588 75.3072C171.984 75.3072 171.57 75.387 171.206 75.9895C170.501 77.1582 169.149 77.5574 167.883 77.1436C166.589 76.7226 165.826 75.6556 165.84 74.2764L165.833 74.2909Z" fill="white"/>
<path d="M155.056 26.209C156.452 26.2018 157.499 26.9494 157.914 28.256C158.306 29.4973 157.877 30.8764 156.75 31.566C156.227 31.8854 156.096 32.2193 156.096 32.7855C156.111 42.6501 156.111 52.5148 156.096 62.3795C156.096 62.9384 156.22 63.2941 156.736 63.6135C157.914 64.3393 158.328 65.675 157.899 67.0033C157.507 68.2373 156.336 69.043 154.998 69.014C153.682 68.985 152.584 68.1357 152.213 66.8436C151.85 65.5951 152.33 64.245 153.493 63.5699C154.002 63.2723 154.104 62.9384 154.104 62.4158C154.089 52.5511 154.089 42.6864 154.104 32.8218C154.104 32.2483 153.958 31.9072 153.442 31.595C152.293 30.8909 151.842 29.5553 152.228 28.2996C152.628 27.0002 153.682 26.2163 155.049 26.209H155.056Z" fill="white"/>
<path d="M110.026 66.6328C110.026 65.1157 110.026 63.5914 110.033 62.0743C109.808 61.3847 109.83 60.6879 109.968 59.991C109.968 59.5991 109.946 59.2144 109.968 58.8224C110.019 57.886 109.953 57.0803 108.841 56.7028C108.266 56.5068 108.019 55.8608 107.75 55.3164C107.27 54.6558 107.197 53.988 107.757 53.3348C108.332 52.1443 109.219 51.3458 110.586 51.3676C111.924 51.3894 112.898 52.0572 113.407 53.3275C113.945 54.1114 113.945 54.5978 113.407 55.3164C113.211 55.6503 113.087 56.1366 112.796 56.2891C111.713 56.848 111.916 57.7916 111.945 58.699C111.96 59.12 111.989 59.5337 112.011 59.9547C112.316 60.6226 112.374 61.3267 112.36 62.0525C112.396 63.5769 112.396 65.1085 112.36 66.6328C112.389 67.3151 112.389 67.9975 112.36 68.6798C112.396 70.2259 112.396 71.772 112.36 73.3181C112.331 74.0005 112.542 74.7118 112.098 75.3361C112.091 79.3357 112.098 83.3352 112.055 87.3276C112.055 87.8647 112.345 88.0389 112.702 88.2785C113.792 89.0043 114.243 90.3254 113.865 91.6175C113.523 92.7862 112.367 93.6499 111.08 93.7008C109.859 93.7443 108.644 92.9168 108.215 91.7336C107.75 90.4488 108.193 89.0116 109.393 88.2639C109.873 87.9591 110.04 87.6179 110.033 87.1025C110.019 83.1973 110.011 79.2848 110.004 75.3796C109.691 74.7118 109.91 73.9714 109.706 73.2891C109.75 71.8882 109.706 70.8066 109.706 68.7379C109.91 68.0555 109.691 67.3079 110.011 66.6401L110.026 66.6328Z" fill="white"/>
<path d="M64.726 91.5958C64.726 92.9314 63.9407 94.0348 62.7336 94.4122C61.4248 94.8187 60.0506 94.3759 59.3234 93.2145C59.0108 92.7137 58.6545 92.554 58.0946 92.5104C47.4859 91.6176 39.3057 86.6526 33.4378 77.8332C33.1397 77.3832 32.8416 77.1799 32.2963 77.1581C30.9293 77.0928 29.9986 76.229 29.6786 74.8426C29.4096 73.6521 29.9404 72.3891 30.9947 71.7358C32.0418 71.0898 33.6051 71.2059 34.5503 72.0044C35.4738 72.7883 35.9028 74.2837 35.3066 75.3652C34.8776 76.1419 35.0448 76.65 35.4956 77.3033C40.6 84.6709 47.5586 89.0407 56.4586 90.34C56.8149 90.3909 57.1711 90.4489 57.5347 90.4852C58.3564 90.5723 59.0326 90.5796 59.5707 89.6577C60.1669 88.6488 61.672 88.3947 62.8282 88.8157C64.0352 89.2585 64.7187 90.2675 64.7187 91.5958H64.726Z" fill="white"/>
<path d="M90.9458 79.9961C92.3273 79.9889 93.4107 80.7511 93.8179 82.0286C94.2324 83.3279 93.7888 84.6998 92.6036 85.3967C92.0946 85.6943 92.0074 86.0282 92.0074 86.5508C92.0219 95.9074 92.0219 105.264 92.0074 114.62C92.0074 115.172 92.1019 115.528 92.64 115.847C93.7815 116.53 94.2178 117.901 93.8397 119.15C93.4471 120.435 92.3636 121.226 90.9967 121.233C89.6442 121.233 88.5535 120.442 88.1536 119.15C87.7682 117.88 88.2045 116.544 89.3534 115.847C89.8696 115.535 90.0223 115.201 90.0223 114.628C90.0078 105.3 90.0078 95.98 90.0223 86.6524C90.0223 86.0427 89.8551 85.6943 89.3097 85.3676C88.2118 84.7143 87.7828 83.3497 88.1463 82.1302C88.539 80.8236 89.6006 80.0179 90.953 80.0107L90.9458 79.9961Z" fill="white"/>
<path d="M206.028 50.6201C204.916 50.6201 204.021 50.17 203.483 49.1974C203.214 48.711 202.887 48.6239 202.4 48.6239C193.085 48.6312 183.764 48.6384 174.449 48.6239C173.933 48.6239 173.664 48.7909 173.388 49.2336C172.661 50.4313 171.323 50.9032 170.021 50.5112C168.741 50.1265 167.891 49.0014 167.891 47.6948C167.891 46.4172 168.712 45.2486 169.89 44.8639C171.235 44.4211 172.573 44.8494 173.344 46.0761C173.657 46.5769 174.013 46.6495 174.529 46.6495C183.786 46.6423 193.042 46.635 202.298 46.6495C202.887 46.6495 203.258 46.5406 203.607 45.9745C204.349 44.755 205.956 44.3775 207.279 44.9728C208.508 45.5244 209.213 46.9254 208.937 48.261C208.653 49.6474 207.461 50.6128 206.028 50.6128V50.6201Z" fill="white"/>
<path d="M188.417 55.3381C183.895 55.3381 179.372 55.3381 174.842 55.3308C174.26 55.3308 173.875 55.4107 173.526 55.9914C172.821 57.1746 171.432 57.6173 170.13 57.2254C168.923 56.8624 168.058 55.6502 168.072 54.3509C168.087 53.1169 168.981 51.9119 170.137 51.5635C171.446 51.1716 172.806 51.6143 173.533 52.7975C173.853 53.3201 174.195 53.4508 174.762 53.4435C183.931 53.429 193.1 53.429 202.269 53.4435C202.865 53.4435 203.236 53.3056 203.571 52.7467C204.24 51.6143 205.628 51.1788 206.894 51.5563C208.122 51.9192 208.98 53.1024 208.98 54.409C208.98 55.7083 208.159 56.8406 206.959 57.2036C205.621 57.6101 204.232 57.1818 203.556 56.0131C203.229 55.447 202.851 55.3236 202.254 55.3236C197.637 55.3453 193.027 55.3308 188.41 55.3308L188.417 55.3381Z" fill="white"/>
<path d="M59.2437 31.4135C58.6111 31.4498 57.9785 31.4643 57.3459 31.5224C56.3425 31.6167 55.499 31.6893 54.99 32.9451C54.3719 34.4622 52.2124 34.7598 50.8454 33.8089C49.4493 32.8362 49.1512 30.8183 50.2201 29.5044C51.2962 28.1761 53.2304 27.9728 54.4665 29.127C54.9682 29.5988 55.3899 29.7657 56.0952 29.6786C65.017 28.5898 73.0517 30.7674 80.1121 36.3494C80.5266 36.6761 80.8392 36.5962 81.2537 36.4946C82.7443 36.1317 84.1767 36.8503 84.7293 38.2077C85.2892 39.5723 84.7657 41.162 83.515 41.9024C82.2571 42.6501 80.6356 42.3742 79.6686 41.2273C79.0941 40.545 78.8469 39.732 79.0505 38.8755C79.1814 38.3456 79.0505 38.0553 78.6433 37.7359C73.6189 33.8379 67.9473 31.6821 61.5777 31.4207C61.1851 31.4062 60.7997 31.3481 60.4071 31.3481C60.0144 31.3481 59.6218 31.3917 59.2364 31.4135C59.2364 31.4135 59.2364 31.4062 59.2364 31.399L59.2437 31.4135Z" fill="white"/>
<path d="M30.6093 59.1348C30.5366 59.4687 30.7329 59.8099 31.2492 60.122C32.4126 60.8261 32.8489 62.2053 32.4344 63.5046C32.0563 64.6805 30.8711 65.5443 29.6277 65.5443C28.2825 65.5443 27.1046 64.666 26.7338 63.3812C26.3702 62.14 26.8574 60.7681 27.9989 60.1003C28.4861 59.8172 28.617 59.505 28.6606 58.9751C29.2641 50.4969 32.7325 43.3906 38.964 37.6198C39.4584 37.1625 39.7493 36.7633 39.6911 36.0374C39.5893 34.6583 40.4182 33.5332 41.6616 33.1412C42.8904 32.7565 44.2211 33.163 44.9845 34.1719C45.748 35.1736 45.7698 36.6835 45.0282 37.7142C44.2865 38.7522 42.9195 39.195 41.6543 38.774C41.2471 38.6361 40.9417 38.5272 40.5491 38.8901C34.6376 44.2834 31.3655 50.9687 30.6166 59.1421L30.6093 59.1348Z" fill="white"/>
<path d="M141.692 72.4399C140.361 72.4399 139.263 71.6197 138.871 70.3276C138.478 69.0501 138.907 67.7362 140.063 67.0321C140.572 66.72 140.732 66.4006 140.732 65.8272C140.71 58.3361 140.71 50.8523 140.732 43.3613C140.732 42.8387 140.637 42.5193 140.128 42.2289C138.965 41.5684 138.485 40.2182 138.856 38.9552C139.249 37.6196 140.354 36.7921 141.735 36.7994C143.117 36.7994 144.215 37.6486 144.593 38.9843C144.949 40.2328 144.462 41.5829 143.284 42.2434C142.797 42.5193 142.71 42.8169 142.71 43.3032C142.724 50.8233 142.724 58.3434 142.71 65.8635C142.71 66.4006 142.833 66.7127 143.321 67.0104C144.535 67.7435 144.971 69.0428 144.557 70.3639C144.149 71.6415 143.052 72.4472 141.706 72.4399H141.692Z" fill="white"/>
<path d="M99.9774 55.2949C99.2575 56.7322 98.1523 57.5234 96.4944 57.2548C95.4037 57.0806 94.6403 56.4128 94.2622 55.3748C93.8477 54.2352 94.0222 53.1536 94.9093 52.3116C95.3601 51.8833 95.4183 51.5204 95.2147 50.9905C94.9093 50.2138 94.6403 49.4153 94.3567 48.6314C93.8332 47.9999 93.5205 47.2813 93.4987 46.4538C91.2083 41.4234 87.9798 37.0972 83.7771 33.4896C83.3553 33.1267 83.0208 32.996 82.4392 33.2355C81.1667 33.7437 79.7779 33.2355 79.0071 32.1395C78.2946 31.116 78.3236 29.6787 79.0726 28.677C79.8651 27.6245 81.2249 27.218 82.4682 27.6608C83.7189 28.1036 84.4824 29.2214 84.4169 30.5934C84.3951 31.0507 84.3878 31.4063 84.8168 31.7693C89.6013 35.7834 93.2224 40.6685 95.6728 46.4175C95.7091 46.4973 95.7673 46.5699 95.8109 46.6497C96.3272 47.2232 96.6908 47.862 96.5817 48.6749C96.698 49.0451 96.8144 49.4153 96.9234 49.7855C97.1707 50.6711 97.367 51.5131 98.5231 51.7744C99.1775 51.9196 99.6138 52.5802 99.8465 53.2697C100.385 53.9158 100.377 54.5981 99.9774 55.3094V55.2949Z" fill="white"/>
<path d="M113.356 46.6424C113.465 46.4319 113.523 46.1488 113.698 46.0182C114.607 45.3431 114.272 44.5664 113.996 43.7244C111.88 37.2278 108.666 31.3264 104.442 25.9622C104.078 25.4976 103.743 25.2654 103.082 25.4033C101.875 25.6573 100.617 24.8879 100.086 23.7265C99.5334 22.5288 99.817 21.1351 100.791 20.2641C101.729 19.4293 103.249 19.2841 104.332 19.9302C105.409 20.5762 106.034 21.9408 105.67 23.1095C105.481 23.712 105.503 24.133 105.918 24.6411C110.593 30.4046 113.974 36.8649 116.17 43.9422C116.323 44.4285 116.475 44.7551 117.064 44.8858C117.995 45.0963 118.599 45.7932 118.991 46.6569C119.558 47.3175 119.478 47.978 119.006 48.6458C118.417 49.9452 117.457 50.6928 115.981 50.6202C114.665 50.5549 113.814 49.8508 113.341 48.6458C112.782 47.8982 112.789 47.3175 113.356 46.6497V46.6424Z" fill="white"/>
<path d="M98.7187 75.336C98.7042 81.2301 98.7042 87.1242 98.6751 93.0184C98.6751 93.5555 99.0532 93.6354 99.3513 93.8386C100.442 94.5863 100.9 95.8928 100.515 97.1704C100.151 98.3826 99.0459 99.2101 97.7444 99.2319C96.3774 99.2536 95.2649 98.4842 94.8432 97.2212C94.4287 95.9727 94.8213 94.6008 95.9629 93.8894C96.5737 93.5047 96.7046 93.0764 96.7046 92.4231C96.6755 86.7395 96.6828 81.0559 96.6755 75.365C96.3338 74.6755 96.3338 73.9931 96.6755 73.3035C96.6755 72.9406 96.6755 72.5849 96.6901 72.222C96.7555 71.2566 96.7337 70.4581 95.6794 69.8339C94.6323 69.2096 94.4796 67.9901 94.785 66.8432C95.0977 65.6746 95.9339 64.9342 97.1263 64.7237C98.3479 64.5132 99.3804 64.9269 100.122 65.9577C100.275 66.1754 100.391 66.4222 100.529 66.6545C101.031 67.286 100.864 67.9756 100.718 68.6652C100.515 69.2677 100.209 69.8339 99.6785 70.175C99.1041 70.5525 98.9223 71.0316 98.9587 71.6776C98.9878 72.2655 98.9732 72.8608 98.9732 73.456C98.9514 74.0875 99.1405 74.748 98.7187 75.3287V75.336Z" fill="white"/>
<path d="M161.833 87.7558C163.142 87.7776 164.225 88.5833 164.603 89.8173C165.003 91.1311 164.552 92.4813 163.36 93.1781C162.895 93.4539 162.764 93.737 162.764 94.2379C162.778 101.119 162.778 108.008 162.764 114.889C162.764 115.354 162.88 115.629 163.309 115.891C164.56 116.66 165.025 117.996 164.596 119.317C164.196 120.558 163.04 121.371 161.717 121.357C160.386 121.342 159.274 120.5 158.895 119.23C158.503 117.909 159.012 116.588 160.284 115.84C160.699 115.593 160.786 115.332 160.779 114.911C160.771 108.03 160.764 101.141 160.779 94.2596C160.779 93.7515 160.626 93.4684 160.175 93.1999C158.975 92.474 158.496 91.1384 158.888 89.8463C159.274 88.5543 160.43 87.734 161.819 87.7558H161.833Z" fill="white"/>
<path d="M154.955 102.789C153.661 102.76 152.607 101.947 152.221 100.684C151.85 99.479 152.279 98.0926 153.37 97.4393C153.952 97.0909 154.105 96.7134 154.097 96.0746C154.075 90.0281 154.075 83.9888 154.097 77.9422C154.097 77.4123 153.988 77.0857 153.487 76.7881C152.309 76.0912 151.843 74.7847 152.207 73.5144C152.578 72.2368 153.69 71.373 154.999 71.344C156.33 71.315 157.5 72.1352 157.9 73.3692C158.322 74.6758 157.9 76.0259 156.722 76.7518C156.199 77.0712 156.09 77.4341 156.097 77.9858C156.111 84.0323 156.111 90.0716 156.097 96.1182C156.097 96.6916 156.162 97.0763 156.751 97.4175C157.893 98.0708 158.315 99.4717 157.915 100.727C157.508 102.02 156.366 102.818 154.955 102.782V102.789Z" fill="white"/>
<path d="M141.736 0.773926C143.088 0.773926 144.15 1.57239 144.55 2.87897C144.942 4.14925 144.499 5.47761 143.35 6.16719C142.834 6.47932 142.695 6.82048 142.695 7.38666C142.717 13.2227 142.717 19.0515 142.695 24.8876C142.695 25.4247 142.819 25.7441 143.314 26.0344C144.491 26.7458 144.942 28.0379 144.564 29.3081C144.172 30.651 143.074 31.464 141.685 31.4567C140.34 31.4567 139.271 30.651 138.871 29.3444C138.478 28.0669 138.907 26.7676 140.078 26.0562C140.587 25.7441 140.732 25.4029 140.732 24.8367C140.71 19.0007 140.71 13.1719 140.732 7.33585C140.732 6.7987 140.609 6.47932 140.114 6.18897C138.914 5.46309 138.464 4.12748 138.878 2.82816C139.285 1.55061 140.369 0.773926 141.736 0.773926Z" fill="white"/>
<path d="M84.9768 114.054C84.984 115.252 84.446 116.123 83.3916 116.668C82.2864 117.234 81.203 117.11 80.2577 116.363C79.8215 116.014 79.5015 116.036 79.0507 116.188C74.0772 117.916 68.951 118.86 63.7011 119.172C63.1558 119.201 63.0177 119.491 62.7922 119.847C62.0942 120.965 60.7999 121.466 59.4911 121.161C58.3786 120.899 57.4479 119.803 57.2879 118.569C57.1498 117.473 57.8478 116.196 58.8803 115.651C60.2182 114.954 61.8543 115.332 62.705 116.624C63.0176 117.096 63.3449 117.234 63.8757 117.19C68.8492 116.813 73.6991 115.876 78.4327 114.294C78.898 114.142 79.0725 113.887 79.1598 113.408C79.4434 111.855 80.8031 110.904 82.3955 111.064C83.8643 111.209 84.9695 112.494 84.9695 114.04L84.9768 114.054Z" fill="white"/>
<path d="M118.838 115.55C118.497 115.354 118.627 115.013 118.627 114.737C118.627 101.453 118.642 88.1698 118.649 74.8935C118.649 71.4964 118.627 68.1066 118.627 64.7095C118.627 64.4046 118.475 64.0417 118.802 63.7876C118.802 64.5425 118.809 65.2902 118.78 66.0451C118.766 66.5024 118.904 66.6838 119.391 66.6766C120.809 66.6548 122.227 66.6548 123.645 66.6766C124.044 66.6766 124.212 66.4951 124.401 66.1903C125.179 64.9417 126.422 64.4409 127.716 64.7966C129.149 65.1958 129.92 66.2556 129.912 67.8235C129.912 69.0429 129.033 70.1463 127.76 70.5165C126.48 70.8939 125.186 70.4076 124.415 69.1809C124.183 68.8107 123.964 68.6292 123.506 68.6365C122.147 68.6655 120.794 68.6655 119.434 68.6365C118.918 68.6219 118.758 68.8034 118.766 69.3115C118.795 70.4221 118.802 71.54 118.766 72.6506C118.744 73.2313 118.969 73.3619 119.5 73.3474C120.823 73.3184 122.154 73.3184 123.485 73.3474C123.928 73.3547 124.168 73.224 124.408 72.832C125.164 71.5908 126.458 71.0899 127.731 71.4601C129.054 71.8448 129.92 72.9409 129.898 74.233C129.876 75.7718 129.134 76.7808 127.731 77.1873C126.429 77.5575 125.157 77.0639 124.401 75.8299C124.19 75.4815 123.986 75.3145 123.565 75.3218C122.176 75.3508 120.787 75.3436 119.398 75.3218C118.94 75.3218 118.707 75.4452 118.766 75.9315C118.78 76.0767 118.766 76.2291 118.766 76.3816C118.766 89.1062 118.766 101.831 118.766 114.563C118.766 114.889 118.795 115.223 118.809 115.55H118.838Z" fill="white"/>
<path d="M164.604 62.0016C164.255 62.6404 163.855 63.2501 163.172 63.5695C162.786 63.751 162.772 64.0341 162.772 64.3825C162.772 68.7741 162.779 73.1584 162.772 77.5499C162.772 77.9854 162.895 78.2322 163.288 78.4718C164.539 79.2194 165.004 80.5115 164.604 81.8834C164.255 83.0883 163.048 83.9739 161.746 83.9667C160.445 83.9667 159.289 83.1029 158.903 81.8544C158.503 80.555 159.012 79.1904 160.256 78.4427C160.648 78.2105 160.787 77.9782 160.787 77.5354C160.772 73.1801 160.772 68.8176 160.787 64.4623C160.787 64.0922 160.772 63.8163 160.372 63.5695C159.041 62.7493 158.532 61.5516 158.852 60.2232C159.121 59.0981 160.183 58.1472 161.332 58.0093C162.75 57.8424 163.797 58.4376 164.539 59.8385C164.568 59.8893 164.604 59.9401 164.633 59.991C165.106 60.666 165.098 61.3338 164.611 62.0016H164.604Z" fill="white"/>
<path d="M134.014 13.7018C134.014 11.5677 134.007 9.43364 134.021 7.29956C134.021 6.81322 133.941 6.49383 133.461 6.21074C132.247 5.49212 131.782 4.17829 132.174 2.87171C132.567 1.57965 133.643 0.773926 134.996 0.773926C136.363 0.773926 137.446 1.54336 137.861 2.8209C138.275 4.1057 137.831 5.45583 136.632 6.18897C136.137 6.49384 136.021 6.81322 136.021 7.34311C136.035 11.6113 136.035 15.8794 136.021 20.1403C136.021 20.6194 136.101 20.9315 136.581 21.2146C137.802 21.9332 138.26 23.2543 137.861 24.5536C137.468 25.853 136.406 26.6442 135.039 26.6514C133.68 26.6587 132.56 25.8602 132.182 24.5972C131.774 23.2471 132.233 21.926 133.491 21.1856C133.941 20.917 134.014 20.6267 134.014 20.1839C133.999 18.0208 134.014 15.8576 134.014 13.6945V13.7018Z" fill="white"/>
<path d="M161.746 0.773926C163.106 0.773926 164.211 1.56513 164.604 2.83542C165.004 4.12748 164.538 5.48487 163.346 6.19623C162.881 6.47206 162.757 6.76967 162.757 7.27052C162.772 11.5677 162.772 15.8722 162.757 20.1694C162.757 20.6629 162.866 20.9606 163.339 21.2364C164.531 21.9332 164.989 23.2761 164.604 24.5972C164.233 25.8457 163.099 26.6805 161.754 26.6732C160.401 26.6732 159.281 25.853 158.903 24.5972C158.511 23.3051 158.983 21.9332 160.183 21.2437C160.692 20.946 160.787 20.6194 160.787 20.0968C160.772 15.8867 160.765 11.6766 160.787 7.46651C160.787 6.87855 160.67 6.50835 160.11 6.17445C158.961 5.49213 158.511 4.1057 158.889 2.87171C159.289 1.59417 160.408 0.773926 161.746 0.773926Z" fill="white"/>
<path d="M205.286 63.9471C204.69 63.9181 203.846 63.468 203.315 62.5317C203.075 62.1034 202.777 61.98 202.297 61.98C198.167 61.9945 194.045 61.9945 189.915 61.98C189.435 61.98 189.166 62.1252 188.911 62.5462C188.213 63.7076 186.882 64.223 185.646 63.8818C184.345 63.5261 183.472 62.4373 183.436 61.138C183.399 59.7661 184.148 58.6337 185.392 58.2054C186.693 57.7554 188.039 58.1183 188.802 59.316C189.187 59.9185 189.602 59.9911 190.205 59.9911C194.183 59.9766 198.16 59.9766 202.137 59.9911C202.683 59.9911 203.046 59.8895 203.388 59.3741C204.253 58.053 205.729 57.6901 207.111 58.3216C208.391 58.9095 209.074 60.3177 208.747 61.6896C208.412 63.0688 207.227 63.9762 205.293 63.9471H205.286Z" fill="white"/>
<path d="M113.988 118.272C113.988 119.687 113.065 120.885 111.742 121.168C110.28 121.487 108.877 120.798 108.31 119.477C107.735 118.148 108.157 116.58 109.4 115.833C109.924 115.513 110.062 115.179 110.062 114.613C110.04 111.151 110.04 107.696 110.062 104.233C110.062 103.696 109.931 103.377 109.437 103.086C108.259 102.382 107.801 101.003 108.193 99.7109C108.564 98.5059 109.677 97.6784 110.978 97.6567C112.294 97.6349 113.501 98.4769 113.879 99.6891C114.279 100.988 113.836 102.346 112.65 103.079C112.2 103.362 112.069 103.652 112.069 104.146C112.083 107.696 112.083 111.245 112.069 114.795C112.069 115.259 112.178 115.542 112.614 115.796C113.538 116.333 113.996 117.19 113.988 118.279V118.272Z" fill="white"/>
<path d="M134.988 53.7268C133.657 53.7195 132.545 52.8702 132.174 51.5999C131.803 50.3151 132.247 49.0013 133.395 48.3117C133.875 48.0214 134.028 47.7238 134.028 47.1793C133.999 43.7532 134.006 40.3271 134.028 36.9009C134.028 36.4436 133.941 36.1678 133.49 35.9137C132.276 35.2169 131.796 33.8813 132.174 32.582C132.559 31.2754 133.723 30.3971 135.061 30.4189C136.377 30.4406 137.475 31.2754 137.875 32.5602C138.274 33.8523 137.802 35.1806 136.587 35.8992C136.115 36.1751 136.028 36.4872 136.028 36.9735C136.042 40.3706 136.049 43.7677 136.028 47.1648C136.028 47.702 136.158 48.0069 136.646 48.3045C137.838 49.0376 138.282 50.4022 137.867 51.6798C137.453 52.9501 136.348 53.7413 134.995 53.7268H134.988Z" fill="white"/>
<path d="M161.731 54.2638C160.364 54.2566 159.274 53.4581 158.896 52.1806C158.525 50.9393 158.968 49.5602 160.132 48.8851C160.721 48.5439 160.801 48.1592 160.793 47.5858C160.779 44.6097 160.779 41.6336 160.793 38.6575C160.793 38.1711 160.706 37.8518 160.219 37.5832C159.012 36.9081 158.51 35.529 158.888 34.2514C159.259 32.9884 160.364 32.1609 161.717 32.1391C163.077 32.1173 164.196 32.9085 164.596 34.1716C165.003 35.4491 164.553 36.8355 163.375 37.5469C162.88 37.8445 162.757 38.1639 162.764 38.6938C162.786 41.7279 162.786 44.7694 162.764 47.8035C162.764 48.3044 162.895 48.5947 163.353 48.8778C164.553 49.6037 164.996 50.9103 164.596 52.2386C164.225 53.4871 163.098 54.2929 161.731 54.2856V54.2638Z" fill="white"/>
<path d="M152.105 18.4928C152.141 17.6362 152.556 16.7652 153.494 16.228C153.937 15.974 154.112 15.6909 154.105 15.1755C154.075 12.5333 154.083 9.89113 154.105 7.24168C154.105 6.76986 153.981 6.50129 153.552 6.23997C152.338 5.50684 151.85 4.193 152.221 2.9082C152.592 1.60888 153.676 0.788638 155.013 0.77412C156.38 0.759603 157.522 1.55807 157.9 2.7848C158.322 4.14219 157.878 5.43425 156.635 6.2182C156.213 6.47951 156.082 6.74809 156.09 7.21991C156.111 9.89113 156.111 12.5696 156.09 15.2408C156.09 15.7344 156.257 15.974 156.664 16.2208C157.936 17.0047 158.38 18.471 157.835 19.8356C157.326 21.1132 155.871 21.9044 154.534 21.6213C153.065 21.3164 152.098 20.155 152.098 18.4783L152.105 18.4928Z" fill="white"/>
<path d="M69.1757 89.2437C69.1757 86.9355 71.6188 85.491 73.5966 86.7032C74.1856 87.0589 74.5491 86.9718 75.0363 86.6814C76.6432 85.7305 78.1629 84.6489 79.6026 83.4585C80.148 83.0085 80.4097 82.6238 80.2498 81.818C79.9226 80.163 80.9696 78.8274 82.6565 78.4935C84.089 78.2104 85.6377 79.1686 86.0086 80.5768C86.4376 82.181 85.5941 83.7271 84.0453 84.2352C83.6309 84.3731 83.1655 84.4602 82.802 84.3223C81.9585 83.9957 81.4786 84.4602 80.9333 84.9466C79.3554 86.3475 77.6176 87.5452 75.7634 88.5614C75.2908 88.8155 75.0799 89.1058 75.0217 89.6575C74.8545 91.2762 73.5239 92.3069 71.8588 92.1908C70.2954 92.0819 69.1611 90.8479 69.1611 89.2437H69.1757Z" fill="white"/>
<path d="M148.36 121.357C147.022 121.349 145.931 120.522 145.539 119.237C145.16 117.989 145.626 116.602 146.753 115.942C147.24 115.658 147.407 115.354 147.4 114.809C147.371 112.733 147.378 110.664 147.4 108.588C147.4 108.095 147.291 107.783 146.818 107.507C145.662 106.832 145.153 105.46 145.509 104.24C145.895 102.919 147.036 102.041 148.374 102.041C149.712 102.041 150.825 102.854 151.217 104.132C151.625 105.445 151.181 106.788 149.989 107.492C149.487 107.79 149.378 108.124 149.385 108.654C149.414 110.701 149.414 112.74 149.385 114.787C149.378 115.325 149.516 115.644 149.996 115.942C151.196 116.682 151.632 118.003 151.21 119.302C150.796 120.587 149.705 121.371 148.353 121.357H148.36Z" fill="white"/>
<path d="M97.6868 102.02C99.0174 102.02 100.115 102.804 100.501 104.016C100.915 105.315 100.479 106.701 99.3083 107.398C98.7775 107.718 98.6684 108.066 98.6757 108.618C98.6975 110.636 98.6975 112.646 98.6757 114.664C98.6757 115.187 98.7702 115.514 99.2792 115.811C100.457 116.501 100.908 117.865 100.515 119.179C100.144 120.413 98.9811 121.248 97.6432 121.241C96.3271 121.234 95.1782 120.377 94.8001 119.129C94.4148 117.858 94.9165 116.465 96.1162 115.782C96.5961 115.506 96.7052 115.209 96.6979 114.708C96.6761 112.661 96.6688 110.614 96.6979 108.574C96.7052 108.037 96.5598 107.725 96.0726 107.435C94.8874 106.731 94.4075 105.344 94.8074 104.067C95.2073 102.804 96.3125 102.012 97.6795 102.02H97.6868Z" fill="white"/>
<path d="M155.071 121.241C153.748 121.241 152.628 120.421 152.235 119.15C151.857 117.924 152.257 116.566 153.348 115.906C153.958 115.535 154.169 115.122 154.089 114.461C154.06 114.222 154.067 113.982 154.089 113.742C154.162 112.879 154.075 112.211 153.173 111.659C152.075 110.977 151.828 109.547 152.301 108.349C152.78 107.137 153.98 106.397 155.304 106.491C156.598 106.585 157.609 107.427 157.95 108.698C158.278 109.924 157.812 111.245 156.707 111.899C156.22 112.189 156.031 112.487 156.096 113.024C156.14 113.409 156.133 113.808 156.096 114.193C156.023 114.976 156.183 115.535 156.954 116.022C158.016 116.697 158.314 118.141 157.87 119.332C157.434 120.486 156.343 121.234 155.071 121.234V121.241Z" fill="white"/>
<path d="M109.967 59.9837C110.207 60.6733 110.113 61.3701 110.033 62.067C109.698 62.0161 109.378 61.9871 109.044 61.9871C104.281 61.9871 99.5114 61.9871 94.7487 61.9726C94.1307 61.9726 93.7162 62.0815 93.3527 62.6767C92.6837 63.7873 91.324 64.2083 90.1097 63.8308C88.8154 63.4316 88.0301 62.4226 88.0083 61.1161C87.9865 59.7006 88.6991 58.6263 89.957 58.1908C91.2222 57.7552 92.6183 58.1037 93.3018 59.2578C93.7162 59.9547 94.1961 59.9909 94.8505 59.9909C99.8895 59.9764 104.928 59.9909 109.96 59.9909L109.967 59.9837Z" fill="white"/>
<path d="M120.613 61.9654C120.613 61.3121 120.606 60.6588 120.599 60.0055C124.183 59.9982 127.775 59.9765 131.36 59.9982C131.934 59.9982 132.276 59.8458 132.589 59.345C133.301 58.2126 134.632 57.7843 135.905 58.1763C137.199 58.5755 138.006 59.6571 137.999 61C137.999 62.3646 137.133 63.497 135.817 63.8672C134.574 64.2156 133.207 63.7292 132.538 62.5824C132.24 62.0742 131.898 61.9799 131.375 61.9871C127.79 61.9944 124.198 61.9871 120.613 61.9726V61.9654Z" fill="white"/>
<path d="M113.414 55.3165C113.654 54.6487 113.574 53.9882 113.414 53.3204C116.73 53.3204 120.045 53.3131 123.361 53.3349C123.899 53.3349 124.205 53.197 124.503 52.7106C125.193 51.5783 126.575 51.1137 127.804 51.4839C129.113 51.8759 129.898 52.9284 129.905 54.293C129.905 55.7085 129.185 56.732 127.884 57.1603C126.648 57.5667 125.266 57.1457 124.554 56.0061C124.197 55.4327 123.819 55.2875 123.187 55.2948C119.929 55.3238 116.679 55.3093 113.421 55.3093L113.414 55.3165Z" fill="white"/>
<path d="M164.604 62.0019C164.72 61.3341 164.756 60.659 164.625 59.9912C167.156 59.9912 169.693 59.9839 172.224 59.9912C172.711 59.9912 173.024 59.9113 173.314 59.425C174.042 58.2055 175.372 57.7555 176.674 58.162C177.946 58.5612 178.761 59.6718 178.753 61.0074C178.753 62.3576 177.946 63.4391 176.652 63.8311C175.358 64.2303 174.049 63.773 173.3 62.5535C173.016 62.1035 172.711 61.9656 172.209 61.9728C169.679 61.9946 167.141 61.9874 164.611 61.9874L164.604 62.0019Z" fill="white"/>
<path d="M119.006 48.6384C119.129 47.9779 119.202 47.3101 118.991 46.6495C120.496 46.6495 122.001 46.6277 123.499 46.6495C123.936 46.6495 124.197 46.5261 124.437 46.1487C125.23 44.9002 126.539 44.4211 127.848 44.8348C129.127 45.2413 129.898 46.3011 129.891 47.6803C129.891 49.0594 129.127 50.1047 127.826 50.5184C126.531 50.9249 125.172 50.4313 124.416 49.1756C124.154 48.7473 123.885 48.6166 123.419 48.6239C121.943 48.6529 120.475 48.6384 118.998 48.6384H119.006Z" fill="white"/>
<path d="M96.6756 73.3035C96.6756 73.9931 96.6756 74.6754 96.6756 75.365C95.3814 75.3505 94.0871 75.365 92.7928 75.3142C92.262 75.2924 92.1675 75.6554 91.9493 75.9602C91.0259 77.3031 89.3535 77.6951 87.972 76.9039C86.6413 76.1417 86.1105 74.3633 86.8013 72.9696C87.463 71.6267 89.1426 71.0025 90.5824 71.5687C91.1931 71.8082 91.6876 72.2147 91.9857 72.7809C92.2111 73.2164 92.4801 73.3688 92.9673 73.3543C94.1962 73.3108 95.4323 73.318 96.6684 73.3035H96.6756Z" fill="white"/>
<path d="M93.4912 46.4463C93.8257 47.1577 94.1602 47.8618 94.3493 48.6239C93.8693 48.6239 93.3822 48.6457 92.9023 48.6239C91.7607 48.5659 90.8154 48.5876 89.9865 49.7345C89.0267 51.0701 86.8672 50.9032 85.7547 49.691C84.5694 48.3989 84.7512 46.4318 86.1546 45.3067C87.4416 44.2832 89.4339 44.559 90.3573 45.9745C90.6991 46.5044 91.0627 46.7367 91.6662 46.6423C92.2697 46.5479 92.9168 46.8528 93.4912 46.439V46.4463Z" fill="white"/>
<path d="M113.356 46.6424C113.102 47.3103 113.138 47.9708 113.341 48.6386C107.757 48.6386 102.173 48.6531 96.5813 48.6531C96.3268 47.9781 96.065 47.303 95.8105 46.6279C101.657 46.6279 107.503 46.6279 113.356 46.6352V46.6424Z" fill="white"/>
<path d="M100.53 68.6579C100.646 67.9901 100.646 67.3223 100.53 66.6545C103.693 66.6473 106.863 66.64 110.026 66.6255C110.113 67.3006 110.2 67.9756 109.968 68.6434C109.699 68.8612 109.379 68.9265 109.037 68.9265C106.478 68.941 103.918 68.9483 101.359 68.9265C101.061 68.9265 100.755 68.8975 100.522 68.6579H100.53Z" fill="white"/>
<path d="M112.113 68.6509C112.113 67.9904 112.113 67.3226 112.113 66.662C112.818 66.1829 113.618 66.408 114.374 66.3935C116.228 66.3572 116.432 66.6257 116.359 64.6005C116.352 64.3029 116.214 63.8456 116.461 63.6206C116.795 63.8747 116.81 64.39 116.81 64.6949C116.817 81.3393 116.817 97.9909 116.81 114.635C116.81 114.94 116.963 115.31 116.599 115.535C116.614 115.267 116.643 114.998 116.643 114.73C116.643 101.78 116.643 88.823 116.643 75.8734C116.643 75.6919 116.628 75.5105 116.614 75.3363C116.185 74.712 116.374 74.0152 116.352 73.3401C116.315 72.3529 116.337 71.3657 116.337 70.3785C116.337 69.4107 115.862 68.9243 114.912 68.9195C114.309 68.9195 113.712 68.9195 113.109 68.9195C112.745 68.9195 112.382 68.905 112.091 68.6437L112.113 68.6509Z" fill="white"/>
<path d="M99.9766 55.2946C99.9548 54.6123 100.086 53.9227 99.8457 53.2549C102.478 53.4218 105.117 53.2767 107.75 53.3347C107.56 53.9953 107.619 54.6558 107.742 55.3164C105.154 55.3091 102.565 55.3019 99.9766 55.2946Z" fill="white"/>
<path d="M116.628 73.3254C116.628 74.0005 116.628 74.6683 116.628 75.3434C115.123 75.3434 113.617 75.3361 112.112 75.3289C112.112 74.6683 112.112 74.0005 112.112 73.34C112.374 73.1004 112.701 73.0423 113.028 73.0641C114.228 73.1585 115.464 72.7738 116.628 73.3254Z" fill="white"/>
<path d="M109.968 73.3398C110.2 74.0076 110.106 74.6827 110.026 75.3577C109.088 75.3432 108.15 75.3214 107.212 75.3069C107.212 74.6536 107.226 74.0004 107.234 73.3471C108.143 72.8898 109.059 72.9115 109.968 73.3471V73.3398Z" fill="white"/>
<path d="M112.12 61.9948C112.208 61.3052 111.808 60.6447 112.026 59.9551C112.964 59.9696 113.902 59.9914 114.84 60.0059C114.84 60.6664 114.833 61.3197 114.825 61.9803C113.757 62.0021 113.189 62.0529 112.12 61.9948Z" fill="white"/>
<path d="M98.7192 75.3361C98.7192 74.6683 98.7192 74.0077 98.7192 73.3399C99.6354 72.9189 100.544 72.8826 101.453 73.3689C101.431 74.0222 101.337 74.6828 101.555 75.3288C100.61 75.3288 99.6644 75.3288 98.7119 75.3361H98.7192Z" fill="white"/>
</g>
<defs>
<clipPath id="clip0_1110_35388">
<rect width="362.1" height="120.946" fill="white" transform="translate(0.950195 0.773926)"/>
</clipPath>
</defs>
</svg>
