<svg width="364" height="81" viewBox="0 0 364 81" fill="none" xmlns="http://www.w3.org/2000/svg">
<g clip-path="url(#clip0_1008_64300)">
<path d="M80.9578 71.3625C80.9578 70.9399 80.9165 70.7491 80.3629 70.8619C78.4437 71.2476 76.5288 70.1206 75.9665 68.2936C75.8037 67.7626 75.5301 67.6629 75.0373 67.6434C71.8675 67.5263 68.7 67.3594 65.5302 67.2511C63.9692 67.1991 62.4039 67.2424 60.7257 67.2424C62.126 68.2914 63.5285 69.2884 64.8637 70.3699C65.3652 70.7773 65.7386 70.8142 66.2966 70.5302C67.9162 69.7088 69.7855 70.1618 70.9535 71.6009C72.115 73.0292 72.1324 75.0296 70.9926 76.4579C69.8832 77.8537 67.8728 78.3457 66.3096 77.6066C64.614 76.8047 63.7586 75.164 64.0409 73.2069C64.093 72.845 64.1711 72.5285 63.8151 72.2641C62.4299 71.2368 61.047 70.203 59.6792 69.1518C59.3188 68.8722 59.0257 68.8722 58.661 69.1302C58.0401 69.5658 57.328 69.6915 56.5768 69.6741C54.9181 69.6373 53.7349 68.8441 53.0835 67.3594C52.4453 65.9051 52.5929 64.4574 53.6762 63.2675C54.7379 62.0993 56.0687 61.5033 57.6818 62.069C58.1812 62.2445 58.4743 62.1231 58.7717 61.7027C59.3644 60.8683 60.0092 60.075 60.6323 59.2644C63.0357 56.15 65.4369 53.0377 67.8402 49.9254C68.1094 49.5786 68.3352 49.3229 68.0052 48.8005C67.1867 47.5001 67.2345 46.1044 68.0183 44.8061C68.7825 43.5382 69.9418 42.9162 71.4681 42.9379C73.6956 42.9682 75.4064 44.8083 75.287 47.0103C75.1545 49.4009 73.0356 51.0741 70.7864 50.6969C70.2631 50.6081 69.9483 50.7143 69.6183 51.1456C66.5463 55.166 63.4503 59.1669 60.3566 63.1721C60.1308 63.4647 59.9528 63.7291 60.1872 64.1171C60.4152 64.4985 60.5107 64.9537 61.1273 64.9342C61.8568 64.9103 62.5906 64.984 63.3223 65.01C67.3604 65.1574 71.3986 65.3005 75.4368 65.45C75.7798 65.463 76.0599 65.4262 76.2618 65.0881C77.2214 63.4929 78.6586 62.9034 80.4649 63.2046C80.8557 63.2697 80.9534 63.1613 80.9512 62.8189C80.9469 62.251 80.9469 61.681 80.9469 61.1132C80.9469 41.126 80.9469 21.141 80.9556 1.15594C80.9556 0.663958 80.9447 0.373535 80.2891 0.375702C65.9623 0.393041 51.6354 0.388707 37.3086 0.380037C36.8788 0.380037 36.6769 0.432053 36.5922 0.960884C36.2578 3.0762 34.7164 4.37444 32.6105 4.34843C32.0937 4.34193 31.8245 4.53916 31.5662 4.92928C30.1355 7.11179 28.6939 9.28996 27.2414 11.4595C26.7139 12.2462 26.1147 12.9939 26.8658 13.9736C26.9722 14.1101 27.0004 14.3355 27.0004 14.5197C26.9939 15.0724 27.3304 15.2501 27.8037 15.3412C30.7499 15.9047 33.696 16.4703 36.6378 17.0577C37.0872 17.1466 37.3521 17.0859 37.6625 16.6936C38.8913 15.1461 40.3894 14.7148 42.1175 15.3195C43.9065 15.9459 45.005 17.7469 44.7185 19.5826C44.4362 21.3815 42.8709 22.8098 41.1275 22.8597C38.95 22.9225 37.402 21.7782 36.9895 19.7777C36.9265 19.4786 36.8419 19.3052 36.5097 19.2424C33.7481 18.7157 30.9626 18.2866 28.2488 17.5844C26.9744 17.2571 26.1776 17.528 25.3504 18.3993C25.0682 18.6962 24.862 18.9043 24.9184 19.3334C25.0487 20.3239 25.155 21.3165 25.2441 22.3113C25.2766 22.6754 25.5154 22.7253 25.7825 22.8011C27.8602 23.3863 29.1845 25.959 28.0143 28.2563C27.1958 29.8623 25.4764 30.6122 23.6244 30.2893C22.1872 30.0379 20.9019 28.6595 20.6566 27.0274C20.5828 26.5225 20.3527 26.2819 19.8989 26.1063C18.0644 25.3998 16.2363 24.6694 14.4148 23.9282C13.9242 23.7309 13.5833 23.8263 13.1817 24.1796C11.1365 25.9828 7.69105 25.3131 6.7944 22.3373C6.34282 20.8419 6.75315 19.4309 7.9646 18.3624C9.2477 17.2289 10.7479 16.9883 12.2633 17.7252C13.6246 18.3863 14.4626 19.5198 14.4756 21.1215C14.4778 21.3599 14.4365 21.6178 14.7405 21.737C16.7726 22.5389 18.8025 23.3516 20.8412 24.1449C21.119 24.2533 23.1099 22.7838 23.0643 22.4999C22.908 21.5116 22.9601 20.5016 22.73 19.5176C22.6431 19.1513 22.4521 19.0516 22.1373 18.9758C21.1147 18.7309 20.3353 18.1154 19.8208 17.2268C18.9871 15.792 19.0001 14.3312 19.9749 12.9614C20.9475 11.596 22.2936 11.0802 23.9479 11.4074C24.2996 11.4768 24.6123 11.5462 24.8685 11.1517C26.4685 8.69178 28.0838 6.24485 29.7034 3.79793C29.914 3.4815 29.9205 3.25393 29.6578 2.93966C29.2019 2.4 28.8263 1.7693 28.8372 1.04541C28.848 0.408213 28.5549 0.382205 28.0469 0.382205C19.2823 0.393041 10.5178 0.393041 1.7532 0.373535C1.16485 0.373535 0.962939 0.503575 0.962939 1.13427C0.975965 25.6447 0.969452 50.1529 0.969452 74.6612C0.969452 74.9104 0.873925 75.19 1.1084 75.4393C1.21912 75.2962 1.32985 75.1814 1.41235 75.047C4.11749 70.5736 7.68236 66.8501 11.5794 63.4149C12.2372 62.834 12.8386 62.8015 13.2902 63.2935C13.77 63.8158 13.6636 64.4574 12.9971 65.0512C10.8174 66.9888 8.72882 69.0153 6.84651 71.2433C4.82091 73.6404 2.94729 76.1415 1.81182 79.1086C1.43623 80.086 1.44274 80.0925 2.51525 80.0925C9.48869 80.0947 16.4621 80.0687 23.4356 80.1142C24.9336 80.1251 26.2449 79.8693 27.5866 79.1172C32.4541 76.3929 36.9873 73.2091 41.0798 69.4422C44.7033 66.1067 48.0445 62.4851 51.1578 58.6619C57.7188 50.6081 63.344 42.0081 66.7525 32.1207C68.1333 28.1155 69.0386 24.0083 68.9084 19.7322C68.9019 19.4851 69.0083 19.1904 68.6934 18.9585C68.1984 19.5263 67.7056 20.0876 67.2193 20.6555C66.327 21.7001 65.4477 22.7556 64.5424 23.7894C64.1082 24.2836 63.3635 24.3616 62.9532 23.9477C62.4994 23.4925 62.4408 22.9637 62.8642 22.4305C62.964 22.3048 63.0444 22.1618 63.1507 22.0382C64.779 20.1397 66.4052 18.2367 68.0465 16.349C69.5706 14.5956 69.601 14.5761 71.366 16.0412C73.396 17.7296 75.3825 19.4721 77.3907 21.1886C77.8575 21.5874 78.0051 22.0534 77.7381 22.6321C77.5188 23.1002 77.1258 23.2129 76.6634 23.1696C76.2639 23.1327 75.9882 22.8532 75.7038 22.6104C74.577 21.6503 73.4785 20.6555 72.3235 19.7322C71.9739 19.4504 71.7069 18.9953 71.1489 18.9173C71.0968 20.4517 71.1424 21.932 70.9731 23.4167C70.6387 26.3816 70.02 29.2858 69.0864 32.1055C66.7417 39.1884 63.1876 45.6666 58.9866 51.8045C55.9559 56.2323 52.6385 60.4348 49.015 64.3967C43.8913 69.9992 38.4115 75.1879 31.8376 79.1086C31.4099 79.3621 30.8866 79.5377 30.5284 80.0947H79.6334C79.9048 80.0947 80.1784 80.0752 80.4476 80.0925C80.8427 80.1185 80.9556 79.9452 80.9534 79.568C80.9447 76.8329 80.9491 74.0977 80.9578 71.3625ZM15.2094 61.2475C14.6949 61.2584 14.3605 61.0351 14.1543 60.5995C13.9068 60.0707 14.1217 59.6502 14.4843 59.2861C15.5351 58.2393 16.5989 57.2055 17.6519 56.1608C20.5741 53.2544 23.4964 50.348 26.4121 47.4351C26.7291 47.1187 27.0395 46.8412 27.5367 46.9453C27.9796 47.0385 28.251 47.3202 28.4008 47.7169C28.581 48.1893 28.3291 48.5513 28.0165 48.8655C26.3014 50.5907 24.5819 52.3116 22.8624 54.0325C20.6827 56.2106 18.5073 58.3932 16.321 60.5648C16.004 60.8769 15.7131 61.2757 15.2094 61.2475ZM29.9639 48.872C30.7998 48.0376 31.6183 47.188 32.4672 46.3666C32.8297 46.0155 33.2596 45.7988 33.7959 46.0242C34.2539 46.2149 34.4255 46.5833 34.4689 47.0406C34.4515 47.4849 34.1693 47.7775 33.8805 48.0658C30.6001 51.3341 27.3218 54.6003 24.0413 57.8665C23.3943 58.5124 22.7539 59.1669 22.096 59.8019C21.5207 60.3568 20.9106 60.4066 20.4482 59.9601C19.9488 59.4812 19.9684 58.8505 20.5567 58.2609C23.6874 55.1248 26.8268 52.0017 29.9639 48.872ZM19.7556 67.6152C19.5038 67.8666 19.2498 68.118 18.8785 68.0508C18.3835 68.105 18.0296 67.8948 17.8451 67.5068C17.5932 66.9823 17.7821 66.512 18.1816 66.1154C19.6362 64.6741 21.0908 63.235 22.5389 61.7872C24.9748 59.3511 27.4043 56.9085 29.8445 54.4768C30.0312 54.2904 30.2397 54.1257 30.4698 53.9761C30.9974 53.6337 31.4468 53.6965 31.8376 54.1408C32.2566 54.6177 32.2305 55.1443 31.805 55.5951C31.0451 56.4014 30.257 57.1773 29.4733 57.9575C26.2362 61.1782 22.9948 64.3967 19.7556 67.6152ZM54.3818 35.1723C52.5017 39.0974 49.5838 42.227 46.5096 45.2374C43.4701 48.2197 40.4914 51.2626 37.4628 54.2557C37.0959 54.6177 36.9895 54.9796 36.9765 55.4651C36.9157 57.5154 36.9678 59.5787 36.0255 61.499C35.2309 63.118 34.4276 64.7326 33.4745 66.2628C32.9513 67.1015 31.9939 67.1102 31.5097 66.2823C30.4524 64.4725 29.4364 62.639 28.3877 60.8227C28.1185 60.3611 28.1468 59.9688 28.4724 59.557C28.8198 59.1149 29.2801 59.1647 29.7338 59.2644C30.1159 59.349 30.2592 59.7087 30.4351 60.0078C31.1081 61.1413 31.7703 62.2792 32.4932 63.5102C33.2922 62.2684 33.8393 61.072 34.3517 59.8583C34.8054 58.7746 34.7967 57.6042 34.699 56.4946C34.5275 54.5331 35.3069 53.1764 36.6986 51.8521C40.2873 48.4386 43.7719 44.9167 47.2412 41.3796C49.7488 38.8221 51.8482 35.9656 53.1074 32.5672C53.7066 30.9525 53.9997 29.2967 53.9107 27.5628C53.8695 26.7804 53.5373 26.5593 52.8143 26.5311C50.0267 26.4249 47.5039 27.2615 45.0962 28.5771C41.3207 30.6404 38.3963 33.7072 35.409 36.7003C32.6669 39.4441 29.9162 42.1771 27.1785 44.9253C26.7334 45.3718 26.2558 45.5885 25.6023 45.5864C24.0608 45.5799 22.5085 45.53 20.9888 45.892C19.5819 46.2257 18.3705 47.0016 17.1134 47.6605C16.7378 47.8577 17.0874 48.0485 17.2871 48.1655C18.2185 48.7095 19.1564 49.2362 20.0835 49.7845C20.8086 50.2136 21.0279 50.8205 20.6892 51.3883C20.3396 51.9713 19.7165 52.0797 18.9827 51.6636C17.3675 50.7446 15.7522 49.8257 14.1434 48.8937C13.1751 48.3324 13.1882 47.4156 14.1391 46.8369C15.8933 45.7684 17.6953 44.7823 19.6036 44.0259C21.2385 43.3778 23.01 43.4819 24.7339 43.3974C25.3635 43.3648 25.8259 43.2088 26.2883 42.7428C30.1528 38.8611 34.0021 34.9621 37.9513 31.1671C40.854 28.3799 44.1475 26.1388 48.051 24.9403C50.2091 24.2771 52.3931 24.0864 54.6098 24.6607C55.3588 24.8558 55.6953 25.3499 55.8603 26.0782C56.5898 29.3118 55.7561 32.2963 54.3818 35.1723Z" fill="white"/>
<path d="M105.314 40.3218C105.314 53.263 105.308 66.202 105.33 79.1431C105.33 79.8692 105.167 80.0946 104.405 80.0902C98.4907 80.0577 92.5789 80.0534 86.6649 80.0946C85.8204 80.1011 85.6445 79.867 85.6445 79.0608C85.6662 53.7203 85.6619 28.3819 85.6619 3.04142C85.6619 2.36521 85.6836 1.68683 85.6511 1.01062C85.6272 0.520803 85.79 0.349584 86.2937 0.351751C92.3965 0.366922 98.4994 0.377759 104.602 0.345249C105.386 0.340914 105.316 0.748374 105.316 1.25336C105.312 14.2747 105.312 27.2961 105.312 40.3174L105.314 40.3218Z" fill="white"/>
<path d="M246.79 29.8515C244.606 27.8077 241.942 27.1987 239.061 27.4045C235.783 27.6408 233.054 29.0062 231.002 31.607C228.963 34.1926 228.327 37.1511 228.735 40.3696C229.124 43.432 230.596 45.7922 233.37 47.2422C236.13 48.6835 239.07 48.5838 242.018 48.0484C243.247 47.8252 243.208 47.7493 243.229 46.4663C243.24 45.8529 243.047 45.6947 242.461 45.8768C240.8 46.3948 239.083 46.4143 237.383 46.2279C235.275 45.9981 233.533 45.0402 232.32 43.2391C229.966 39.7432 230.615 33.6161 234.914 30.8268C237.591 29.0907 240.509 28.822 243.436 30.1484C246.123 31.3643 247.443 34.3877 246.874 37.6019C246.733 38.4038 246.564 39.1905 246.047 39.8581C245.418 40.6687 244.171 41.0783 243.201 40.7207C242.183 40.3436 242.387 39.4376 242.387 38.6444C242.387 38.2932 242.424 37.9378 242.487 37.5932C242.734 36.2386 242.964 34.8797 243.268 33.5381C243.401 32.9529 243.199 32.7167 242.676 32.6625C241.571 32.5476 240.465 32.3873 239.35 32.4913C238.192 32.6018 237.131 32.9681 236.262 33.77C234.376 35.5147 233.909 37.7362 234.117 40.1853C234.332 42.6864 236.254 43.2348 238.303 42.409C239.311 42.0037 239.901 41.1758 240.587 40.2764C240.793 41.5291 241.267 42.3505 242.063 42.5542C244.215 43.1069 246.872 42.6149 248.227 40.4389C250.198 37.2724 249.521 32.4089 246.79 29.8515ZM240.769 35.4107C240.385 37.0839 240.02 38.7809 238.74 40.0683C238.533 40.2764 238.299 40.4736 238.043 40.608C237.291 40.9959 236.66 40.7293 236.399 39.9448C235.932 38.549 236.642 35.8832 237.734 34.9252C238.301 34.4267 238.891 34.2187 239.734 34.2187C240.995 34.2187 241.041 34.2295 240.769 35.4107Z" fill="white"/>
<path d="M314.676 44.6241C315.345 41.8803 316.17 39.3727 316.986 36.8629C317.344 35.7597 317.689 34.6522 318.026 33.5404C318.117 33.2413 318.267 33.0657 318.593 33.0701C318.701 33.0701 318.81 33.0636 318.918 33.0614C320.998 33.0115 321.026 33.0029 321.673 34.9513C322.674 37.9726 323.764 40.9657 324.565 44.052C324.596 44.169 324.685 44.2709 324.832 44.5309C325.164 43.3562 325.44 42.3289 325.742 41.3103C326.508 38.7225 327.288 36.139 328.056 33.5534C328.111 33.3691 328.126 33.1524 328.352 33.1156C329.161 32.9899 329.978 33.0202 330.783 33.1199C331.098 33.1589 330.918 33.4667 330.855 33.6552C330.004 36.2972 329.15 38.9392 328.293 41.5812C327.685 43.4538 327.055 45.3177 326.465 47.1968C326.324 47.6432 326.148 47.9228 325.631 47.8535C325.444 47.8275 325.251 47.8448 325.062 47.8448C323.793 47.8419 322.964 47.23 322.574 46.0091C321.576 42.8491 320.373 39.7563 319.444 36.3319C319.031 37.6843 318.684 38.8417 318.326 39.9947C317.568 42.4438 316.793 44.8885 316.052 47.3441C315.937 47.7278 315.762 47.899 315.373 47.8535C315.319 47.847 315.264 47.8535 315.21 47.8513C314.457 47.8015 313.564 48.1352 312.989 47.7213C312.442 47.329 312.468 46.4079 312.251 45.7165C311.011 41.7567 309.795 37.7883 308.549 33.8308C308.356 33.2174 308.506 33.0527 309.146 33.0462C311.233 33.0289 311.252 33.0007 311.854 35.0683C312.735 38.0983 313.586 41.1369 314.452 44.1733C314.481 44.273 314.546 44.3641 314.678 44.6241H314.676Z" fill="white"/>
<path d="M187.411 28.0481C187.411 26.0802 187.411 26.104 185.461 26.104C184.893 26.104 184.73 26.2557 184.741 26.8257C184.775 28.6658 184.738 30.5059 184.762 32.3459C184.769 32.8401 184.641 32.9896 184.126 32.9506C183.262 32.8834 182.389 32.8769 181.525 32.9073C179.48 32.9788 177.687 33.7222 176.428 35.3369C174.133 38.2758 174.161 41.5983 175.249 44.9555C176.208 47.9226 179.639 48.796 182.294 47.6278C183.382 47.1489 184.183 46.3534 184.899 45.1896C184.899 45.6404 184.921 45.8766 184.895 46.1042C184.691 47.8619 184.688 47.8164 186.451 47.8706C187.242 47.8944 187.437 47.6712 187.433 46.8866C187.396 40.6078 187.411 34.3291 187.411 28.0481ZM184.111 43.2238C183.475 44.6413 182.55 45.7748 180.846 45.8918C179.354 45.9937 178.164 45.1744 177.743 43.5858C177.231 41.6503 177.25 39.6846 177.91 37.7578C178.629 35.6576 180.401 34.7799 182.431 34.9771C185.255 35.2545 184.688 34.8601 184.756 37.3958C184.762 37.6928 184.756 37.9897 184.756 38.2888C184.797 39.9663 184.814 41.6503 184.111 43.2238Z" fill="white"/>
<path d="M306.409 36.0069C305.808 34.1777 304.394 33.0658 302.369 32.8556C300.024 32.6129 298.209 33.4299 296.861 35.5648V28.0029C296.861 26.0523 296.863 26.074 294.861 26.1022C294.327 26.1108 294.188 26.2561 294.192 26.7892C294.219 29.713 294.203 32.6367 294.203 35.5604C294.203 39.2948 294.212 43.0312 294.192 46.7656C294.19 47.2662 294.273 47.5068 294.842 47.6238C296.526 47.9749 298.222 48.1093 299.931 48.0248C302.492 47.8948 304.601 46.8674 305.875 44.5701C307.399 41.824 307.358 38.8851 306.409 36.0069ZM303.71 43.1461C303.161 44.7326 302.021 45.6255 300.406 45.864C299.449 46.007 298.474 45.968 297.508 45.7209C296.961 45.58 296.839 45.2961 296.859 44.7976C296.889 44.0694 296.867 43.3368 296.867 42.3615C296.793 40.9809 296.854 39.3706 297.451 37.8231C298.242 35.7793 299.883 34.7043 301.67 35.0901C302.933 35.361 303.593 36.2475 303.897 37.4048C304.405 39.3273 304.368 41.2475 303.71 43.1461Z" fill="white"/>
<path d="M139.17 38.9391C138.938 36.982 138.354 35.1788 136.649 33.978C134.042 32.1401 129.874 32.4436 127.59 34.7019C125.427 36.8389 125.047 39.5373 125.432 42.4155C125.647 44.0302 126.196 45.5126 127.453 46.6071C129.422 48.3215 132.742 48.6336 135.169 47.3809C138.176 45.8269 139.118 43.1416 139.177 39.9946C139.177 39.6413 139.211 39.2859 139.17 38.9391ZM135.395 44.1819C134.541 45.4151 133.356 45.9374 131.927 45.8399C130.338 45.7337 129.133 44.8993 128.617 43.393C127.915 41.3492 127.82 39.2707 128.779 37.2421C129.437 35.8485 130.92 34.9664 132.524 35.0422C134.203 35.1224 135.373 36.0002 135.953 37.5433C136.296 38.4514 136.335 39.3877 136.343 40.5993C136.326 41.6894 136.209 43.005 135.395 44.1819Z" fill="white"/>
<path d="M198.009 32.8186C195.069 32.5606 192.559 34.0063 191.452 36.6829C190.521 38.9391 190.466 41.2885 191.076 43.6076C191.66 45.8204 193.076 47.3397 195.392 47.8599C197.448 48.3237 199.481 48.1395 201.497 47.589C202.722 47.2574 202.726 47.2725 202.659 46.074C202.6 45.0358 202.576 44.999 201.571 45.3609C200.247 45.8399 198.888 46.0176 197.494 45.9006C195.942 45.7706 194.676 45.1247 194.025 43.6379C193.669 42.8186 193.551 41.93 193.53 41.0263C193.517 40.4953 193.669 40.3089 194.205 40.3197C195.562 40.3479 196.919 40.3305 198.276 40.3284C199.661 40.3284 201.044 40.3262 202.427 40.3305C202.909 40.3305 203.289 40.233 203.308 39.6413C203.412 36.2278 202.086 33.1718 198.009 32.8186ZM199.873 38.419C198.927 38.3756 197.976 38.406 197.025 38.406V38.4125C196.076 38.4125 195.128 38.419 194.177 38.4081C193.925 38.4059 193.63 38.4818 193.695 38.0007C194.051 35.454 196.728 33.9976 198.914 35.1875C199.926 35.7401 200.414 36.6136 200.486 37.7536C200.514 38.2239 200.412 38.4428 199.873 38.419Z" fill="white"/>
<path d="M161.695 35.8769C163.43 32.8166 166.584 32.1751 169.159 33.2522C170.323 33.7399 170.887 34.7607 171.124 35.9441C171.25 36.5769 171.282 37.2336 171.287 37.8817C171.306 40.968 171.282 44.0542 171.319 47.1405C171.326 47.7365 171.13 47.9273 170.581 47.8579C170.475 47.8449 170.364 47.8514 170.256 47.8493C169.124 47.8435 168.559 47.2605 168.562 46.1002C168.566 43.5558 168.564 41.0113 168.564 38.4647C168.564 38.2761 168.564 38.0854 168.558 37.8968C168.514 36.7937 168.425 35.7057 167.192 35.2093C165.979 34.7217 164.526 35.075 163.554 36.0806C162.288 37.3875 161.895 39.0087 161.882 40.7599C161.869 42.8709 161.851 44.984 161.884 47.095C161.895 47.717 161.691 47.8709 161.092 47.8623C159.129 47.8362 159.133 47.8623 159.133 45.8835C159.135 41.9042 159.148 37.9228 159.12 33.9436C159.116 33.2826 159.296 33.0247 159.984 33.0507C162.105 33.1309 161.719 32.7754 161.695 34.804C161.691 35.0923 161.695 35.3784 161.695 35.8769Z" fill="white"/>
<path d="M272.725 35.6991C274.229 33.0572 277.623 31.941 280.306 33.3021C281.418 33.8656 281.995 34.8734 282.18 36.0806C282.423 37.6671 282.295 39.2688 282.31 40.8639C282.33 42.9489 282.306 45.0339 282.33 47.1167C282.336 47.678 282.152 47.8579 281.579 47.8601C279.575 47.8709 279.581 47.8926 279.581 45.89C279.581 43.3173 279.583 40.7469 279.57 38.1742C279.562 36.3493 279.112 35.4672 278.079 35.1616C276.548 34.7108 274.9 35.3589 273.999 36.7416C273.205 37.9618 272.903 39.3121 272.896 40.7425C272.888 42.8535 272.866 44.9667 272.905 47.0777C272.916 47.6759 272.788 47.8752 272.156 47.8687C270.146 47.8492 270.148 47.8752 270.148 45.8553C270.148 41.9021 270.163 37.951 270.135 33.9978C270.131 33.3194 270.278 33.0268 271.027 33.0377C272.76 33.0593 272.758 33.0247 272.721 34.7542C272.714 35.0684 272.721 35.3827 272.721 35.697L272.725 35.6991Z" fill="white"/>
<path d="M263.103 45.2983C262.315 46.2736 261.514 47.1708 260.363 47.6585C258.464 48.4626 255.841 48.339 254.543 46.8804C253.837 46.0893 253.548 45.127 253.533 44.1301C253.481 40.6406 253.512 37.1491 253.494 33.6597C253.494 33.2522 253.618 33.0983 254.037 33.0571C256.136 32.8447 256.134 32.8339 256.136 34.9297C256.136 37.5002 256.136 40.0706 256.141 42.6411C256.141 43.0464 256.147 43.4452 256.254 43.8461C256.77 45.7794 258.459 46.538 260.211 45.554C261.581 44.7868 262.346 43.5926 262.654 42.0321C263.19 39.3251 262.834 36.6007 262.921 33.8851C262.94 33.2825 263.038 33.0463 263.713 33.0485C265.574 33.0528 265.572 33.016 265.572 34.8842C265.572 38.9154 265.559 42.9467 265.593 46.9779C265.6 47.6953 265.4 47.8904 264.679 47.8709C262.88 47.821 262.88 47.8622 263.06 46.0243C263.084 45.7837 263.088 45.541 263.101 45.2983H263.103Z" fill="white"/>
<path d="M152.101 45.0879C151.754 45.5365 151.53 45.8313 151.302 46.1217C149.765 48.0875 146.676 48.7442 144.47 47.5933C143.118 46.8868 142.564 45.6471 142.527 44.2686C142.436 40.725 142.408 37.1749 142.518 33.6335C142.553 32.5108 143.684 33.2369 144.296 33.083C144.694 32.9833 145.134 32.9746 145.126 33.6877C145.089 36.5291 145.108 39.3726 145.113 42.214C145.113 42.6475 145.091 43.0874 145.165 43.5101C145.597 45.9722 147.926 46.7329 149.917 45.077C151.311 43.9197 151.813 42.3332 151.878 40.634C151.967 38.3626 151.919 36.0869 151.893 33.8134C151.886 33.2672 152.021 33.0678 152.601 33.0505C154.542 32.992 154.544 32.9681 154.544 34.8559C154.544 38.9175 154.533 42.9769 154.557 47.0385C154.561 47.654 154.418 47.8816 153.751 47.8707C151.858 47.8361 151.86 47.8664 152.047 45.9678C152.069 45.7533 152.073 45.5387 152.097 45.0901L152.101 45.0879Z" fill="white"/>
<path d="M117.957 41.4248C117.957 39.5306 117.933 37.6363 117.972 35.7421C117.983 35.2349 117.797 35.1526 117.371 35.1677C116.776 35.1894 116.177 35.1439 115.582 35.1764C115.1 35.2024 114.857 35.055 114.911 34.5435C114.929 34.3832 114.92 34.2163 114.898 34.0581C114.792 33.2973 115.078 32.9982 115.882 33.0416C116.542 33.0784 117.38 33.3558 117.84 32.9115C118.272 32.4954 117.97 31.6762 117.996 31.0346C118.118 27.9787 119.922 26.1603 123.098 25.9999C123.906 25.9587 124.72 26.0758 125.532 26.1039C125.916 26.1169 126.073 26.3033 126.036 26.6696C125.988 27.1269 125.936 27.5821 125.882 28.0394C125.823 28.54 125.458 28.3623 125.2 28.3146C124.371 28.1607 123.565 28.0545 122.708 28.2453C121.418 28.5292 120.838 29.7234 120.682 30.8851C120.389 33.0589 120.402 33.0611 122.553 33.0654C123.068 33.0654 123.585 33.0849 124.099 33.0611C124.592 33.0372 124.803 33.241 124.768 33.7286C124.751 33.9714 124.751 34.2163 124.768 34.459C124.807 35.029 124.544 35.2111 123.988 35.1872C123.094 35.1504 122.197 35.2046 121.305 35.1677C120.769 35.1461 120.628 35.3368 120.63 35.8613C120.652 39.5696 120.619 43.2779 120.66 46.9862C120.669 47.7253 120.45 47.8878 119.753 47.8727C117.99 47.8358 117.988 47.8683 117.988 46.1388C117.988 44.5696 117.988 42.9983 117.988 41.4292C117.979 41.4292 117.97 41.4292 117.959 41.4292L117.957 41.4248Z" fill="white"/>
<path d="M219.256 48.1873C218.368 48.0962 217.483 47.9922 216.595 47.9229C216.171 47.8903 216.078 47.6888 216.069 47.2943C216.032 45.5323 216.017 45.5475 217.734 45.8422C218.674 46.0026 219.63 45.9983 220.572 45.8704C221.712 45.7187 222.589 44.8821 222.682 43.9393C222.782 42.9163 222.181 42.1382 220.956 41.7156C220.038 41.3992 219.093 41.1651 218.199 40.775C216.816 40.1725 215.965 39.1972 215.863 37.654C215.757 36.0437 216.336 34.7519 217.695 33.8438C219.117 32.8945 220.728 32.7818 222.37 32.823C222.613 32.8295 222.856 32.8707 223.099 32.8902C224.61 33.0094 224.573 33.0094 224.578 34.533C224.578 35.2223 224.304 35.3393 223.757 35.1334C222.839 34.7888 221.885 34.8408 220.945 34.8863C219.515 34.9557 218.648 35.7988 218.651 36.9951C218.653 37.9163 219.213 38.4299 219.973 38.7485C221.041 39.195 222.142 39.5591 223.212 40.0012C224.699 40.6146 225.518 41.6896 225.524 43.3541C225.531 45.1032 224.699 46.3429 223.242 47.1686C222.024 47.8578 220.667 48.1266 219.261 48.1851L219.256 48.1873Z" fill="white"/>
<path d="M305.333 3.65272C304.568 6.10181 303.806 8.5509 303.042 10.9978C302.851 11.609 302.174 11.9146 301.609 11.6719C301.327 11.5505 301.448 11.3684 301.503 11.2059C302.575 8.0004 303.643 4.79274 304.74 1.59375C304.992 0.856855 305.667 1.30983 306.142 1.2123C306.572 1.1256 306.6 1.47671 306.642 1.77581C306.948 4.05368 307.252 6.33155 307.562 8.60725C307.601 8.89117 307.53 9.1946 307.755 9.55004C308.027 9.02555 308.268 8.55957 308.509 8.09576C309.62 5.95877 310.728 3.8196 311.843 1.68478C312.054 1.28382 313.461 0.978226 313.793 1.26215C313.988 1.42903 313.893 1.66744 313.882 1.8755C313.745 4.95746 313.585 8.03724 313.476 11.1192C313.448 11.9363 312.896 11.6242 312.506 11.6827C311.974 11.7629 311.961 11.4313 311.982 11.0347C312.121 8.52489 312.249 6.01295 312.391 3.30811C311.583 4.87076 310.858 6.27303 310.135 7.67746C309.54 8.83266 308.902 9.96834 308.372 11.1517C308.038 11.8994 307.449 11.6697 306.924 11.674C306.329 11.6784 306.49 11.13 306.442 10.8158C306.09 8.44037 305.775 6.05846 305.45 3.67873C305.411 3.67006 305.372 3.66139 305.333 3.65272Z" fill="white"/>
<path d="M209.243 35.9589C209.925 34.6173 210.602 33.5596 211.877 33.098C212.563 32.8509 213.449 32.4174 213.955 32.9007C214.46 33.3862 214.05 34.3334 214.078 35.0768C214.087 35.3173 213.907 35.3889 213.688 35.3607C210.896 34.9901 209.771 37.4868 209.556 39.8081C209.337 42.1835 209.43 44.5675 209.447 46.9473C209.452 47.6343 209.285 47.8879 208.542 47.8684C206.727 47.825 206.731 47.864 206.731 46.0782C206.736 42.0187 206.747 37.9571 206.723 33.8977C206.718 33.2757 206.877 33.0395 207.535 33.0438C209.73 33.059 209.243 32.9029 209.243 34.7191C209.243 35.0529 209.243 35.3889 209.243 35.9567V35.9589Z" fill="white"/>
<path d="M289.62 40.5602C289.62 42.7514 289.599 44.9404 289.633 47.1294C289.642 47.7146 289.44 47.8576 288.893 47.8641C286.893 47.8923 286.891 47.9074 286.891 45.894C286.891 41.8931 286.904 37.89 286.876 33.8891C286.872 33.2627 287.032 33.046 287.686 33.046C289.622 33.0417 289.622 33.0135 289.622 34.9641C289.622 36.9147 289.622 38.6963 289.622 40.5602H289.62Z" fill="white"/>
<path d="M222.632 6.15827C223.11 5.8245 223.548 5.6121 223.893 5.25449C224.679 4.43957 224.962 3.47294 224.582 2.42178C224.228 1.44215 223.312 1.23408 222.382 1.20591C221.353 1.1734 220.324 1.20591 219.293 1.1929C218.943 1.18857 218.746 1.28826 218.674 1.66105C218.084 4.82102 217.489 7.981 216.874 11.1366C216.785 11.6026 216.972 11.7067 217.376 11.7067C218.162 11.7088 218.95 11.7717 219.731 11.7327C221.062 11.6676 222.302 11.3339 223.233 10.2805C224.506 8.8436 224.271 7.06855 222.632 6.15827ZM219.469 4.8622C219.575 4.53277 219.564 4.16215 219.679 3.83705C219.853 3.3494 219.634 2.53882 220.174 2.40878C220.986 2.21589 221.903 2.1617 222.714 2.56049C223.272 2.83574 223.411 3.5553 223.068 4.27919C222.5 5.48423 221.384 5.66845 219.929 5.78766C219.447 5.89386 219.241 5.58393 219.469 4.8622ZM222.091 9.55666C221.468 10.3499 220.6 10.5753 219.562 10.5385C219.449 10.5385 219.258 10.5211 219.071 10.5406C218.54 10.597 218.411 10.3521 218.513 9.87309C218.689 9.02999 218.846 8.18256 219.008 7.33514C219.056 7.08589 219.124 6.86049 219.438 6.84098C220.224 6.7933 221.015 6.75646 221.753 7.07505C222.662 7.46518 222.817 8.6377 222.091 9.55666Z" fill="white"/>
<path d="M270.426 5.87618C269.488 7.7791 268.665 9.45229 267.836 11.1233C267.592 11.6153 266.644 11.9144 266.179 11.6586C265.942 11.5286 265.977 11.2815 265.955 11.0843C265.706 8.93646 265.473 6.78429 265.235 4.63646C265.193 4.26368 265.157 3.90173 265.721 3.97109C266.129 4.02094 266.665 3.75652 266.704 4.5476C266.778 5.97804 266.932 7.40632 267.058 8.83243C267.084 9.12502 267.128 9.41544 267.191 9.91393C268.124 8.01534 268.973 6.29881 269.809 4.57794C269.985 4.216 270.161 3.97759 270.636 3.94942C271.329 3.90824 271.646 4.1098 271.72 4.84019C271.882 6.45269 272.123 8.05652 272.338 9.7102C272.653 9.56499 272.705 9.22038 272.831 8.95813C273.58 7.39765 274.31 5.82633 275.05 4.26151C275.293 3.74785 276.118 3.62432 276.487 4.03611C276.667 4.2355 276.5 4.38939 276.424 4.54327C275.306 6.76695 274.16 8.97764 273.07 11.2143C272.71 11.9534 272.108 11.6565 271.594 11.6716C271.001 11.6868 271.159 11.145 271.112 10.8177C270.877 9.24422 270.673 7.66423 270.432 5.87401L270.426 5.87618Z" fill="white"/>
<path d="M199.653 0.33457C199.228 0.332402 198.635 0.0614851 198.527 0.852563C198.429 1.57429 198.24 2.28517 198.149 3.00906C198.069 3.63759 197.877 3.9952 197.135 3.86083C196.692 3.78064 196.223 3.83699 195.765 3.94535C193.025 4.59772 191.13 8.2952 192.226 10.8765C192.485 11.4812 192.925 11.815 193.603 11.8366C194.252 11.854 194.823 11.6762 195.35 11.2948C196.121 10.7421 196.588 9.94888 197.155 9.19898C197 9.76682 196.82 10.3282 196.703 10.9025C196.651 11.1561 196.277 11.5939 196.857 11.6611C197.3 11.7153 197.867 11.9277 198.016 11.0932C198.616 7.74253 199.28 4.40049 199.897 1.05196C199.94 0.817886 200.279 0.338904 199.653 0.33457ZM197.652 5.62937C197.272 7.26138 196.636 8.76985 195.452 9.99222C195.055 10.4019 194.58 10.8375 193.961 10.5579C193.368 10.2913 193.475 9.65629 193.427 9.14046C193.481 8.16733 193.661 7.24621 194.163 6.40962C194.827 5.29777 195.921 4.80579 197.202 4.97917C197.658 5.03986 197.739 5.24576 197.652 5.62937Z" fill="white"/>
<path d="M250.659 0.338588C250.249 0.338588 249.652 0.0394959 249.554 0.863084C249.46 1.66717 249.237 2.45391 249.117 3.25366C249.048 3.71313 248.885 3.9147 248.386 3.86268C247.85 3.8085 247.307 3.815 246.771 3.94504C244.044 4.60174 242.168 8.27971 243.238 10.8849C243.477 11.4657 243.911 11.7843 244.534 11.832C245.368 11.897 246.069 11.5979 246.684 11.0452C247.233 10.5511 247.606 9.92256 248.125 9.35255C247.965 9.95073 247.793 10.5446 247.65 11.1449C247.609 11.3248 247.448 11.5546 247.784 11.6803C248.379 11.8992 248.92 11.6282 249.037 11.0127C249.665 7.69453 250.292 4.37634 250.906 1.05598C250.956 0.791562 251.258 0.340756 250.659 0.338588ZM248.69 5.53153C248.316 7.18954 247.682 8.71968 246.495 9.97024C246.098 10.3885 245.637 10.8198 245.014 10.5814C244.343 10.3213 244.547 9.6278 244.452 9.23551C244.495 8.08249 244.702 7.11369 245.27 6.25109C245.935 5.24111 247.122 4.76212 248.308 4.98753C248.648 5.05255 248.768 5.18042 248.69 5.53153Z" fill="white"/>
<path d="M119.168 11.8736C118.713 11.8173 118.248 11.7999 117.805 11.6937C116.496 11.3773 115.879 10.6036 115.886 9.25332C115.892 7.53679 116.433 5.90262 116.702 4.2251C116.839 3.37117 117.028 2.52591 117.173 1.67414C117.312 0.867893 117.931 1.24501 118.337 1.22984C118.921 1.20817 118.576 1.6503 118.537 1.8692C118.146 4.02137 117.72 6.1692 117.33 8.32137C117.052 9.84717 117.666 10.5992 119.194 10.6621C121.027 10.7401 122.084 10.0184 122.497 8.226C122.97 6.17353 123.365 4.10156 123.715 2.02308C123.834 1.31653 124.125 1.12797 124.778 1.19299C125.132 1.22767 125.265 1.3252 125.193 1.68064C124.726 4.01053 124.357 6.36643 123.775 8.66814C123.222 10.8571 121.652 11.839 119.173 11.8715L119.168 11.8736Z" fill="white"/>
<path d="M341.788 6.26667C342.39 5.46692 342.917 4.62382 343.838 4.14918C344.58 3.76773 345.349 3.62035 346.087 4.05815C346.853 4.51329 346.892 5.31737 346.764 6.08244C346.471 7.81414 346.124 9.53501 345.794 11.2602C345.653 11.9971 345.062 11.6547 344.674 11.6612C344.224 11.6698 344.409 11.2884 344.454 11.05C344.726 9.6152 345.036 8.18909 345.271 6.74998C345.362 6.19731 345.64 5.48642 344.965 5.12881C344.252 4.75386 343.723 5.28053 343.284 5.76384C341.984 7.19429 341.348 8.92599 341.046 10.8072C340.996 11.1193 341.096 11.542 340.622 11.6742C339.756 11.9147 339.493 11.6742 339.663 10.7986C340.299 7.50855 340.959 4.22287 341.539 0.922013C341.68 0.113596 342.162 0.356338 342.605 0.36284C343.299 0.375844 342.935 0.85916 342.885 1.11924C342.557 2.83794 342.296 4.57398 341.788 6.2645V6.26667Z" fill="white"/>
<path d="M286.598 6.14298C287.009 5.66617 287.337 5.14167 287.799 4.72554C288.166 4.39611 288.548 4.10785 289.026 3.95397C290.658 3.42514 291.787 4.30725 291.529 5.99127C291.262 7.72731 290.88 9.446 290.578 11.1777C290.452 11.8994 289.924 11.6957 289.512 11.674C288.876 11.6393 289.184 11.169 289.236 10.8829C289.488 9.47201 289.777 8.06758 290.044 6.66098C290.089 6.42257 290.118 6.17766 290.111 5.93709C290.089 5.08749 289.568 4.78189 288.793 5.16118C288.214 5.4451 287.825 5.93709 287.469 6.45074C286.527 7.814 286.027 9.34414 285.76 10.9653C285.652 11.6328 285.189 11.8843 284.558 11.687C284.245 11.5895 284.317 11.3836 284.358 11.1734C285.009 7.74681 285.671 4.32242 286.301 0.893692C286.44 0.135124 286.994 0.315013 287.423 0.345356C288.081 0.39087 287.688 0.900194 287.641 1.14944C287.33 2.81829 287.041 4.49364 286.598 6.14515V6.14298Z" fill="white"/>
<path d="M180.657 3.88872C177.644 3.50727 175.581 4.69497 174.787 7.26977C174.494 8.21473 174.431 9.1857 174.52 10.161C174.646 11.5633 175.66 12.1766 177.008 11.7085C177.585 11.5069 178.076 11.1775 178.458 10.705C178.825 10.2542 179.164 9.77955 179.633 9.15752C179.437 9.85324 179.261 10.3626 179.161 10.8871C179.114 11.1406 178.736 11.5849 179.287 11.6586C179.706 11.7128 180.314 11.9816 180.455 11.119C180.783 9.12068 181.187 7.1354 181.576 5.14795C181.793 4.03177 181.806 4.03394 180.657 3.88872ZM180.03 6.04956C179.591 7.56236 178.99 9.00364 177.794 10.109C177.407 10.4666 176.975 10.822 176.426 10.5706C175.914 10.3344 175.89 9.79689 175.89 9.30273C175.89 8.20389 176.126 7.1614 176.745 6.23162C177.312 5.37985 178.115 4.95939 179.14 4.96156C180.219 4.96156 180.321 5.04608 180.03 6.04956Z" fill="white"/>
<path d="M320.888 9.51511C320.423 9.97892 320.074 10.5229 319.592 10.9629C319.268 11.2598 318.921 11.5112 318.513 11.6716C316.919 12.298 315.697 11.4917 315.896 9.81204C316.111 7.99364 316.52 6.19692 316.865 4.39369C317.001 3.68064 317.601 3.9884 317.992 3.9949C318.543 4.00357 318.224 4.41753 318.183 4.65594C317.933 6.06471 317.646 7.46698 317.41 8.88008C317.312 9.46743 317.019 10.2065 317.733 10.5554C318.434 10.9 318.964 10.3495 319.403 9.86405C320.694 8.42928 321.372 6.70624 321.598 4.81632C321.689 4.06859 322.041 3.89521 322.711 3.96023C323.091 3.99707 323.141 4.12061 323.074 4.46955C322.64 6.69541 322.212 8.92126 321.819 11.1536C321.682 11.9252 321.124 11.7085 320.703 11.6629C320.13 11.6023 320.462 11.1796 320.519 10.913C320.616 10.4427 320.764 9.98109 320.89 9.51511H320.888Z" fill="white"/>
<path d="M230.934 9.27488C230.524 9.83189 230.274 10.2155 229.977 10.5601C229.38 11.2537 228.69 11.7998 227.71 11.8323C226.46 11.8735 225.815 11.2775 225.861 10.0313C225.882 9.44177 226.023 8.85659 226.13 8.27141C226.356 7.02085 226.623 5.7768 226.818 4.52191C226.942 3.73734 227.509 3.96924 227.941 3.98875C228.54 4.01475 228.216 4.45256 228.171 4.7148C227.91 6.17992 227.617 7.63854 227.359 9.10149C227.265 9.62599 227.105 10.235 227.719 10.5514C228.294 10.8484 228.779 10.4886 229.174 10.1093C230.32 9.00396 230.954 7.60603 231.362 6.0954C231.488 5.62509 231.634 5.14394 231.644 4.66496C231.666 3.76985 232.285 3.9389 232.791 3.98875C233.457 4.05593 233.036 4.53275 232.993 4.78849C232.628 6.89298 232.202 8.98663 231.844 11.0933C231.707 11.9017 231.136 11.7326 230.676 11.6655C230.112 11.5809 230.476 11.1605 230.524 10.8982C230.611 10.4279 230.756 9.96843 230.939 9.27922L230.934 9.27488Z" fill="white"/>
<path d="M128.091 6.30348C128.567 5.72047 128.912 5.2805 129.277 4.8557C129.674 4.39189 130.188 4.08413 130.768 3.90858C132.199 3.47077 133.319 4.25968 133.143 5.72914C132.92 7.60389 132.511 9.45913 132.145 11.3144C132.016 11.9646 131.437 11.6676 131.057 11.6698C130.527 11.6741 130.772 11.2558 130.816 11.0109C131.079 9.574 131.367 8.14355 131.637 6.70661C131.691 6.41619 131.73 6.11276 131.708 5.82234C131.658 5.12445 131.152 4.82969 130.505 5.11795C129.724 5.46472 129.264 6.14527 128.825 6.83231C128.009 8.11104 127.624 9.54149 127.357 11.0153C127.249 11.6156 126.695 11.8887 126.12 11.6763C125.855 11.5788 125.905 11.4076 125.942 11.2212C126.37 8.96281 126.799 6.70661 127.225 4.44608C127.36 3.73085 127.926 3.95409 128.326 3.98877C128.921 4.04078 128.551 4.47208 128.504 4.72783C128.415 5.19814 128.265 5.65762 128.093 6.29915L128.091 6.30348Z" fill="white"/>
<path d="M357.972 6.33603C358.534 5.63815 358.89 5.06814 359.396 4.62167C359.834 4.23372 360.319 3.95196 360.892 3.85226C362.275 3.61169 363.204 4.34642 363.028 5.73135C362.789 7.60393 362.381 9.457 362.012 11.3101C361.882 11.9668 361.306 11.6677 360.933 11.6677C360.392 11.6677 360.666 11.2386 360.709 11.0001C360.979 9.51118 361.283 8.02872 361.55 6.5376C361.641 6.03694 361.767 5.46043 361.228 5.13316C360.659 4.78855 360.184 5.14833 359.78 5.52328C358.417 6.79768 357.783 8.44702 357.399 10.2199C357.342 10.4843 357.297 10.7509 357.242 11.0153C357.121 11.6157 356.597 11.8844 356.009 11.6785C355.749 11.5875 355.777 11.4206 355.814 11.2299C356.244 8.97368 356.678 6.71748 357.105 4.45912C357.251 3.69188 357.859 3.95196 358.269 4.01048C358.723 4.0755 358.454 4.46562 358.395 4.71703C358.287 5.18518 358.154 5.64682 357.97 6.33387L357.972 6.33603Z" fill="white"/>
<path d="M236.542 6.24936C237.027 5.66851 237.365 5.2112 237.758 4.80591C238.017 4.53716 238.329 4.29875 238.657 4.1232C239.389 3.73091 240.179 3.62471 240.902 4.09502C241.647 4.57834 241.651 5.37592 241.527 6.14316C241.34 7.31786 241.099 8.48605 240.88 9.65641C240.785 10.1614 240.685 10.6664 240.591 11.1714C240.533 11.4921 240.416 11.685 240.018 11.698C239.135 11.7284 239.08 11.6872 239.254 10.8116C239.532 9.405 239.821 8.00057 240.066 6.58746C240.157 6.07164 240.337 5.45394 239.734 5.12234C239.115 4.78207 238.633 5.20037 238.225 5.59916C236.959 6.83671 236.332 8.41019 235.948 10.0964C235.88 10.3868 235.839 10.6816 235.785 10.9742C235.663 11.6482 235.246 11.8823 234.582 11.6872C234.271 11.5962 234.326 11.4055 234.367 11.1844C234.788 8.95203 235.216 6.72184 235.622 4.48515C235.75 3.77426 236.277 3.96715 236.699 3.98666C237.337 4.017 236.951 4.45697 236.911 4.70188C236.838 5.17653 236.69 5.64034 236.538 6.24936H236.542Z" fill="white"/>
<path d="M326.513 6.27074C326.987 5.68339 327.379 5.10254 327.907 4.6279C328.515 4.08173 329.21 3.7653 330.048 3.82381C330.927 3.8845 331.439 4.36782 331.528 5.24125C331.591 5.86761 331.478 6.4788 331.357 7.09216C331.09 8.44458 330.805 9.79483 330.586 11.1537C330.458 11.9557 329.881 11.6739 329.461 11.6674C328.832 11.6544 329.207 11.1689 329.244 10.9479C329.498 9.42855 329.805 7.92008 330.082 6.40511C330.171 5.91746 330.239 5.38863 329.702 5.10905C329.151 4.82296 328.689 5.14806 328.317 5.50567C326.785 6.98379 326.142 8.88455 325.782 10.9175C325.727 11.2296 325.814 11.6349 325.278 11.6978C324.412 11.7974 324.279 11.6847 324.44 10.8221C324.833 8.72416 325.263 6.63268 325.61 4.52603C325.745 3.71762 326.294 3.96903 326.713 3.98853C327.343 4.01671 326.945 4.48052 326.908 4.71459C326.824 5.24125 326.648 5.75275 326.509 6.27291L326.513 6.27074Z" fill="white"/>
<path d="M283.272 5.133C283.06 4.35492 282.473 3.99731 281.729 3.88027C280.91 3.7524 280.105 3.81092 279.364 4.23355C277.506 5.29338 276.916 7.04675 276.82 9.0212C276.72 11.0715 277.495 11.8301 279.692 11.8257C280.289 11.8452 281.006 11.7152 281.711 11.505C282.25 11.3468 282.15 10.9155 282.08 10.5752C281.985 10.1092 281.638 10.43 281.431 10.4863C280.684 10.69 279.931 10.7486 279.176 10.6294C278.429 10.5123 278.238 10.0247 278.233 8.91717C278.229 8.10442 278.778 8.2778 279.221 8.23445C280.363 8.12175 281.49 7.95704 282.454 7.27216C283.177 6.75633 283.489 5.92407 283.272 5.133ZM280.943 6.88204C280.333 7.12044 279.681 7.13778 279.087 7.23315C278.817 7.22448 278.474 7.30683 278.618 6.89721C278.919 6.03461 279.38 5.28471 280.315 4.98128C281.067 4.73854 281.722 4.97044 281.887 5.50794C282.061 6.07362 281.711 6.58294 280.943 6.88204Z" fill="white"/>
<path d="M152.479 5.14158C152.275 4.36568 151.623 3.92137 150.627 3.83685C149.307 3.72631 148.226 4.18796 147.388 5.1871C146.463 6.28811 146.063 7.59068 146.026 9.01245C145.97 11.0931 146.691 11.8343 148.864 11.8235C149.463 11.8408 150.149 11.7195 150.838 11.5396C151.382 11.3987 151.32 11.0021 151.267 10.6445C151.187 10.0983 150.82 10.4429 150.59 10.4992C150.03 10.6401 149.47 10.6921 148.897 10.6748C147.841 10.6445 147.503 10.3345 147.462 9.34622C147.434 8.67001 147.832 8.29289 148.656 8.21487C149.663 8.11734 150.644 7.91361 151.515 7.36744C152.331 6.85595 152.698 5.97818 152.479 5.14158ZM150.547 6.69773C149.848 7.10953 149.049 7.12253 148.278 7.23306C147.965 7.25691 147.744 7.2309 147.841 6.80176C148.046 5.90449 149.051 4.96603 149.943 4.89668C150.429 4.85983 150.903 4.95086 151.076 5.46885C151.257 5.99768 151.016 6.42248 150.547 6.69773Z" fill="white"/>
<path d="M257.949 5.16312C257.754 4.38505 257.107 3.9234 256.112 3.83888C254.868 3.73268 253.826 4.1358 252.975 5.04392C251.961 6.12759 251.59 7.45616 251.484 8.89094C251.329 10.9564 252.115 11.8212 254.23 11.8233C254.925 11.8472 255.669 11.7388 256.395 11.4939C256.913 11.3205 256.798 10.8762 256.72 10.5403C256.631 10.1523 256.325 10.4232 256.123 10.4753C255.541 10.6248 254.955 10.692 254.354 10.6768C253.335 10.6508 252.947 10.304 252.888 9.35042C252.832 8.41196 252.895 8.35994 254.104 8.21256C255.101 8.08903 256.093 7.93948 256.963 7.38464C257.76 6.87749 258.155 5.98454 257.949 5.16312ZM256.028 6.68459C255.257 7.1354 254.382 7.1549 253.524 7.2351C253.27 7.25677 253.216 7.15057 253.264 6.89482C253.446 5.91085 254.584 4.90738 255.548 4.91171C256.015 4.90521 256.434 5.01791 256.56 5.5229C256.685 6.02355 256.464 6.42885 256.028 6.68459Z" fill="white"/>
<path d="M354.745 5.07874C354.495 4.27899 353.862 3.94089 353.089 3.85419C351.591 3.68731 350.381 4.21831 349.474 5.42118C348.697 6.45066 348.384 7.6492 348.295 8.90409C348.147 10.9977 348.972 11.843 351.187 11.8213C351.819 11.8408 352.535 11.7173 353.238 11.4941C353.716 11.3402 353.614 10.9349 353.571 10.612C353.503 10.1221 353.16 10.4104 352.948 10.4711C352.259 10.6748 351.558 10.7247 350.855 10.6618C349.993 10.5859 349.76 10.1416 349.713 9.0298C349.676 8.14769 350.245 8.27339 350.77 8.22355C351.91 8.11951 353.034 7.94829 353.985 7.23741C354.676 6.72158 354.988 5.85031 354.745 5.07874ZM352.691 6.7671C352.047 7.08353 351.345 7.12687 350.659 7.22224C350.132 7.30893 349.938 7.17022 350.188 6.62622C350.564 5.8048 351.08 5.13726 351.999 4.92269C352.559 4.79048 353.139 4.87501 353.362 5.47753C353.584 6.07355 353.238 6.49835 352.691 6.7671Z" fill="white"/>
<path d="M206.925 5.14187C206.703 4.32478 206.078 3.9715 205.314 3.86314C204.029 3.68542 202.9 4.04519 201.999 5.00316C200.924 6.14751 200.511 7.55628 200.459 9.07775C200.39 11.0565 201.176 11.8346 203.282 11.8216C203.907 11.8541 204.619 11.7111 205.329 11.5247C205.87 11.3816 205.783 10.9698 205.722 10.6144C205.639 10.1441 205.303 10.4215 205.084 10.4779C204.341 10.6707 203.588 10.7618 202.832 10.6339C202.081 10.5082 201.875 10.0119 201.881 8.92604C201.886 8.13929 202.398 8.2715 202.869 8.22815C203.979 8.12629 205.079 7.96374 206.035 7.32654C206.786 6.82589 207.14 5.93078 206.925 5.14187ZM204.882 6.75003C204.196 7.12065 203.429 7.12281 202.726 7.23768C202.459 7.22034 202.179 7.31354 202.255 6.88224C202.405 6.02181 203.403 5.02483 204.293 4.90779C204.838 4.83627 205.359 4.90346 205.542 5.51682C205.718 6.1085 205.372 6.48345 204.882 6.75003Z" fill="white"/>
<path d="M141.385 9.90111C142.427 7.88115 143.374 6.06492 144.296 4.23569C144.509 3.81089 144.691 3.63534 145.223 3.81522C145.838 4.02329 145.883 4.22485 145.575 4.76669C144.416 6.81265 143.261 8.86512 142.199 10.9631C141.83 11.6913 141.339 11.7455 140.695 11.6805C140.028 11.6111 140.228 11.039 140.156 10.6705C139.778 8.73508 139.424 6.79531 139.103 4.85121C139.058 4.56946 138.695 4.02762 139.388 3.98644C139.87 3.95827 140.451 3.7372 140.553 4.63665C140.747 6.32283 141.074 7.99385 141.383 9.89894L141.385 9.90111Z" fill="white"/>
<path d="M186.534 5.0311C185.92 4.87071 185.605 5.16331 185.51 5.93921C185.371 7.06406 185.095 8.17157 184.891 9.28775C184.687 10.4061 184.945 10.6944 186.046 10.6142C186.315 10.5947 186.704 10.3801 186.676 10.9154C186.656 11.2687 186.728 11.7325 186.155 11.7563C185.614 11.778 185.065 11.8387 184.533 11.7737C183.712 11.6718 183.261 11.0476 183.393 10.1027C183.584 8.73724 183.842 7.38049 184.135 6.03457C184.285 5.34753 184.24 4.94874 183.395 5.02893C183.13 5.05494 182.748 5.12863 182.815 4.6128C182.865 4.22485 182.967 3.88241 183.447 3.97777C184.413 4.17066 184.685 3.6505 184.728 2.82692C184.743 2.53216 184.83 2.24173 184.9 1.95131C185.004 1.52001 185.807 1.08221 186.226 1.21442C186.515 1.30544 186.38 1.50484 186.348 1.67389C186.239 2.2309 186.144 2.79224 186.009 3.34274C185.898 3.79788 186.007 4.01895 186.511 3.9691C186.726 3.94743 186.949 3.93443 187.16 3.97344C187.448 4.02545 187.928 3.74153 187.922 4.37873C187.917 4.90106 187.653 5.10045 187.158 5.06361C186.995 5.0506 186.832 5.0441 186.532 5.02893L186.534 5.0311Z" fill="white"/>
<path d="M171.517 11.8129C169.789 11.828 169.248 11.1973 169.53 9.58051C169.745 8.35596 169.969 7.13142 170.245 5.91771C170.382 5.31302 170.319 4.99876 169.6 5.02476C169.361 5.03343 168.879 5.26751 168.914 4.66282C168.942 4.19684 169.114 3.8609 169.656 3.97577C170.51 4.15566 170.733 3.67668 170.798 2.96796C170.831 2.61902 170.918 2.27658 171 1.93414C171.098 1.52018 171.888 1.09755 172.277 1.22976C172.55 1.32078 172.457 1.53102 172.429 1.70007C172.342 2.23323 172.251 2.76857 172.129 3.29523C172.021 3.76337 172.099 4.03429 172.661 3.97361C172.928 3.94543 173.204 3.9541 173.473 3.97577C173.708 3.99528 174.088 3.84357 174.033 4.31605C173.994 4.64982 174.005 5.06161 173.475 5.03343C173.421 5.03127 173.367 5.03343 173.312 5.03343C171.778 5.09629 171.771 5.09629 171.487 6.58308C171.3 7.56705 171.1 8.54885 170.968 9.53933C170.85 10.4063 171.144 10.6598 172.016 10.623C172.296 10.6122 172.748 10.2611 172.765 10.9481C172.778 11.4683 172.622 11.7825 172.051 11.7782C171.834 11.7782 171.619 11.802 171.515 11.8064L171.517 11.8129Z" fill="white"/>
<path d="M333.061 8.99928C333.128 6.42448 334.372 4.5714 336.408 3.97322C337.051 3.78466 337.7 3.81717 338.343 3.8952C338.71 3.94071 339.179 3.92337 339.011 4.60175C338.87 5.17609 338.675 5.23678 338.123 5.07639C336.984 4.74696 335.896 5.23461 335.258 6.25326C334.693 7.15487 334.472 8.14751 334.53 9.20084C334.578 10.0439 335.019 10.4991 335.855 10.5381C336.285 10.5576 336.717 10.4817 337.149 10.4666C337.377 10.4579 337.728 10.109 337.804 10.5511C337.865 10.8979 338 11.3985 337.429 11.5632C336.419 11.858 335.401 11.9664 334.391 11.6044C333.399 11.249 333.019 10.4687 333.058 8.99711L333.061 8.99928Z" fill="white"/>
<path d="M159.628 11.8125C159.587 11.8125 159.396 11.8212 159.207 11.8103C158.894 11.7908 158.465 11.8515 158.634 11.3205C158.74 10.9889 158.575 10.3496 159.359 10.601C159.845 10.757 160.382 10.7267 160.883 10.562C161.825 10.2499 162.049 9.35475 161.339 8.66554C160.992 8.32744 160.564 8.07386 160.201 7.75092C158.955 6.63475 159.237 4.8597 160.768 4.16398C161.587 3.7912 162.451 3.79987 163.323 3.85839C163.649 3.88006 163.873 3.97109 163.745 4.34604C163.651 4.61695 163.742 5.0786 163.219 4.98107C162.705 4.88354 162.199 4.83152 161.695 5.00491C160.825 5.30183 160.61 6.11892 161.252 6.77996C161.571 7.10723 161.953 7.37381 162.305 7.66857C163.653 8.79775 163.46 10.5533 161.899 11.3877C161.233 11.7432 160.521 11.8624 159.628 11.8168V11.8125Z" fill="white"/>
<path d="M259.662 11.8147C259.571 11.8147 259.38 11.819 259.191 11.8147C258.848 11.8038 258.498 11.7952 258.655 11.2793C258.761 10.9304 258.639 10.4102 259.345 10.6009C259.864 10.7418 260.42 10.7332 260.947 10.5446C261.844 10.226 262.061 9.3699 261.386 8.70019C261.023 8.34041 260.58 8.063 260.2 7.72056C259.022 6.65206 259.247 4.93336 260.652 4.21597C261.536 3.76517 262.482 3.80201 263.433 3.86486C263.791 3.8887 263.815 4.11194 263.744 4.37419C263.665 4.66244 263.7 5.09374 263.19 4.96804C262.732 4.85534 262.278 4.85967 261.826 4.97021C260.871 5.20645 260.591 6.10589 261.275 6.81461C261.612 7.16138 262.026 7.43013 262.391 7.75307C263.65 8.87141 263.49 10.4601 262.028 11.3227C261.332 11.7345 260.565 11.8645 259.666 11.8168L259.662 11.8147Z" fill="white"/>
<path d="M155.938 5.8568C156.185 5.50786 156.42 5.14808 156.685 4.81431C156.989 4.43069 157.332 4.06441 157.816 3.9257C158.115 3.83901 158.608 3.56809 158.702 4.0319C158.775 4.40035 158.888 4.99203 158.161 5.16758C156.947 5.46234 156.476 6.52867 155.986 7.51698C155.443 8.61365 155.167 9.79702 154.965 11.0021C154.859 11.6349 154.318 11.8972 153.73 11.6718C153.465 11.5699 153.521 11.3857 153.554 11.2123C153.979 8.93008 154.407 6.65004 154.846 4.37C154.976 3.69163 155.532 3.99289 155.901 3.98855C156.47 3.97988 156.153 4.40902 156.118 4.63659C156.057 5.03104 155.925 5.41466 155.823 5.80045C155.862 5.81778 155.899 5.83512 155.938 5.85463V5.8568Z" fill="white"/>
<path d="M210.16 6.14936C210.718 5.46665 210.978 4.85546 211.478 4.42416C211.706 4.22694 211.927 4.01237 212.22 3.94518C212.55 3.86933 213.063 3.54422 213.167 4.04055C213.236 4.37432 213.336 5.04836 212.589 5.16323C211.892 5.26943 211.487 5.81126 211.111 6.34659C210.138 7.72935 209.661 9.30718 209.441 10.95C209.341 11.6912 208.946 11.7151 208.386 11.6912C208.015 11.6761 207.926 11.533 207.993 11.1863C208.427 8.93223 208.849 6.67819 209.279 4.42416C209.415 3.71111 209.993 3.96469 210.39 3.9907C210.924 4.02754 210.601 4.42633 210.555 4.66257C210.473 5.08303 210.338 5.49266 210.162 6.14936H210.16Z" fill="white"/>
<path d="M295.578 5.75075C295.988 5.27177 296.24 4.72126 296.705 4.34631C296.961 4.13825 297.226 3.94102 297.545 3.876C297.81 3.82182 298.27 3.63326 298.305 3.99087C298.342 4.36582 298.461 4.99868 297.857 5.12656C296.965 5.31728 296.488 5.94581 296.053 6.63502C295.217 7.95926 294.818 9.43739 294.553 10.9632C294.436 11.6372 294.004 11.8735 293.353 11.6871C293.038 11.5961 293.101 11.4075 293.142 11.1886C293.567 8.93673 293.991 6.68487 294.41 4.43301C294.547 3.70261 295.122 3.97353 295.513 3.99737C296.049 4.02988 295.684 4.44601 295.693 4.68659C295.706 5.02036 295.415 5.32162 295.576 5.75292L295.578 5.75075Z" fill="white"/>
<path d="M165.572 11.6738C165.055 11.7562 164.843 11.5936 164.962 11.015C165.405 8.85195 165.813 6.68245 166.239 4.51511C166.33 4.05347 167.19 3.73921 167.563 4.02313C167.73 4.151 167.661 4.31138 167.632 4.4631C167.205 6.71062 166.768 8.95815 166.352 11.21C166.262 11.6868 165.963 11.7302 165.572 11.676V11.6738Z" fill="white"/>
<path d="M135.406 11.6804C134.822 11.7909 134.648 11.5894 134.774 10.9804C135.215 8.83687 135.627 6.68687 136.007 4.53254C136.142 3.7653 136.682 3.96253 137.123 3.98637C137.707 4.01671 137.416 4.48485 137.373 4.7276C136.982 6.85375 136.541 8.96907 136.157 11.0952C136.07 11.5764 135.886 11.7693 135.406 11.6804Z" fill="white"/>
<path d="M290.004 28.9196C289.993 29.8645 289.201 30.6339 288.244 30.6339C287.256 30.6339 286.429 29.8168 286.442 28.8545C286.455 27.9226 287.345 27.1055 288.324 27.1228C289.244 27.1402 290.013 27.9638 290.002 28.9196H290.004Z" fill="white"/>
<path d="M67.8268 75.7858C66.8933 75.7359 66.1204 74.8842 66.166 73.9544C66.2094 73.0354 67.0843 72.24 68.0005 72.2856C68.9428 72.3332 69.7243 73.1958 69.6614 74.1234C69.5962 75.0792 68.7626 75.8378 67.829 75.7858H67.8268Z" fill="white"/>
<path d="M10.6129 19.5612C11.6225 19.5828 12.365 20.3414 12.3302 21.3102C12.2977 22.2465 11.5334 22.9877 10.5955 22.9921C9.63594 22.9964 8.83699 22.1945 8.86087 21.256C8.8891 20.2114 9.58384 19.5373 10.6107 19.5612H10.6129Z" fill="white"/>
<path d="M23.1531 16.9624C22.2521 16.9624 21.3729 16.0933 21.3859 15.2112C21.3989 14.2966 22.2261 13.4882 23.1705 13.4687C24.0758 13.447 24.9095 14.2923 24.9073 15.2264C24.9073 16.1692 24.1062 16.9603 23.1531 16.9624Z" fill="white"/>
<path d="M71.3831 48.5252C70.3693 48.5273 69.6333 47.8143 69.6289 46.8216C69.6246 45.8355 70.3801 45.0943 71.381 45.1051C72.3688 45.1138 73.1113 45.8745 73.1004 46.8628C73.0896 47.8034 72.3471 48.523 71.3831 48.5252Z" fill="white"/>
<path d="M58.4051 65.8055C58.3899 66.7396 57.5692 67.5416 56.6205 67.5459C55.7065 67.5502 54.8749 66.6811 54.901 65.7448C54.9292 64.7717 55.7043 64.0738 56.7247 64.0998C57.6973 64.1258 58.4203 64.8584 58.4051 65.8055Z" fill="white"/>
<path d="M42.5344 19.0081C42.53 19.9877 41.7376 20.7701 40.7867 20.7355C39.8835 20.7029 39.0737 19.888 39.0694 19.0059C39.065 18.0458 39.8401 17.2807 40.8236 17.2764C41.8331 17.2721 42.5387 17.9873 42.5344 19.0081Z" fill="white"/>
<path d="M26.2295 26.4792C26.2316 27.5044 25.5564 28.1459 24.4861 28.1351C23.5113 28.1243 22.7818 27.4134 22.7862 26.4771C22.7905 25.4758 23.5221 24.7367 24.5035 24.7432C25.5021 24.7475 26.2273 25.4779 26.2295 26.4792Z" fill="white"/>
<path d="M80.9465 66.9692C80.9465 68.2999 80.6252 68.7139 79.5874 68.7247C78.6082 68.7334 77.9482 68.0485 77.9482 67.0234C77.9482 66.0459 78.6625 65.2873 79.5896 65.2808C80.6143 65.2743 80.9443 65.6861 80.9443 66.967L80.9465 66.9692Z" fill="white"/>
<path d="M32.7019 0.37793C33.0536 0.37793 33.4053 0.37793 33.7549 0.37793C34.3758 0.380097 34.569 0.674855 34.2716 1.23836C33.9134 1.91891 33.3359 2.27652 32.5499 2.18982C31.7857 2.1053 31.2799 1.70434 31.041 0.941437C30.8912 0.462456 31.0671 0.371428 31.4839 0.388766C31.8878 0.403938 32.2937 0.393101 32.6997 0.393101C32.6997 0.388766 32.6997 0.384432 32.6997 0.37793H32.7019Z" fill="white"/>
<path d="M168.369 1.73039C168.306 2.31557 167.967 2.66668 167.379 2.66884C166.839 2.67318 166.53 2.33507 166.561 1.79107C166.591 1.2319 166.925 0.911134 167.494 0.893795C168.048 0.876456 168.334 1.16905 168.369 1.73039Z" fill="white"/>
<path d="M137.243 0.884766C137.805 0.895602 138.155 1.16002 138.15 1.70619C138.148 2.25886 137.807 2.61864 137.258 2.66848C136.728 2.71617 136.355 2.41924 136.333 1.88391C136.309 1.29222 136.659 0.949786 137.243 0.886933V0.884766Z" fill="white"/>
<path d="M321.995 0.703125C322.525 0.705292 322.818 1.01305 322.811 1.50287C322.803 2.02737 322.462 2.3438 321.919 2.3373C321.437 2.3308 321.161 2.0187 321.153 1.56789C321.142 1.04123 321.424 0.709627 321.997 0.703125H321.995Z" fill="white"/>
<path d="M181.18 0.703125C181.68 0.716129 181.942 1.01956 181.936 1.52021C181.927 2.0252 181.612 2.3308 181.119 2.34163C180.568 2.35247 180.26 1.99486 180.284 1.47036C180.305 0.978377 180.635 0.70746 181.182 0.703125H181.18Z" fill="white"/>
<path d="M318.947 0.705078C319.507 0.720249 319.802 0.991167 319.8 1.50266C319.798 1.99898 319.518 2.32408 319.006 2.33492C318.461 2.34792 318.133 2.04449 318.148 1.49616C318.163 0.991167 318.487 0.735421 318.949 0.705078H318.947Z" fill="white"/>
<path d="M178.106 0.69873C178.619 0.713902 178.927 0.965313 178.938 1.48331C178.949 1.99263 178.638 2.30039 178.156 2.33724C177.672 2.37191 177.314 2.12484 177.288 1.59818C177.262 1.05201 177.57 0.759416 178.106 0.700898V0.69873Z" fill="white"/>
</g>
<defs>
<clipPath id="clip0_1008_64300">
<rect width="362.1" height="79.8295" fill="white" transform="translate(0.950195 0.286621)"/>
</clipPath>
</defs>
</svg>
