<svg width="400" height="93" viewBox="0 0 400 93" fill="none" xmlns="http://www.w3.org/2000/svg">
<path d="M251.868 27.6631L241.969 37.5481L237.643 41.7845L219.592 59.81L225.248 65.4586L243.3 47.433L251.868 55.9889V27.6631Z" fill="white"/>
<path d="M241.969 33.1455L236.479 27.6631L217.845 46.2701L209.443 37.8803V65.6247L220.174 54.909L223.335 51.7525L241.969 33.1455Z" fill="white"/>
<path d="M230.658 5.23517C247.046 5.23517 261.52 12.0467 270.421 22.43C262.269 8.97319 247.545 0.00195312 230.658 0.00195312C213.772 0.00195312 199.048 8.97319 190.896 22.43C199.796 12.0467 214.271 5.23517 230.658 5.23517Z" fill="white"/>
<path d="M230.658 87.3882C214.271 87.3882 199.796 80.5767 190.896 70.1934C199.048 83.6502 213.772 92.6214 230.658 92.6214C247.545 92.6214 262.269 83.6502 270.421 70.1934C261.52 80.5767 247.046 87.3882 230.658 87.3882Z" fill="white"/>
<path d="M309.264 27.4971H302.609V65.5417H309.264V27.4971Z" fill="white"/>
<path d="M331.393 65.4587V49.0114H318.167L312.261 43.1137H331.393V27.4971H337.965V65.4587H331.393Z" fill="white"/>
<path d="M346.448 65.3756V27.4971H353.103V65.3756H346.448Z" fill="white"/>
<path d="M0.894801 65.3756L7.3833 58.7302H26.4328C30.0098 58.7302 31.9231 56.7366 31.9231 53.7462C31.9231 50.5066 29.9267 48.8453 26.4328 48.8453H11.8753C4.72135 48.9283 0.3125 44.4427 0.3125 38.1296C0.3125 32.0658 4.47179 27.4971 11.9585 27.4971H36.332L29.6771 34.1424H11.9585C8.96383 34.1424 7.13374 35.8868 7.13374 38.7942C7.13374 41.6185 8.96383 43.3629 11.8753 43.3629H26.3497C34.0028 43.3629 38.1621 46.9347 38.1621 54.3277C38.1621 60.6408 34.3355 65.4587 26.3497 65.4587H0.894801V65.3756Z" fill="white"/>
<path d="M103.295 36.302L86.0758 65.3755H78.5059L100.301 29.1583C101.049 27.8292 102.047 26.9985 103.545 26.9985C105.042 26.9985 105.957 27.8292 106.706 29.1583L128.584 65.3755H120.598L103.295 36.302Z" fill="white"/>
<path d="M146.054 65.3756C135.489 65.3756 127.67 57.0689 127.67 46.021C127.67 34.89 135.489 27.4971 146.054 27.4971H163.939L157.45 34.1424H146.137C139.316 34.1424 134.325 39.2095 134.325 46.3533C134.325 53.497 139.316 58.7302 146.137 58.7302H164.022L157.534 65.3756H146.054Z" fill="white"/>
<path d="M69.6884 27.4971H45.0654L51.7203 34.1424H69.6884C74.3468 34.1424 77.092 36.8836 77.092 41.2862C77.092 45.5226 74.3468 48.513 69.6884 48.513H50.223H45.0654V65.4587H51.6371V54.9092H69.6884C78.4229 54.9092 83.5805 49.2606 83.5805 41.1201C83.4973 32.8134 78.4229 27.4971 69.6884 27.4971Z" fill="white"/>
<path d="M201.205 43.3628H179.577L185.151 48.9283H201.205V43.3628Z" fill="white"/>
<path d="M176.335 34.1424H201.291V27.4971H169.764V31.4843V34.1424V43.3629V48.9283V58.8133V63.9635V65.3756H201.291V58.8133H176.335V34.1424Z" fill="white"/>
<path d="M259.353 65.5417L265.841 58.8963H284.891C288.468 58.8963 290.381 56.9027 290.381 53.9123C290.381 50.6727 288.385 49.0114 284.891 49.0114H270.333C263.179 49.0114 258.771 44.4427 258.771 38.2126C258.771 32.1488 262.93 27.5801 270.417 27.5801H294.79L288.135 34.2254H270.417C267.422 34.2254 265.592 35.9698 265.592 38.8772C265.592 41.7015 267.422 43.4459 270.333 43.4459H284.808C292.461 43.4459 296.62 47.0177 296.62 54.4107C296.62 60.7238 292.793 65.5417 284.808 65.5417H259.353Z" fill="white"/>
<path d="M385.712 27.6631H361.089L367.744 34.3084H385.712C390.37 34.3084 393.115 37.0497 393.115 41.4522C393.115 45.6886 390.37 48.679 385.712 48.679H366.33H361.172V65.6247H367.744V54.9921H385.795C394.53 54.9921 399.687 49.3436 399.687 41.203C399.604 32.8963 394.53 27.6631 385.712 27.6631Z" fill="white"/>
</svg>
