<svg width="364" height="55" viewBox="0 0 364 55" fill="none" xmlns="http://www.w3.org/2000/svg">
<path fill-rule="evenodd" clip-rule="evenodd" d="M64.057 53.8931H65.4669V0.938965H64.057V53.8931ZM14.156 1.54132V32.9631C14.1789 35.8724 15.0008 38.1042 16.6333 39.6357C18.2657 41.1673 20.3777 41.9529 22.9805 41.97V54.0172C19.8868 54.0571 16.8102 53.5788 13.8649 52.6053C11.2907 51.7513 8.91045 50.345 6.92409 48.4889C5.00052 46.6329 3.49362 44.3897 2.52328 41.8903C1.43306 39.0322 0.902226 35.9977 0.953597 32.9517V1.54132H14.156ZM22.9548 29.879C26.0485 29.8448 29.1308 30.3174 32.0704 31.2966C34.6503 32.1507 37.0248 33.5512 39.0112 35.4073C40.9348 37.2633 42.4417 39.5122 43.412 42.0059H43.452C44.4109 44.5464 44.9233 47.2264 44.9813 49.9418L44.9817 53.3186H31.7678V50.9616C31.7564 48.075 30.9288 45.8432 29.3077 44.2889C27.6867 42.7346 25.5576 41.9547 22.9548 41.9547V29.879ZM44.9726 1.52368L45.0125 31.1691H31.7987V1.52368H44.9726Z" fill="white"/>
<path fill-rule="evenodd" clip-rule="evenodd" d="M220.08 0.929199L214.589 17.9866H214.526L209.115 0.929199H203.596L211.507 25.1944H217.54H217.523L225.6 0.929199H220.08Z" fill="white"/>
<path fill-rule="evenodd" clip-rule="evenodd" d="M227.179 0.929199V25.1944H245.644V20.7023H232.527V14.7527H244.314V10.6136H232.527V5.41558H245.37V0.929199H227.179Z" fill="white"/>
<path fill-rule="evenodd" clip-rule="evenodd" d="M264.271 0.929199V17.2009H264.208L254.048 0.929199H248.739V25.1944H253.751V8.94548H253.819L263.934 25.1944H269.282V0.929199H264.271Z" fill="white"/>
<path fill-rule="evenodd" clip-rule="evenodd" d="M271.574 0.934082V5.41477H278.863V25.1936H284.212V5.41477H291.501V0.934082H271.574Z" fill="white"/>
<path fill-rule="evenodd" clip-rule="evenodd" d="M314.426 16.0245C314.426 19.3095 313.501 21.7577 311.663 23.3575C309.825 24.9631 307.279 25.7715 304.026 25.7715C300.772 25.7715 298.187 24.9745 296.371 23.3746C294.573 21.7691 293.66 19.3209 293.66 16.0131V0.919922H299.008V16.0131C299.008 16.6678 299.06 17.3226 299.18 17.9488C299.294 18.5751 299.522 19.1558 299.899 19.6511C300.259 20.1522 300.772 20.5507 301.412 20.8468C302.057 21.1428 302.93 21.2851 304.026 21.2851C305.926 21.2851 307.251 20.8581 307.97 20.0155C308.706 19.1672 309.066 17.835 309.066 16.0245V0.931309H314.414V16.0245H314.426Z" fill="white"/>
<path fill-rule="evenodd" clip-rule="evenodd" d="M318.515 0.930664H331.632C332.722 0.930664 333.698 1.11285 334.571 1.45446C335.45 1.80175 336.192 2.29138 336.826 2.90627C337.454 3.52115 337.928 4.22713 338.253 5.04698C338.584 5.86683 338.738 6.72653 338.738 7.62608C338.738 9.04942 338.441 10.2906 337.836 11.3325C337.237 12.3687 336.255 13.1657 334.897 13.7009V13.7692C335.553 13.9457 336.101 14.2304 336.529 14.6005C336.951 14.9705 337.311 15.4203 337.579 15.9498C337.853 16.4736 338.059 17.0259 338.173 17.6294C338.304 18.2329 338.378 18.8307 338.43 19.4512C338.458 19.8327 338.481 20.2825 338.493 20.8063C338.521 21.3357 338.561 21.8595 338.612 22.3833C338.664 22.9128 338.767 23.4366 338.881 23.9376C339.006 24.4386 339.189 24.8599 339.446 25.1959H334.097C333.943 24.8087 333.812 24.3874 333.738 23.9262C333.658 23.4651 333.584 22.9754 333.532 22.463C333.481 21.9506 333.43 21.4382 333.39 20.8974C333.35 20.3622 333.298 19.8612 333.236 19.3829C333.059 18.1133 332.671 17.191 332.077 16.6045C331.489 16.0124 330.524 15.7164 329.189 15.7164H323.84V25.1959H318.486V0.930664H318.515ZM323.863 11.9075H329.725C330.935 11.9075 331.849 11.6399 332.465 11.0877C333.093 10.5468 333.401 9.66431 333.401 8.43454C333.401 7.19908 333.093 6.39631 332.465 5.86683C331.837 5.34303 330.924 5.07545 329.725 5.07545H323.863V11.9075Z" fill="white"/>
<path fill-rule="evenodd" clip-rule="evenodd" d="M342.457 0.929199V25.1944H360.922V20.7023H347.805V14.7527H359.592V10.6136H347.805V5.41558H360.648V0.929199H342.457Z" fill="white"/>
<path fill-rule="evenodd" clip-rule="evenodd" d="M278.863 29.6289V53.8941H296.067V49.402H284.212V29.6289H278.863Z" fill="white"/>
<path fill-rule="evenodd" clip-rule="evenodd" d="M306.014 29.5161L296.79 53.7813H302.195L304.102 48.3783H313.2L315.044 53.7813H320.598L311.494 29.5161H306.014ZM308.663 35.5056H308.731L311.79 44.4043H305.5L308.663 35.5056Z" fill="white"/>
<path fill-rule="evenodd" clip-rule="evenodd" d="M321.794 29.6313H333.239C334.392 29.6313 335.448 29.7338 336.401 29.9388C337.354 30.1438 338.176 30.4797 338.855 30.9408C339.534 31.402 340.065 32.0169 340.436 32.7855C340.807 33.5541 341.001 34.5049 341.001 35.6436C341.001 36.8506 340.722 37.864 340.157 38.6838C339.586 39.5037 338.764 40.1869 337.696 40.7107C339.203 41.1491 340.322 41.8892 341.053 42.9709C341.789 44.047 342.16 45.3394 342.16 46.8538C342.16 48.0722 341.915 49.1369 341.441 50.0364C340.961 50.9303 340.322 51.6647 339.512 52.2284C338.701 52.792 337.788 53.2133 336.749 53.4866C335.716 53.7542 334.648 53.8965 333.558 53.8965H321.766V29.6313H321.794ZM327.142 39.4524H332.554C333.507 39.4524 334.289 39.2247 334.911 38.7749C335.527 38.3251 335.819 37.585 335.819 36.5716C335.819 36.0079 335.716 35.5411 335.51 35.171C335.305 34.8123 335.037 34.5277 334.688 34.3227C334.34 34.1177 333.958 33.9811 333.518 33.9014C333.084 33.8274 332.622 33.7875 332.143 33.7875H327.131V39.4524H327.142ZM327.142 49.7518H332.862C333.393 49.7518 333.878 49.7005 334.369 49.598C334.842 49.4956 335.271 49.3304 335.63 49.0856C335.99 48.8408 336.287 48.522 336.503 48.1121C336.72 47.7021 336.823 47.1897 336.823 46.5464C336.823 45.3052 336.475 44.4057 335.767 43.8819C335.065 43.3524 334.135 43.0848 332.982 43.0848H327.154V49.7404L327.142 49.7518Z" fill="white"/>
<path fill-rule="evenodd" clip-rule="evenodd" d="M347.816 45.8412C347.816 46.6611 347.958 47.3443 348.255 47.9193C348.546 48.4829 348.934 48.9441 349.425 49.2914C349.91 49.6387 350.475 49.9063 351.132 50.0714C351.777 50.2422 352.467 50.3276 353.192 50.3276C353.666 50.3276 354.18 50.2934 354.722 50.2137C355.259 50.1397 355.772 49.986 356.252 49.7526C356.726 49.5191 357.125 49.2117 357.445 48.8188C357.764 48.4203 357.919 47.9193 357.919 47.3044C357.919 46.6497 357.713 46.1088 357.291 45.6989C356.868 45.2889 356.326 44.9417 355.635 44.6627C354.939 44.378 354.18 44.1332 353.318 43.9453C352.456 43.7517 351.583 43.5354 350.698 43.2735C349.785 43.0458 348.894 42.7782 348.032 42.4423C347.171 42.112 346.4 41.685 345.721 41.1726C345.036 40.6488 344.488 40.0055 344.06 39.2369C343.637 38.4683 343.432 37.5175 343.432 36.3788C343.432 35.132 343.7 34.0445 344.231 33.1336C344.767 32.2113 345.464 31.454 346.326 30.8391C347.188 30.2186 348.164 29.7745 349.254 29.4784C350.35 29.1824 351.44 29.04 352.519 29.04C353.792 29.04 355.013 29.1824 356.183 29.467C357.353 29.746 358.398 30.2072 359.294 30.8391C360.207 31.4768 360.932 32.2853 361.457 33.2588C361.983 34.2324 362.257 35.4394 362.257 36.8514H357.074C357.022 36.1226 356.868 35.5305 356.611 35.0579C356.355 34.5797 356.006 34.2096 355.567 33.925C355.133 33.6574 354.642 33.4638 354.066 33.3499C353.501 33.2361 352.896 33.1848 352.262 33.1848C351.828 33.1848 351.4 33.2361 350.966 33.3272C350.527 33.4126 350.144 33.5663 349.796 33.7997C349.448 34.0274 349.151 34.3121 348.923 34.6708C348.689 35.0181 348.575 35.4508 348.575 35.9404C348.575 36.43 348.666 36.8001 348.843 37.0962C349.026 37.3922 349.385 37.6598 349.91 37.8876C350.441 38.121 351.183 38.3772 352.125 38.6334C353.061 38.8896 354.294 39.2255 355.824 39.5956C356.121 39.6582 356.509 39.7607 356.982 39.8916C357.456 40.0169 357.959 40.1877 358.501 40.404C359.037 40.6204 359.568 40.8937 360.105 41.2353C360.647 41.5712 361.121 41.9925 361.572 42.4935C362.011 42.9945 362.371 43.5866 362.639 44.2755C362.907 44.9701 363.05 45.7615 363.05 46.6724C363.05 47.7883 362.833 48.8188 362.411 49.7639C361.983 50.7147 361.343 51.5346 360.481 52.2292C359.631 52.9181 358.575 53.4589 357.319 53.8575C356.058 54.256 354.591 54.4439 352.93 54.4439C351.594 54.4439 350.298 54.2788 349.037 53.9315C347.776 53.5899 346.674 53.0718 345.721 52.3715C344.767 51.6655 343.997 50.766 343.42 49.6899C342.838 48.5968 342.559 47.3044 342.581 45.8127H347.764L347.816 45.8412Z" fill="white"/>
<path fill-rule="evenodd" clip-rule="evenodd" d="M138.287 0.929199H133.515V44.3982H122.624V0.929199H83.1367V10.4315H92.669V53.8947H102.195V10.4315H113.086V53.8947H143.036V10.4315H153.926V53.8947H163.459V10.4315H174.349V53.8947H183.876V0.929199H138.287Z" fill="white"/>
</svg>
