<svg width="364" height="163" viewBox="0 0 364 163" fill="none" xmlns="http://www.w3.org/2000/svg">
<g clip-path="url(#clip0_1008_64245)">
<path d="M119.744 24.1146V2.32605H130.463L130.296 4.48828H122.521V12.5273H129.685V14.6895H122.521V24.0592H119.744V24.1146ZM142.848 14.0797C142.848 14.745 142.848 15.2994 142.792 15.7429C142.737 16.2419 142.681 16.63 142.681 16.9626H134.961C135.073 18.7368 135.406 20.0674 136.128 20.899C136.794 21.7306 137.794 22.1742 139.071 22.1742C139.515 22.1742 139.904 22.1187 140.293 22.0078C140.626 21.8969 140.959 21.7861 141.237 21.6197C141.515 21.4534 141.737 21.3425 141.904 21.1762C142.07 21.0099 142.237 20.899 142.292 20.8436L143.236 22.6177C143.125 22.7286 142.959 22.8949 142.737 23.0612C142.514 23.283 142.237 23.4493 141.904 23.6711C141.57 23.8928 141.126 24.0592 140.571 24.1701C140.071 24.3364 139.404 24.3918 138.682 24.3918C137.738 24.3918 136.85 24.2255 136.128 23.8928C135.35 23.5602 134.684 23.0612 134.184 22.4514C133.629 21.7861 133.24 20.9544 132.962 19.901C132.684 18.9031 132.518 17.6279 132.518 16.2419C132.518 14.9113 132.684 13.747 132.962 12.7491C133.295 11.7511 133.684 10.975 134.184 10.3097C134.684 9.69979 135.295 9.20082 136.017 8.92361C136.739 8.59096 137.461 8.48008 138.238 8.48008C139.682 8.48008 140.848 8.92361 141.626 9.86612C142.403 10.9195 142.848 12.2501 142.848 14.0797ZM138.016 10.6977C137.127 10.6977 136.405 11.0858 135.85 11.8066C135.295 12.5828 134.961 13.6361 134.906 15.0776H140.46C140.46 14.9667 140.515 14.8004 140.515 14.6341C140.515 14.4123 140.515 14.246 140.515 13.9688C140.515 12.9154 140.293 12.0838 139.904 11.5294C139.46 10.9749 138.849 10.6977 138.016 10.6977ZM145.569 16.7963C145.569 15.244 145.791 13.9688 146.18 12.9708C146.569 11.9175 147.124 11.0858 147.735 10.476C148.346 9.86611 149.068 9.42258 149.901 9.14537C150.678 8.86817 151.511 8.75728 152.289 8.75728C152.789 8.75728 153.178 8.81272 153.566 8.86817C153.899 8.92361 154.233 9.03449 154.455 9.14537V1.88252L157.01 1.60531V24.2255H154.677V22.6177H154.621C154.566 22.7286 154.455 22.8949 154.288 23.1167C154.122 23.3384 153.899 23.5602 153.566 23.782C153.289 24.0037 152.9 24.1701 152.456 24.3364C152.011 24.5027 151.511 24.5581 150.901 24.5581C150.179 24.5581 149.512 24.3918 148.846 24.1146C148.179 23.8374 147.624 23.3939 147.18 22.784C146.68 22.1742 146.291 21.3425 146.013 20.4C145.68 19.3466 145.569 18.1824 145.569 16.7963ZM151.567 22.2296C151.956 22.2296 152.344 22.1742 152.622 22.0633C152.955 21.9524 153.233 21.8415 153.455 21.6752C153.677 21.5089 153.899 21.3425 154.066 21.1762C154.233 21.0099 154.344 20.8436 154.455 20.7327V11.363C154.233 11.1967 153.955 11.0858 153.622 10.9749C153.289 10.8641 152.955 10.8086 152.456 10.8086C151.845 10.8086 151.289 10.9195 150.789 11.0858C150.29 11.3076 149.845 11.6402 149.457 12.0838C149.068 12.5273 148.79 13.1372 148.568 13.8579C148.346 14.5787 148.235 15.5212 148.235 16.5745C148.235 17.6279 148.346 18.515 148.512 19.2357C148.679 19.9565 148.957 20.5109 149.234 20.9544C149.568 21.398 149.901 21.6752 150.29 21.8969C150.678 22.1742 151.123 22.2296 151.567 22.2296ZM170.616 14.0797C170.616 14.745 170.616 15.2994 170.561 15.7429C170.505 16.2419 170.449 16.63 170.449 16.9626H162.73C162.841 18.7368 163.174 20.0674 163.896 20.899C164.563 21.7306 165.562 22.1742 166.84 22.1742C167.284 22.1742 167.673 22.1187 168.061 22.0078C168.395 21.8969 168.728 21.7861 169.006 21.6197C169.283 21.4534 169.505 21.3425 169.672 21.1762C169.839 21.0099 170.005 20.899 170.061 20.8436L171.005 22.6177C170.894 22.7286 170.727 22.8949 170.505 23.0612C170.283 23.283 170.005 23.4493 169.672 23.6711C169.339 23.8928 168.894 24.0592 168.339 24.1701C167.839 24.3364 167.173 24.3918 166.451 24.3918C165.507 24.3918 164.618 24.2255 163.896 23.8928C163.119 23.5602 162.452 23.0612 161.952 22.4514C161.397 21.7861 161.008 20.9544 160.731 19.901C160.453 18.9031 160.286 17.6279 160.286 16.2419C160.286 14.9113 160.453 13.747 160.731 12.7491C161.064 11.7511 161.452 10.975 161.952 10.3097C162.452 9.69979 163.063 9.20082 163.785 8.92361C164.507 8.59096 165.229 8.48008 166.007 8.48008C167.45 8.48008 168.617 8.92361 169.394 9.86612C170.227 10.9195 170.616 12.2501 170.616 14.0797ZM165.84 10.6977C164.951 10.6977 164.229 11.0858 163.674 11.8066C163.119 12.5828 162.785 13.6361 162.73 15.0776H168.284C168.284 14.9667 168.339 14.8004 168.339 14.6341C168.339 14.4123 168.339 14.246 168.339 13.9688C168.339 12.9154 168.117 12.0838 167.728 11.5294C167.228 10.9749 166.617 10.6977 165.84 10.6977ZM180.724 11.2522C180.668 11.1967 180.502 11.1413 180.335 11.0858C180.113 11.0304 179.835 10.9749 179.502 10.9749C178.724 10.9749 178.058 11.1967 177.614 11.6402C177.169 12.0838 176.836 12.5273 176.67 13.0263V24.1146H174.115V8.97905H176.447V11.0304H176.503C176.614 10.7532 176.725 10.4205 176.892 10.1433C177.058 9.86612 177.28 9.5889 177.503 9.36714C177.78 9.14537 178.058 8.97905 178.391 8.86817C178.724 8.75728 179.169 8.70184 179.613 8.70184C179.946 8.70184 180.279 8.75728 180.502 8.81272C180.724 8.86816 180.89 8.92361 181.001 8.97905L180.724 11.2522ZM182.223 20.2891C182.223 19.4021 182.39 18.6813 182.723 18.0715C183.056 17.4616 183.501 17.0181 184.056 16.63C184.611 16.2419 185.278 16.0201 186.055 15.8538C186.833 15.6875 187.666 15.632 188.499 15.632H189.276V14.1906C189.276 12.9154 189.054 12.0283 188.61 11.5294C188.166 11.0304 187.499 10.8086 186.722 10.8086C185.944 10.8086 185.333 10.9749 184.833 11.3076C184.334 11.6402 183.945 11.9175 183.612 12.1947L182.556 10.476C182.723 10.3096 182.945 10.1433 183.223 9.92155C183.501 9.69979 183.834 9.53347 184.167 9.3117C184.556 9.14537 185 8.97904 185.444 8.81272C185.944 8.70184 186.5 8.6464 187.111 8.6464C188.666 8.6464 189.832 9.08993 190.665 9.92155C191.442 10.8086 191.887 12.1947 191.887 14.0797V21.0099C191.887 21.6752 191.887 22.285 191.942 22.8949C191.998 23.5048 192.053 23.9483 192.053 24.1146H189.61L189.499 22.4514H189.443C189.332 22.6177 189.221 22.8395 189.054 23.1167C188.888 23.3384 188.666 23.5602 188.443 23.782C188.166 24.0037 187.888 24.1701 187.499 24.2809C187.166 24.4473 186.722 24.5027 186.222 24.5027C185.667 24.5027 185.111 24.3918 184.611 24.1701C184.112 23.9483 183.667 23.6711 183.334 23.283C182.945 22.8949 182.668 22.4514 182.501 21.9524C182.279 21.4534 182.223 20.899 182.223 20.2891ZM186.777 22.3405C187.11 22.3405 187.444 22.285 187.721 22.1742C187.999 22.0633 188.221 21.9524 188.443 21.7861C188.666 21.6197 188.832 21.4534 188.943 21.2871C189.054 21.1208 189.221 20.9544 189.332 20.8436V17.5171L188.499 17.5725C187.277 17.6279 186.333 17.8497 185.722 18.1824C185.111 18.5705 184.778 19.1803 184.778 20.0119C184.778 20.7881 184.945 21.398 185.333 21.7861C185.667 22.1742 186.166 22.3405 186.777 22.3405ZM198.218 20.6218C198.218 21.2316 198.329 21.6752 198.496 21.9524C198.662 22.2296 198.995 22.3405 199.44 22.3405C199.662 22.3405 199.884 22.3405 200.051 22.285C200.217 22.2296 200.328 22.1742 200.439 22.1742L200.661 24.0592C200.55 24.1146 200.328 24.2255 199.939 24.3364C199.606 24.4473 199.162 24.5027 198.607 24.5027C197.718 24.5027 197.052 24.2255 196.496 23.7265C195.996 23.2275 195.719 22.285 195.719 20.899V1.88252L198.273 1.60531V20.6218H198.218ZM228.319 2.3815V24.1701H225.653V13.8025C225.653 13.1372 225.653 12.5273 225.653 11.862C225.653 11.2522 225.653 10.6423 225.653 10.0879C225.653 9.53346 225.653 9.03449 225.709 8.6464C225.709 8.20287 225.764 7.92566 225.764 7.64845H225.653C225.542 8.14743 225.32 8.92361 224.987 9.977C224.653 11.0858 224.265 12.2501 223.876 13.4698L220.266 24.1146H218.1L214.49 13.4698C214.046 12.2501 213.713 11.0858 213.379 9.977C213.046 8.86817 212.824 8.09198 212.713 7.64845H212.602C212.602 7.92566 212.657 8.25831 212.657 8.6464C212.657 9.08993 212.713 9.53346 212.713 10.0879C212.713 10.6423 212.713 11.1967 212.713 11.862C212.713 12.4719 212.713 13.1372 212.713 13.8025V24.1701H210.047V2.3815H213.102L218.267 17.4062C218.489 18.1269 218.711 18.7922 218.878 19.4575C219.044 20.1228 219.155 20.6772 219.211 21.1762H219.266C219.266 20.6772 219.377 20.1228 219.544 19.4575C219.711 18.7922 219.933 18.1269 220.155 17.4616L225.32 2.3815H228.319ZM235.372 24.1146H232.817V8.97905H235.372V24.1146ZM234.095 5.3199C233.595 5.3199 233.151 5.15357 232.817 4.82092C232.484 4.48828 232.317 4.04475 232.317 3.49033C232.317 2.99135 232.484 2.54782 232.817 2.21517C233.151 1.88252 233.539 1.7162 234.095 1.7162C234.594 1.7162 235.039 1.88252 235.316 2.21517C235.65 2.54782 235.816 2.99135 235.816 3.49033C235.816 4.04475 235.65 4.48828 235.316 4.82092C234.983 5.15357 234.594 5.3199 234.095 5.3199ZM247.535 24.1146V14.4123C247.535 13.1372 247.312 12.1947 246.868 11.6402C246.424 11.0858 245.757 10.8086 244.869 10.8086C244.091 10.8086 243.48 10.9749 242.981 11.363C242.481 11.7511 242.092 12.0838 241.759 12.4719V24.1701H239.204V9.03449H241.537V10.7532H241.592C241.648 10.6423 241.814 10.4205 241.981 10.1988C242.203 9.97699 242.481 9.69979 242.814 9.47803C243.147 9.25626 243.536 9.08993 244.036 8.86817C244.48 8.70184 245.035 8.59096 245.591 8.59096C246.257 8.59096 246.868 8.70184 247.423 8.86817C247.979 9.08993 248.423 9.36714 248.812 9.81067C249.201 10.2542 249.478 10.8086 249.7 11.5294C249.923 12.2501 250.034 13.0817 250.034 14.1351V24.0592H247.535V24.1146ZM256.532 24.1146H253.977V8.97905H256.532V24.1146ZM255.254 5.3199C254.754 5.3199 254.31 5.15357 253.977 4.82092C253.644 4.48828 253.477 4.04475 253.477 3.49033C253.477 2.99135 253.644 2.54782 253.977 2.21517C254.31 1.88252 254.699 1.7162 255.254 1.7162C255.754 1.7162 256.198 1.88252 256.476 2.21517C256.809 2.54782 256.976 2.99135 256.976 3.49033C256.976 4.04475 256.809 4.48828 256.476 4.82092C256.143 5.15357 255.754 5.3199 255.254 5.3199ZM266.972 12.0283C266.806 11.862 266.473 11.5848 266.028 11.2522C265.584 10.9195 265.029 10.7532 264.307 10.7532C263.64 10.7532 263.14 10.9195 262.752 11.2522C262.418 11.5848 262.196 11.9729 262.196 12.361C262.196 12.9154 262.363 13.4144 262.696 13.747C263.029 14.1351 263.529 14.5232 264.196 14.9113L265.14 15.4657C266.195 16.0756 266.972 16.7409 267.583 17.4616C268.194 18.1824 268.472 19.0694 268.472 20.1783C268.472 21.398 268.083 22.3959 267.25 23.2275C266.417 24.0592 265.195 24.4473 263.64 24.4473C263.029 24.4473 262.474 24.3918 262.03 24.2809C261.585 24.1701 261.141 24.0037 260.808 23.8374C260.475 23.6711 260.197 23.5048 259.919 23.283C259.697 23.0612 259.475 22.8949 259.364 22.7286L260.586 20.7327C260.697 20.8436 260.863 21.0099 261.03 21.1762C261.197 21.3425 261.419 21.5089 261.696 21.6752C261.974 21.8415 262.252 21.9524 262.529 22.0633C262.863 22.1742 263.196 22.2296 263.64 22.2296C264.418 22.2296 264.973 22.0633 265.362 21.7306C265.751 21.398 265.973 21.0099 265.973 20.5109C265.973 20.1783 265.917 19.8456 265.806 19.5684C265.695 19.2912 265.584 19.0694 265.362 18.8477C265.195 18.6259 264.918 18.4596 264.64 18.2378C264.362 18.0715 264.029 17.8497 263.696 17.6279L262.752 17.0181C261.807 16.4082 261.086 15.7429 260.53 15.0776C259.975 14.4123 259.697 13.5253 259.697 12.4719C259.697 11.9175 259.808 11.363 260.03 10.9195C260.252 10.4205 260.586 10.0324 260.974 9.69979C261.363 9.36714 261.863 9.08993 262.363 8.86817C262.918 8.6464 263.474 8.59096 264.084 8.59096C264.695 8.59096 265.195 8.6464 265.584 8.75728C266.028 8.86817 266.362 9.03449 266.695 9.20082C267.028 9.36714 267.25 9.53347 267.472 9.75523C267.694 9.92156 267.861 10.0879 267.972 10.1988L266.972 12.0283ZM277.969 11.0858H274.636V19.4575C274.636 20.5109 274.748 21.2871 275.025 21.6752C275.303 22.0633 275.747 22.285 276.414 22.285C276.802 22.285 277.136 22.2296 277.413 22.1187C277.691 22.0078 277.913 21.8969 278.024 21.8415L278.357 23.8928C278.246 24.0037 278.024 24.1146 277.58 24.2809C277.191 24.4473 276.636 24.5581 275.969 24.5581C274.636 24.5581 273.692 24.1701 273.026 23.4493C272.359 22.7286 272.026 21.5089 272.026 19.8456V11.0858H270.194V9.36714L272.026 8.97905L272.304 4.76549H274.581V8.97905H278.191L277.969 11.0858ZM287.577 11.2522C287.521 11.1967 287.354 11.1413 287.188 11.0858C286.966 11.0304 286.688 10.9749 286.355 10.9749C285.577 10.9749 284.911 11.1967 284.467 11.6402C284.022 12.0838 283.689 12.5273 283.522 13.0263V24.1146H280.968V8.97905H283.3V11.0304H283.356C283.467 10.7532 283.578 10.4205 283.745 10.1433C283.911 9.86612 284.133 9.5889 284.355 9.36714C284.578 9.14537 284.911 8.97905 285.244 8.86817C285.577 8.75728 286.022 8.70184 286.466 8.70184C286.799 8.70184 287.132 8.75728 287.354 8.81272C287.577 8.86816 287.743 8.92361 287.854 8.97905L287.577 11.2522ZM300.183 8.97905L295.463 25.0017C294.907 26.8313 294.241 28.2727 293.463 29.2152C292.686 30.1577 291.52 30.6567 290.02 30.6567C289.687 30.6567 289.465 30.6013 289.243 30.5458C289.021 30.4904 288.909 30.435 288.798 30.3795V28.1619C288.909 28.2173 289.021 28.2727 289.187 28.3282C289.354 28.3836 289.576 28.3836 289.854 28.3836C290.742 28.3836 291.464 28.1064 291.908 27.552C292.353 26.9976 292.797 26.1105 293.13 24.9462L293.352 24.1701L288.465 9.03449H291.242L293.63 17.4062C293.852 18.2932 294.074 19.0694 294.241 19.8456C294.408 20.5663 294.574 21.2871 294.574 21.8415H294.63C294.685 21.2316 294.796 20.5663 294.907 19.8456C295.074 19.1249 295.241 18.2932 295.518 17.4616L297.684 9.03449H300.183V8.97905ZM125.576 42.9093H122.466V55.9935H119.911V42.9093H118.134V41.1906L119.967 40.858V37.8087C119.967 36.9771 120.078 36.2563 120.3 35.7019C120.522 35.092 120.855 34.6485 121.244 34.2604C121.633 33.8723 122.077 33.5951 122.577 33.4288C123.077 33.2625 123.632 33.1516 124.187 33.1516C124.743 33.1516 125.187 33.207 125.576 33.3734C125.964 33.5397 126.187 33.6506 126.353 33.706L125.798 35.8128C125.687 35.7019 125.465 35.6465 125.243 35.5356C125.02 35.4247 124.743 35.3693 124.409 35.3693C123.799 35.3693 123.354 35.5356 123.021 35.9237C122.688 36.3118 122.521 36.9771 122.521 38.0305V40.7471H125.909L125.576 42.9093ZM127.131 48.398C127.131 47.012 127.297 45.7923 127.631 44.7943C127.964 43.7964 128.408 42.9648 128.963 42.2995C129.519 41.6342 130.185 41.1906 130.907 40.858C131.629 40.5253 132.407 40.4144 133.24 40.4144C134.073 40.4144 134.85 40.5808 135.572 40.858C136.294 41.1906 136.905 41.6342 137.461 42.2995C137.96 42.9648 138.405 43.7409 138.682 44.7943C139.016 45.7923 139.127 47.012 139.127 48.398C139.127 49.7841 138.96 51.0038 138.627 52.0018C138.294 52.9997 137.849 53.8313 137.294 54.4966C136.739 55.1619 136.072 55.6055 135.35 55.8827C134.628 56.1599 133.851 56.3262 133.018 56.3262C132.185 56.3262 131.407 56.1599 130.685 55.8827C129.963 55.6055 129.352 55.1065 128.797 54.4966C128.297 53.8313 127.853 53.0551 127.575 52.0572C127.297 51.0592 127.131 49.8395 127.131 48.398ZM136.461 48.398C136.461 46.4021 136.183 44.9052 135.572 44.0182C134.961 43.0756 134.184 42.6321 133.129 42.6321C132.074 42.6321 131.24 43.0756 130.685 44.0182C130.13 44.9607 129.797 46.4021 129.797 48.398C129.797 50.3939 130.074 51.8909 130.685 52.7779C131.296 53.665 132.074 54.1085 133.129 54.1085C134.184 54.1085 135.017 53.665 135.572 52.7779C136.183 51.8909 136.461 50.3939 136.461 48.398ZM149.012 43.0756C148.957 43.0202 148.79 42.9648 148.623 42.9093C148.401 42.8539 148.124 42.7984 147.79 42.7984C147.013 42.7984 146.346 43.0202 145.902 43.4637C145.458 43.9073 145.125 44.3508 144.958 44.8498V55.9381H142.403V40.8025H144.736V42.8539H144.791C144.903 42.5767 145.014 42.244 145.18 41.9668C145.347 41.6896 145.569 41.4124 145.791 41.1906C146.069 40.9689 146.346 40.8025 146.68 40.6917C147.013 40.5808 147.457 40.5253 147.902 40.5253C148.235 40.5253 148.568 40.5808 148.79 40.6362C149.012 40.6917 149.179 40.7471 149.29 40.8025L149.012 43.0756ZM168.617 36.3672H160.842V43.9073H168.006V46.0695H160.842V53.7204H169.394L169.228 55.9935H158.065V34.205H168.783L168.617 36.3672ZM180.724 43.7409C180.668 43.6855 180.557 43.5746 180.446 43.4637C180.335 43.3529 180.113 43.1865 179.946 43.0756C179.724 42.9648 179.502 42.8539 179.169 42.743C178.891 42.6321 178.558 42.5767 178.169 42.5767C177.614 42.5767 177.114 42.6876 176.614 42.8539C176.114 43.0756 175.725 43.3529 175.392 43.7964C175.059 44.2399 174.781 44.7943 174.559 45.5151C174.337 46.2358 174.281 47.0674 174.281 48.0654C174.281 49.1742 174.393 50.1167 174.559 50.8929C174.726 51.6691 175.003 52.279 175.281 52.7225C175.614 53.166 176.003 53.4987 176.447 53.7204C176.892 53.9422 177.392 53.9976 177.947 53.9976C178.724 53.9976 179.335 53.8868 179.724 53.6096C180.113 53.3323 180.446 53.1106 180.613 52.9443L181.668 54.7184C181.557 54.8293 181.39 54.9956 181.224 55.1619C181.001 55.3282 180.779 55.4946 180.446 55.6609C180.113 55.8272 179.724 55.9935 179.28 56.1044C178.836 56.2153 178.28 56.2708 177.725 56.2708C176.892 56.2708 176.114 56.1599 175.337 55.8827C174.615 55.6055 173.948 55.1619 173.393 54.5521C172.838 53.9422 172.393 53.1106 172.116 52.1126C171.782 51.1147 171.616 49.8395 171.616 48.3426C171.616 46.9011 171.782 45.6814 172.171 44.628C172.56 43.6301 173.06 42.7984 173.671 42.1886C174.281 41.5787 174.948 41.1352 175.725 40.858C176.447 40.5808 177.225 40.4144 178.002 40.4144C178.558 40.4144 179.058 40.4699 179.502 40.5808C179.946 40.6917 180.279 40.8025 180.613 40.9689C180.946 41.1352 181.168 41.3015 181.39 41.4678C181.612 41.6342 181.779 41.8005 181.89 41.9114L180.724 43.7409ZM183.556 48.398C183.556 47.012 183.723 45.7923 184.056 44.7943C184.389 43.7964 184.833 42.9648 185.389 42.2995C185.944 41.6342 186.611 41.1906 187.333 40.858C188.055 40.5253 188.832 40.4144 189.665 40.4144C190.498 40.4144 191.276 40.5808 191.998 40.858C192.72 41.1906 193.331 41.6342 193.886 42.2995C194.386 42.9648 194.83 43.7409 195.108 44.7943C195.441 45.7923 195.552 47.012 195.552 48.398C195.552 49.7841 195.385 51.0038 195.052 52.0018C194.719 52.9997 194.275 53.8313 193.719 54.4966C193.164 55.1619 192.498 55.6055 191.776 55.8827C191.054 56.1599 190.276 56.3262 189.443 56.3262C188.61 56.3262 187.832 56.1599 187.111 55.8827C186.389 55.6055 185.778 55.1065 185.222 54.4966C184.722 53.8313 184.278 53.0551 184 52.0572C183.723 51.0592 183.556 49.8395 183.556 48.398ZM192.886 48.398C192.886 46.4021 192.609 44.9052 191.998 44.0182C191.387 43.0756 190.609 42.6321 189.554 42.6321C188.499 42.6321 187.666 43.0756 187.111 44.0182C186.555 44.9607 186.222 46.4021 186.222 48.398C186.222 50.3939 186.5 51.8909 187.111 52.7779C187.721 53.665 188.499 54.1085 189.554 54.1085C190.609 54.1085 191.442 53.665 191.998 52.7779C192.609 51.8909 192.886 50.3939 192.886 48.398ZM207.048 55.9935V46.2358C207.048 44.9607 206.826 44.0182 206.382 43.4637C205.937 42.9093 205.271 42.6321 204.382 42.6321C203.605 42.6321 202.994 42.7984 202.494 43.1865C201.994 43.5746 201.606 43.9073 201.272 44.2954V55.9935H198.718V40.858H201.05V42.5767H201.106C201.161 42.4658 201.328 42.244 201.495 42.0223C201.717 41.8005 201.994 41.5233 202.328 41.3015C202.661 41.0797 203.05 40.9134 203.549 40.6917C203.994 40.5253 204.549 40.4144 205.104 40.4144C205.771 40.4144 206.382 40.5253 206.937 40.6917C207.492 40.9134 207.937 41.1906 208.326 41.6342C208.714 42.0777 208.992 42.6321 209.214 43.3529C209.436 44.0736 209.547 44.9052 209.547 45.9586V55.9935H207.048ZM212.768 48.398C212.768 47.012 212.935 45.7923 213.268 44.7943C213.602 43.7964 214.046 42.9648 214.601 42.2995C215.157 41.6342 215.823 41.1906 216.545 40.858C217.267 40.5253 218.044 40.4144 218.878 40.4144C219.711 40.4144 220.488 40.5808 221.21 40.858C221.932 41.1906 222.543 41.6342 223.098 42.2995C223.598 42.9648 224.042 43.7409 224.32 44.7943C224.653 45.7923 224.764 47.012 224.764 48.398C224.764 49.7841 224.598 51.0038 224.265 52.0018C223.931 52.9997 223.487 53.8313 222.932 54.4966C222.376 55.1619 221.71 55.6055 220.988 55.8827C220.266 56.1599 219.488 56.3262 218.655 56.3262C217.822 56.3262 217.045 56.1599 216.323 55.8827C215.601 55.6055 214.99 55.1065 214.435 54.4966C213.935 53.8313 213.49 53.0551 213.213 52.0572C212.88 51.0592 212.768 49.8395 212.768 48.398ZM222.099 48.398C222.099 46.4021 221.821 44.9052 221.21 44.0182C220.599 43.0756 219.822 42.6321 218.766 42.6321C217.711 42.6321 216.878 43.0756 216.323 44.0182C215.767 44.9607 215.434 46.4021 215.434 48.398C215.434 50.3939 215.712 51.8909 216.323 52.7779C216.934 53.665 217.711 54.1085 218.766 54.1085C219.822 54.1085 220.655 53.665 221.21 52.7779C221.765 51.8909 222.099 50.3939 222.099 48.398ZM235.927 55.9935V46.2358C235.927 45.0161 235.761 44.0736 235.372 43.5746C235.039 43.0202 234.428 42.743 233.65 42.743C233.206 42.743 232.873 42.7984 232.54 42.9093C232.206 43.0202 231.929 43.1311 231.651 43.2974C231.373 43.4637 231.151 43.6301 230.985 43.7964C230.818 43.9627 230.651 44.129 230.485 44.2954V55.9935H227.93V40.858H230.263V42.5767H230.318C230.429 42.4103 230.596 42.1886 230.818 41.9668C231.04 41.745 231.318 41.4678 231.595 41.2461C231.929 41.0243 232.262 40.858 232.706 40.6917C233.15 40.5253 233.595 40.4699 234.15 40.4699C235.872 40.4699 237.094 41.1352 237.816 42.4658C237.982 42.244 238.149 42.0223 238.427 41.8005C238.704 41.5787 238.982 41.357 239.315 41.1352C239.648 40.9134 240.037 40.7471 240.426 40.6362C240.87 40.5253 241.314 40.4699 241.814 40.4699C244.869 40.4699 246.424 42.244 246.424 45.8477V55.9935H243.869V46.2358C243.869 45.0161 243.647 44.0736 243.203 43.5746C242.758 43.0202 242.092 42.743 241.259 42.743C240.537 42.743 239.926 42.9093 239.482 43.242C238.982 43.5746 238.649 43.9073 238.371 44.2399C238.426 44.4617 238.427 44.7389 238.482 44.9607C238.482 45.2379 238.538 45.5151 238.538 45.7923V55.9935H235.927ZM252.866 55.9935H250.311V40.858H252.866V55.9935ZM251.589 37.1434C251.089 37.1434 250.645 36.9771 250.311 36.6444C249.978 36.3118 249.812 35.8682 249.812 35.3138C249.812 34.8148 249.978 34.3713 250.311 34.0387C250.645 33.706 251.033 33.5397 251.589 33.5397C252.089 33.5397 252.533 33.706 252.811 34.0387C253.144 34.3713 253.31 34.8148 253.31 35.3138C253.31 35.8682 253.144 36.3118 252.811 36.6444C252.477 36.9771 252.089 37.1434 251.589 37.1434ZM265.195 43.7409C265.14 43.6855 265.029 43.5746 264.918 43.4637C264.806 43.3529 264.584 43.1865 264.418 43.0756C264.196 42.9648 263.973 42.8539 263.64 42.743C263.363 42.6321 263.029 42.5767 262.641 42.5767C262.085 42.5767 261.585 42.6876 261.086 42.8539C260.586 43.0756 260.197 43.3529 259.864 43.7964C259.53 44.2399 259.253 44.7943 259.031 45.5151C258.809 46.2358 258.753 47.0674 258.753 48.0654C258.753 49.1742 258.864 50.1167 259.031 50.8929C259.197 51.6691 259.475 52.279 259.753 52.7225C260.086 53.166 260.475 53.4987 260.919 53.7204C261.363 53.9422 261.863 53.9976 262.418 53.9976C263.196 53.9976 263.807 53.8868 264.196 53.6096C264.584 53.3323 264.918 53.1106 265.084 52.9443L266.139 54.7184C266.028 54.8293 265.862 54.9956 265.695 55.1619C265.473 55.3282 265.251 55.4946 264.918 55.6609C264.584 55.8272 264.196 55.9935 263.751 56.1044C263.307 56.2153 262.752 56.2708 262.196 56.2708C261.363 56.2708 260.586 56.1599 259.808 55.8827C259.086 55.6055 258.42 55.1619 257.864 54.5521C257.309 53.9422 256.865 53.1106 256.587 52.1126C256.254 51.1147 256.087 49.8395 256.087 48.3426C256.087 46.9011 256.254 45.6814 256.643 44.628C257.031 43.6301 257.531 42.7984 258.142 42.1886C258.753 41.5787 259.419 41.1352 260.197 40.858C260.919 40.5808 261.696 40.4144 262.474 40.4144C263.029 40.4144 263.529 40.4699 263.973 40.5808C264.418 40.6917 264.751 40.8025 265.084 40.9689C265.417 41.1352 265.64 41.3015 265.862 41.4678C266.084 41.6342 266.25 41.8005 266.362 41.9114L265.195 43.7409ZM289.631 55.9935H286.577L284.633 49.0079H278.024L276.025 55.9935H273.248L280.357 34.205H282.523L289.631 55.9935ZM284.078 46.9011L282.356 40.9134C282.134 40.1372 281.912 39.3611 281.745 38.6403C281.579 37.9196 281.468 37.3097 281.468 36.8107H281.412C281.412 37.3097 281.301 37.8641 281.134 38.5849C280.968 39.3056 280.746 40.0264 280.523 40.858L278.746 46.9011H284.078ZM298.184 42.9093H295.074V55.9935H292.519V42.9093H290.687V41.1906L292.519 40.858V37.8087C292.519 36.9771 292.63 36.2563 292.853 35.7019C293.075 35.092 293.408 34.6485 293.797 34.2604C294.185 33.8723 294.63 33.5951 295.13 33.4288C295.629 33.2625 296.185 33.1516 296.74 33.1516C297.295 33.1516 297.74 33.207 298.129 33.3734C298.517 33.5397 298.739 33.6506 298.906 33.706L298.351 35.8128C298.24 35.7019 298.017 35.6465 297.795 35.5356C297.573 35.4247 297.296 35.3693 296.962 35.3693C296.351 35.3693 295.907 35.5356 295.574 35.9237C295.241 36.3118 295.074 36.9771 295.074 38.0305V40.7471H298.462L298.184 42.9093ZM307.126 42.9093H304.015V55.9935H301.461V42.9093H299.628V41.1906L301.461 40.858V37.8087C301.461 36.9771 301.572 36.2563 301.794 35.7019C302.016 35.092 302.349 34.6485 302.738 34.2604C303.127 33.8723 303.571 33.5951 304.071 33.4288C304.571 33.2625 305.126 33.1516 305.682 33.1516C306.237 33.1516 306.681 33.207 307.07 33.3734C307.459 33.5397 307.681 33.6506 307.847 33.706L307.292 35.8128C307.181 35.7019 306.959 35.6465 306.737 35.5356C306.515 35.4247 306.237 35.3693 305.904 35.3693C305.293 35.3693 304.848 35.5356 304.515 35.9237C304.182 36.3118 304.015 36.9771 304.015 38.0305V40.7471H307.403L307.126 42.9093ZM308.569 52.1126C308.569 51.2256 308.736 50.5048 309.069 49.895C309.403 49.2851 309.847 48.8416 310.402 48.4535C310.958 48.0654 311.624 47.8436 312.402 47.6773C313.179 47.511 314.012 47.4555 314.845 47.4555H315.623V46.0141C315.623 44.7389 315.401 43.8518 314.956 43.3529C314.512 42.8539 313.845 42.6321 313.068 42.6321C312.29 42.6321 311.68 42.7984 311.18 43.1311C310.68 43.4637 310.291 43.7409 309.958 44.0182L308.903 42.2995C309.069 42.1331 309.291 41.9668 309.569 41.745C309.847 41.5233 310.18 41.357 310.513 41.1352C310.902 40.9689 311.346 40.8025 311.791 40.6362C312.29 40.5253 312.846 40.4699 313.457 40.4699C315.012 40.4699 316.178 40.9134 317.011 41.745C317.789 42.6321 318.233 44.0182 318.233 45.9032V52.8334C318.233 53.4987 318.233 54.1085 318.288 54.7184C318.344 55.3282 318.399 55.7718 318.399 55.9381H315.956L315.845 54.2749C315.734 54.4412 315.623 54.6629 315.456 54.9402C315.289 55.1619 315.067 55.3837 314.845 55.6055C314.567 55.8272 314.29 55.9935 313.901 56.1044C313.568 56.2708 313.124 56.3262 312.624 56.3262C312.068 56.3262 311.513 56.2153 311.013 55.9935C310.513 55.7718 310.069 55.4946 309.736 55.1065C309.347 54.7184 309.069 54.2749 308.903 53.7759C308.681 53.2769 308.569 52.7225 308.569 52.1126ZM313.179 54.164C313.512 54.164 313.845 54.1085 314.123 53.9976C314.401 53.8868 314.623 53.7759 314.845 53.6096C315.067 53.4432 315.234 53.2769 315.345 53.1106C315.456 52.9443 315.623 52.7779 315.734 52.667V49.3406L314.901 49.396C313.679 49.4514 312.735 49.6732 312.124 50.0058C311.513 50.3939 311.18 51.0038 311.18 51.8354C311.18 52.6116 311.346 53.2215 311.735 53.6096C312.068 53.9976 312.513 54.164 313.179 54.164ZM324.675 55.9935H322.12V40.858H324.675V55.9935ZM323.398 37.1434C322.898 37.1434 322.454 36.9771 322.12 36.6444C321.787 36.3118 321.621 35.8682 321.621 35.3138C321.621 34.8148 321.787 34.3713 322.12 34.0387C322.454 33.706 322.842 33.5397 323.398 33.5397C323.898 33.5397 324.342 33.706 324.62 34.0387C324.953 34.3713 325.119 34.8148 325.119 35.3138C325.119 35.8682 324.953 36.3118 324.62 36.6444C324.286 36.9771 323.898 37.1434 323.398 37.1434ZM335.227 43.0756C335.172 43.0202 335.005 42.9648 334.838 42.9093C334.616 42.8539 334.339 42.7984 334.005 42.7984C333.228 42.7984 332.561 43.0202 332.117 43.4637C331.673 43.9073 331.34 44.3508 331.173 44.8498V55.9381H328.618V40.8025H330.951V42.8539H331.006C331.117 42.5767 331.228 42.244 331.395 41.9668C331.562 41.6896 331.784 41.4124 332.006 41.1906C332.284 40.9689 332.561 40.8025 332.895 40.6917C333.228 40.5808 333.672 40.5253 334.116 40.5253C334.45 40.5253 334.783 40.5808 335.005 40.6362C335.227 40.6917 335.394 40.7471 335.505 40.8025L335.227 43.0756ZM344.169 43.9073C344.002 43.7409 343.669 43.4637 343.224 43.1311C342.78 42.7984 342.225 42.6321 341.503 42.6321C340.836 42.6321 340.337 42.7984 339.948 43.1311C339.615 43.4637 339.392 43.8518 339.392 44.2399C339.392 44.7943 339.559 45.2933 339.892 45.626C340.225 46.0141 340.725 46.4021 341.392 46.7902L342.336 47.3446C343.391 47.9545 344.169 48.6198 344.779 49.3406C345.39 50.0613 345.668 50.9484 345.668 52.0572C345.668 53.2769 345.279 54.2749 344.446 55.1065C343.613 55.9381 342.391 56.3262 340.836 56.3262C340.225 56.3262 339.67 56.2708 339.226 56.1599C338.781 56.049 338.337 55.8827 338.004 55.7163C337.671 55.55 337.393 55.3837 337.115 55.1619C336.893 54.9402 336.671 54.7738 336.56 54.6075L337.782 52.6116C337.893 52.7225 338.06 52.8888 338.226 53.0551C338.393 53.2215 338.615 53.3878 338.893 53.5541C339.17 53.7204 339.448 53.8313 339.726 53.9422C340.059 54.0531 340.392 54.1085 340.836 54.1085C341.614 54.1085 342.169 53.9422 342.558 53.6096C342.947 53.2769 343.169 52.8888 343.169 52.3898C343.169 52.0572 343.113 51.7245 343.002 51.4473C342.891 51.1701 342.78 50.9484 342.558 50.7266C342.391 50.5048 342.114 50.3385 341.836 50.1167C341.558 49.9504 341.225 49.7286 340.892 49.5069L339.948 48.897C339.004 48.2872 338.282 47.6219 337.726 46.9566C337.171 46.2913 336.893 45.4042 336.893 44.3508C336.893 43.7964 337.004 43.242 337.226 42.7984C337.449 42.2995 337.782 41.9114 338.171 41.5787C338.559 41.2461 339.059 40.9689 339.559 40.7471C340.114 40.5253 340.67 40.4699 341.281 40.4699C341.892 40.4699 342.391 40.5253 342.78 40.6362C343.224 40.7471 343.558 40.9134 343.891 41.0798C344.224 41.2461 344.446 41.4124 344.668 41.6342C344.891 41.8005 345.057 41.9668 345.168 42.0777L344.169 43.9073ZM118.356 83.9361C118.356 83.0491 118.523 82.3283 118.856 81.7185C119.189 81.1086 119.633 80.6651 120.189 80.277C120.744 79.8889 121.41 79.6671 122.188 79.5008C122.965 79.3345 123.799 79.279 124.632 79.279H125.409V77.8375C125.409 76.5624 125.187 75.6753 124.743 75.1764C124.298 74.6774 123.632 74.4556 122.854 74.4556C122.077 74.4556 121.466 74.6219 120.966 74.9546C120.466 75.2872 120.078 75.5644 119.744 75.8416L118.689 74.123C118.856 73.9566 119.078 73.7903 119.356 73.5685C119.633 73.3468 119.967 73.1805 120.3 72.9587C120.633 72.7369 121.133 72.626 121.577 72.4597C122.077 72.3488 122.632 72.2934 123.243 72.2934C124.798 72.2934 125.964 72.7369 126.798 73.5685C127.575 74.4556 128.019 75.8416 128.019 77.7267V84.6569C128.019 85.3222 128.019 85.932 128.075 86.5419C128.13 87.1517 128.186 87.5953 128.186 87.7616H125.742L125.631 86.0983H125.576C125.465 86.2647 125.354 86.4864 125.187 86.7636C125.02 86.9854 124.798 87.2072 124.576 87.4289C124.298 87.6507 124.021 87.817 123.632 87.9279C123.299 88.0942 122.854 88.1497 122.355 88.1497C121.799 88.1497 121.244 88.0388 120.744 87.817C120.244 87.5953 119.8 87.3181 119.467 86.93C119.078 86.5419 118.8 86.0983 118.634 85.5994C118.411 85.1004 118.356 84.546 118.356 83.9361ZM122.91 85.9875C123.243 85.9875 123.576 85.932 123.854 85.8211C124.132 85.7103 124.354 85.5994 124.576 85.4331C124.798 85.2667 124.965 85.1004 125.076 84.9341C125.187 84.7677 125.354 84.6014 125.465 84.4905V81.164L124.632 81.2195C123.41 81.2749 122.466 81.4967 121.855 81.8293C121.244 82.2174 120.911 82.8273 120.911 83.6589C120.911 84.4351 121.077 85.045 121.466 85.4331C121.799 85.8211 122.299 85.9875 122.91 85.9875ZM140.126 87.817V78.0593C140.126 76.7842 139.904 75.8416 139.46 75.2872C139.016 74.7328 138.349 74.4556 137.461 74.4556C136.683 74.4556 136.072 74.6219 135.572 75.01C135.073 75.3981 134.684 75.7308 134.351 76.1189V87.817H131.796V72.6815H134.128V74.4002H134.184C134.239 74.2893 134.406 74.0675 134.573 73.8457C134.795 73.624 135.073 73.3468 135.406 73.125C135.739 72.9032 136.128 72.7369 136.628 72.5152C137.072 72.3488 137.627 72.2379 138.183 72.2379C138.849 72.2379 139.46 72.3488 140.015 72.5152C140.571 72.7369 141.015 73.0141 141.404 73.4577C141.792 73.9012 142.07 74.4556 142.292 75.1764C142.514 75.8971 142.626 76.7287 142.626 77.7821V87.7062H140.126V87.817ZM145.791 80.4433C145.791 78.8909 146.013 77.6158 146.402 76.6178C146.791 75.5644 147.346 74.7328 147.957 74.123C148.568 73.5131 149.29 73.0696 150.123 72.7924C150.901 72.5152 151.734 72.4043 152.511 72.4043C153.011 72.4043 153.4 72.4597 153.788 72.5152C154.122 72.5706 154.455 72.6815 154.677 72.7924V65.5295L157.232 65.2523V87.8725H154.899V86.2647H154.844C154.788 86.3756 154.677 86.5419 154.51 86.7636C154.344 86.9854 154.122 87.2072 153.788 87.4289C153.511 87.6507 153.122 87.817 152.678 87.9834C152.233 88.1497 151.734 88.2051 151.123 88.2051C150.401 88.2051 149.734 88.0388 149.068 87.7616C148.401 87.4844 147.846 87.0409 147.402 86.431C146.902 85.8211 146.513 84.9895 146.235 84.047C145.958 83.0491 145.791 81.8293 145.791 80.4433ZM151.789 85.932C152.178 85.932 152.567 85.8766 152.844 85.7657C153.178 85.6548 153.455 85.5439 153.677 85.3776C153.899 85.2113 154.122 85.045 154.288 84.8786C154.455 84.7123 154.566 84.546 154.677 84.4351V75.0655C154.455 74.8991 154.177 74.7883 153.844 74.6774C153.511 74.5665 153.178 74.511 152.678 74.511C152.067 74.511 151.511 74.6219 151.012 74.7883C150.512 75.01 150.067 75.3427 149.679 75.7862C149.29 76.2297 149.012 76.8396 148.79 77.5603C148.568 78.2811 148.457 79.2236 148.457 80.277C148.457 81.3304 148.568 82.2174 148.735 82.9382C148.901 83.6589 149.179 84.2133 149.457 84.6569C149.79 85.1004 150.123 85.3776 150.512 85.5994C150.956 85.8211 151.345 85.932 151.789 85.932ZM178.891 68.1907H171.116V75.7308H178.28V77.893H171.116V85.5439H179.669L179.502 87.817H168.339V66.0285H179.058L178.891 68.1907ZM191.109 87.817V78.0593C191.109 76.7842 190.887 75.8416 190.443 75.2872C189.998 74.7328 189.332 74.4556 188.443 74.4556C187.666 74.4556 187.055 74.6219 186.555 75.01C186.055 75.3981 185.667 75.7308 185.333 76.1189V87.817H182.779V72.6815H185.111V74.4002H185.167C185.222 74.2893 185.389 74.0675 185.555 73.8457C185.778 73.624 186.055 73.3468 186.389 73.125C186.722 72.9032 187.11 72.7369 187.61 72.5152C188.055 72.3488 188.61 72.2379 189.165 72.2379C189.832 72.2379 190.443 72.3488 190.998 72.5152C191.553 72.7369 191.998 73.0141 192.386 73.4577C192.775 73.9012 193.053 74.4556 193.275 75.1764C193.497 75.8971 193.608 76.7287 193.608 77.7821V87.7062H191.109V87.817ZM207.27 77.7821C207.27 78.4474 207.27 79.0018 207.215 79.4454C207.159 79.9443 207.104 80.3324 207.104 80.6651H199.384C199.495 82.4392 199.828 83.7698 200.55 84.6014C201.217 85.4331 202.217 85.8766 203.494 85.8766C203.938 85.8766 204.327 85.8211 204.716 85.7103C205.049 85.5994 205.382 85.4885 205.66 85.3222C205.937 85.1558 206.16 85.045 206.326 84.8786C206.493 84.7123 206.659 84.6014 206.715 84.546L207.659 86.3201C207.548 86.431 207.381 86.5973 207.159 86.7636C206.937 86.9854 206.659 87.1517 206.326 87.3735C205.993 87.5953 205.549 87.7616 204.993 87.8725C204.494 88.0388 203.827 88.0942 203.105 88.0942C202.161 88.0942 201.272 87.9279 200.55 87.5953C199.773 87.2626 199.106 86.7636 198.607 86.1538C198.051 85.4885 197.662 84.6569 197.385 83.6035C197.107 82.6055 196.941 81.3304 196.941 79.9443C196.941 78.6137 197.107 77.4495 197.385 76.4515C197.718 75.4536 198.107 74.6774 198.607 74.0121C199.106 73.3468 199.717 72.9032 200.439 72.626C201.161 72.2934 201.883 72.1825 202.661 72.1825C204.105 72.1825 205.271 72.626 206.049 73.5685C206.826 74.5665 207.27 75.9525 207.27 77.7821ZM202.439 74.3447C201.55 74.3447 200.828 74.7328 200.273 75.4536C199.717 76.2297 199.384 77.2831 199.329 78.7246H204.882C204.882 78.6137 204.938 78.4474 204.938 78.2811C204.938 78.0593 204.938 77.893 204.938 77.6158C204.938 76.5624 204.716 75.7308 204.327 75.1764C203.827 74.6219 203.216 74.3447 202.439 74.3447ZM217.323 74.8991C217.267 74.8437 217.1 74.7883 216.934 74.7328C216.712 74.6774 216.434 74.6219 216.101 74.6219C215.323 74.6219 214.657 74.8437 214.212 75.2872C213.768 75.7308 213.435 76.1743 213.268 76.6733V87.7616H210.714V72.626H213.046V74.6774H213.102C213.213 74.4002 213.324 74.0675 213.49 73.7903C213.657 73.5131 213.879 73.2359 214.101 73.0141C214.379 72.7924 214.657 72.626 214.99 72.5152C215.323 72.4043 215.767 72.3488 216.212 72.3488C216.545 72.3488 216.878 72.4043 217.1 72.4597C217.323 72.5151 217.489 72.5706 217.6 72.626L217.323 74.8991ZM230.485 74.6219H228.596C229.096 75.3981 229.318 76.3406 229.318 77.3386C229.318 78.1148 229.207 78.8355 228.93 79.5008C228.652 80.1661 228.319 80.6651 227.819 81.1086C227.319 81.5521 226.764 81.8848 226.153 82.1066C225.486 82.3283 224.82 82.4392 224.098 82.4392C223.931 82.4392 223.82 82.4392 223.709 82.4392C223.598 82.4392 223.432 82.4392 223.32 82.3838C223.043 82.4946 222.821 82.661 222.543 82.8827C222.265 83.1045 222.154 83.4371 222.154 83.8252C222.154 84.1579 222.265 84.3797 222.543 84.6014C222.765 84.8232 223.154 84.8786 223.709 84.8786H225.653C226.375 84.8786 227.041 84.9341 227.652 85.1004C228.263 85.2667 228.819 85.4885 229.263 85.8211C229.707 86.1538 230.096 86.5419 230.318 87.0409C230.596 87.5398 230.707 88.1497 230.707 88.8704C230.707 89.7021 230.54 90.4228 230.207 91.0881C229.874 91.7534 229.374 92.3632 228.763 92.8068C228.152 93.3058 227.375 93.6938 226.431 93.9156C225.542 94.1928 224.487 94.3037 223.376 94.3037C221.765 94.3037 220.544 93.9711 219.655 93.2503C218.822 92.5296 218.378 91.5316 218.378 90.201C218.378 89.6466 218.489 89.1476 218.655 88.7595C218.878 88.3715 219.1 87.9834 219.377 87.7062C219.655 87.3735 219.933 87.1517 220.21 86.9854C220.488 86.8191 220.71 86.6528 220.877 86.5419V86.4864C220.21 85.9875 219.877 85.3222 219.877 84.3797C219.877 83.9916 219.933 83.6589 220.099 83.3263C220.266 83.0491 220.433 82.7718 220.655 82.6055C220.877 82.4392 221.043 82.2729 221.266 82.162C221.488 82.0511 221.599 81.9402 221.71 81.9402V81.8848C220.932 81.5521 220.322 80.9423 219.822 80.2215C219.322 79.4454 219.1 78.4474 219.1 77.2831C219.1 76.4515 219.211 75.6753 219.488 75.0655C219.766 74.4002 220.155 73.9012 220.599 73.4577C221.043 73.0141 221.599 72.7369 222.21 72.5152C222.821 72.2934 223.487 72.1825 224.209 72.1825C224.931 72.1825 225.598 72.2934 226.208 72.5706H230.818L230.485 74.6219ZM223.432 87.3181C222.987 87.3181 222.599 87.2626 222.265 87.2072C222.099 87.3181 221.877 87.4289 221.71 87.5953C221.543 87.7616 221.377 87.9279 221.21 88.1497C221.043 88.3715 220.932 88.5932 220.821 88.8704C220.71 89.1476 220.655 89.4803 220.655 89.8684C220.655 91.4762 221.543 92.3078 223.32 92.3078C224.876 92.3078 225.986 92.0306 226.708 91.4207C227.43 90.8109 227.819 90.1456 227.819 89.3694C227.819 88.6487 227.597 88.0942 227.097 87.817C226.653 87.4844 225.986 87.3735 225.209 87.3735H223.432V87.3181ZM226.819 77.3386C226.819 76.2297 226.542 75.4536 226.042 75.01C225.542 74.5665 224.931 74.2893 224.209 74.2893C223.487 74.2893 222.821 74.511 222.321 75.01C221.821 75.4536 221.543 76.2297 221.543 77.3386C221.543 78.4474 221.821 79.2236 222.321 79.6671C222.821 80.1107 223.432 80.3879 224.154 80.3879C224.876 80.3879 225.542 80.1661 226.042 79.6671C226.542 79.2236 226.819 78.4474 226.819 77.3386ZM243.536 72.626L238.815 88.6487C238.26 90.4782 237.593 91.9197 236.816 92.8622C236.038 93.8047 234.872 94.3037 233.373 94.3037C233.039 94.3037 232.817 94.2483 232.595 94.1928C232.373 94.1374 232.262 94.0819 232.151 94.0265V91.8088C232.262 91.8643 232.373 91.9197 232.54 91.9752C232.706 92.0306 232.928 92.0306 233.206 92.0306C234.095 92.0306 234.817 91.7534 235.261 91.199C235.761 90.6446 236.149 89.7575 236.483 88.5932L236.705 87.817L231.818 72.6815H234.594L236.983 81.0532C237.205 81.9402 237.427 82.7164 237.593 83.4926C237.76 84.2133 237.927 84.9341 237.927 85.4885H237.982C238.038 84.8786 238.149 84.2133 238.26 83.4926C238.426 82.7719 238.593 81.9402 238.871 81.1086L241.037 72.6815H243.536V72.626Z" fill="white"/>
<path d="M49.9339 22.3968C49.9894 21.7869 50.045 21.1771 50.045 20.5672C50.045 20.2346 50.045 19.8465 49.9894 19.4029C55.2654 19.3475 59.9305 15.522 59.9305 11.1421C59.9305 8.92446 58.4865 7.20577 57.6535 6.20782C57.8201 6.15238 58.0423 6.15238 58.2089 6.09694C58.9864 6.76224 61.2078 9.14623 61.2078 12.1955C61.2078 17.407 55.9874 22.2859 49.9339 22.3968ZM44.6023 4.10104C44.4913 3.49118 44.2691 2.99221 43.9359 2.54868C43.9359 1.99426 44.1581 1.49528 45.0466 1.93882C44.6023 2.43779 44.9356 3.26941 44.9356 3.26941C44.9356 3.26941 45.8797 2.82588 45.7131 2.21602C47.157 2.49323 46.1018 4.37824 44.6023 4.10104ZM43.3805 6.76224C43.2139 5.98605 42.7696 5.15443 42.2698 4.54457C41.8255 3.99016 41.048 3.32486 39.9928 3.32486C39.493 3.32486 38.7154 3.54663 38.2156 3.76839C38.049 3.43574 37.6602 2.60412 37.6602 2.21602C37.6602 1.82793 38.3267 1.43985 39.5485 1.43985C42.2698 1.43985 43.9359 2.65956 43.9359 4.76634C43.9359 5.54253 43.6582 6.20782 43.3805 6.76224ZM50.4337 42.0785C50.7669 42.0785 50.9335 42.134 51.1002 42.1894C51.8777 44.3517 54.9322 48.3989 55.0433 48.5652V48.6207H55.0988C55.8208 48.5098 57.7646 48.2326 59.3196 48.2326H59.3751C59.5417 48.2326 59.7639 48.2326 59.875 48.3435C59.986 48.4543 60.0416 48.6207 60.0416 48.8979C60.0416 49.286 59.875 49.9513 59.6528 50.2839C59.0974 49.6741 58.2089 49.3969 56.7649 49.3969C56.3206 49.3969 55.8208 49.5077 55.5431 49.6186H55.432L55.3209 49.6741L56.154 50.5057C57.4313 51.7808 58.5421 52.8897 58.5421 53.6658C58.5421 54.1094 58.0978 54.7192 57.709 54.941C57.598 53.6104 56.2651 51.7808 54.9322 50.7829L54.8211 50.672V51.171C54.8211 51.5036 54.7656 52.0026 54.7656 52.5016C54.7656 55.1073 54.4879 55.4954 53.5993 55.4954C53.4882 55.4954 53.2661 55.44 53.0995 55.3845C53.5993 54.7747 53.8215 53.9431 53.8215 52.5016V51.8363V51.2819C53.8215 50.672 53.877 50.2285 53.9325 49.8958V49.6741H53.7659C53.3216 49.6186 52.5441 49.5077 51.9887 49.5077C50.7114 49.5077 49.8228 49.6186 49.2119 50.2285C48.8231 49.8958 48.3788 49.3414 48.3788 48.9533C48.3788 48.3989 48.7121 48.3989 49.1564 48.3989C49.3785 48.3989 49.6007 48.4543 49.8783 48.4543C50.4337 48.5098 51.2668 48.6761 52.9329 48.6761H53.0439L52.9884 48.5652C52.5441 47.3455 51.3778 45.5159 49.4896 43.2428C49.6562 42.4666 49.8228 42.0785 50.4337 42.0785ZM34.0504 48.3989L33.9948 48.5098H34.1059C35.8275 48.5098 36.6606 48.3989 37.1604 48.288C37.4381 48.2326 37.6602 48.2326 37.8824 48.2326C38.3267 48.2326 38.6599 48.288 38.6599 48.787C38.6599 49.1751 38.2156 49.7295 37.8269 50.0621C37.216 49.4523 36.3274 49.3414 35.05 49.3414C34.4391 49.3414 33.6616 49.4523 33.2728 49.5077H33.2173H33.1618V49.7295C33.2173 50.0622 33.2728 50.5057 33.2728 51.1155V51.67V52.3352C33.2728 53.7767 33.495 54.6084 33.9948 55.2182C33.8837 55.2737 33.6616 55.3291 33.495 55.3291C32.6064 55.3291 32.3287 54.941 32.3287 52.3352C32.3287 51.8363 32.3287 51.3373 32.2732 51.0047V50.5057L32.1621 50.6166C30.8292 51.6145 29.4408 53.4441 29.3853 54.7747C28.9965 54.4975 28.5522 53.9431 28.5522 53.4995C28.5522 52.7788 29.6629 51.6699 30.9403 50.3393L31.6623 49.6186L31.7733 49.5077L31.5512 49.4523C31.2735 49.3969 30.7737 49.2305 30.3294 49.2305C28.8854 49.2305 27.9968 49.5077 27.4415 50.1176C27.2193 49.8404 27.0527 49.1751 27.0527 48.7315C27.0527 48.4543 27.1083 48.288 27.2193 48.1771C27.3304 48.0662 27.5526 48.0663 27.7192 48.0663H27.7747C29.3853 48.0663 31.2735 48.3435 31.9955 48.4543H32.051V48.3989C32.1621 48.2326 35.2166 44.1853 35.9941 42.0231C36.1608 41.9677 36.3274 41.9122 36.6606 41.9122C37.2715 41.9122 37.4381 42.3003 37.6047 42.9102C35.6609 45.405 34.4391 47.1792 34.0504 48.3989ZM25.8309 12.1401C25.8309 9.14622 28.0524 6.70679 28.8299 6.04149C28.9965 6.09694 29.2187 6.15238 29.3853 6.15238C28.4967 7.20577 27.0527 8.86902 27.0527 11.0867C27.0527 15.522 31.7733 19.3475 37.1604 19.3475C37.1049 19.7356 37.1049 20.1237 37.1049 20.5118C37.1049 21.1771 37.1604 21.7869 37.216 22.3413C31.1624 22.3413 25.8309 17.4625 25.8309 12.1401ZM66.4838 21.4543C69.2051 25.7233 71.3155 25.6678 74.5367 25.6678C71.8709 23.6165 70.0937 21.0107 69.2607 19.6801L64.3179 11.752C63.8181 9.31255 62.5407 6.98401 60.6525 5.32076C61.3189 5.09899 61.8188 4.82178 62.152 4.60002C58.9308 4.60002 55.7097 2.93677 53.9325 2.93677C52.8218 2.93677 52.0443 3.60207 52.0443 4.48913C52.0998 5.48708 53.155 6.48503 55.0433 6.48503C55.4876 6.48503 56.0429 6.42958 56.6538 6.3187C57.709 7.76018 58.5421 9.03534 58.5421 10.9204C58.5421 14.4132 54.3768 17.1298 50.156 17.1298C49.9339 17.1298 49.7117 17.1298 49.434 17.1298C49.0453 16.2428 47.7679 14.8013 47.7679 13.1935C47.7679 10.4214 49.5451 8.20372 49.5451 5.43164C49.5451 3.71295 48.7121 2.65956 48.3788 2.21602C48.8787 1.71705 49.434 1.16263 49.6007 0.774539C49.323 0.885422 48.9342 0.940866 48.4344 0.940866C46.4351 0.940866 44.769 0.441895 43.1584 0.441895C42.2698 0.441895 41.9921 0.719103 41.9921 0.996311C41.9921 1.10719 41.9921 1.21807 42.0477 1.21807C41.7144 1.10719 41.3812 0.996307 40.9925 0.940866C40.4926 0.829983 39.9928 0.829984 39.493 0.829984C37.5492 0.829984 36.8827 1.66161 36.8827 2.32691C36.8827 2.93676 37.327 3.99016 37.8824 4.82178C38.6599 4.43369 39.5485 4.15648 39.9928 4.15648C41.048 4.15648 41.9366 5.15443 42.4364 6.3187C41.77 6.42958 41.6034 6.42959 40.8814 6.42959C38.9931 6.42959 37.7158 5.76429 37.4381 5.76429C37.4381 5.76429 37.3826 5.76429 37.3826 5.81973C37.3826 6.09694 37.9379 6.76223 38.9931 7.15033C40.3816 7.6493 42.4919 7.87107 42.8252 7.92651C42.8252 7.98196 42.4919 8.64725 42.1032 8.75814C42.0477 8.75814 41.9366 8.81358 41.881 8.75814C40.4371 8.48093 39.9928 8.37005 38.1601 7.64931C38.1045 7.64931 38.049 7.6493 38.049 7.70474C38.049 8.42548 39.9373 10.0333 41.6589 10.6431C40.2149 12.4727 38.4933 14.3023 37.6602 17.1298C37.4381 17.1298 37.216 17.1298 36.9383 17.1298C32.7175 17.1298 28.5522 14.4132 28.5522 10.9204C28.5522 9.09078 29.3853 7.76018 30.4405 6.3187C31.0514 6.42958 31.6067 6.48503 32.051 6.48503C33.9393 6.48503 34.9945 5.48708 35.05 4.48913C35.05 3.60207 34.328 2.93677 33.1618 2.93677C31.3846 2.93677 28.1635 4.60002 24.9423 4.60002C25.2755 4.82178 25.7754 5.09899 26.4418 5.32076C24.5536 7.03945 23.2762 9.31255 22.7764 11.752L17.8336 19.6801C17.0006 21.0107 15.2234 23.6165 12.5576 25.6678C15.7788 25.6678 17.8892 25.7233 20.6105 21.4543L23.1651 17.407C23.3318 17.9614 23.6094 18.4604 23.8316 18.9594L18.7222 27.0539C17.8891 28.3845 16.112 30.9902 13.4462 33.0416C16.6673 33.0416 18.7777 33.097 21.499 28.828L25.8864 21.8424C26.2197 22.175 26.5529 22.5077 26.9416 22.8403L20.7771 32.6535C19.944 33.9841 18.1668 36.5898 15.5011 38.6412C18.7222 38.6412 20.8326 38.6966 23.5539 34.4276L29.5519 24.8362C29.9406 25.058 30.3294 25.3352 30.7737 25.557L23.4428 37.2551C22.6098 38.5857 20.8326 41.1915 18.1668 43.2428C21.388 43.2428 23.4984 43.2983 26.2197 39.0293L33.7727 26.9984C34.217 27.1648 34.6613 27.3311 35.1056 27.4974L26.664 41.0252C25.8309 42.3558 24.0537 44.9615 21.388 47.0129C24.6091 47.0129 26.7195 47.0683 29.4408 42.7993L38.5488 28.2736C38.6599 28.2736 38.7154 28.329 38.8265 28.329C39.0487 29.1052 39.2708 29.826 39.2708 30.6021C39.2708 35.1483 36.2718 39.1956 32.6619 42.3003C32.8841 42.4112 33.2728 42.4112 33.6616 42.4112C34.3836 42.4112 34.8834 42.3558 35.2166 42.3003C34.3836 44.1853 32.6064 46.6248 31.6623 47.8999C30.496 47.6782 28.7744 47.5118 27.6636 47.5118C26.4974 47.5118 26.3307 48.1771 26.3307 48.787C26.3307 49.8404 26.8306 50.672 27.3859 51.171C27.6081 50.6166 28.0524 49.8958 30.2183 49.8958C30.2739 49.8958 30.3294 49.8958 30.4405 49.8958C29.8296 50.6166 27.8302 52.2244 27.8302 53.4995C27.8302 54.3312 28.7744 55.6617 29.9962 55.6617C29.9406 55.3845 29.9406 55.1073 29.9406 54.941C29.9406 53.8876 30.8848 52.6679 31.6623 51.8363C31.6623 52.1135 31.6623 52.058 31.6623 52.3352C31.6623 54.8301 31.8844 55.939 33.4395 55.939C34.217 55.939 34.7168 55.4954 34.9389 55.3845C33.9393 54.442 33.8837 53.7213 33.8837 52.3352C33.8837 51.9472 33.8837 51.6145 33.8837 51.1155C33.8837 50.7829 33.8837 50.3948 33.8282 50.0621C34.3836 50.0067 34.6057 50.0067 35.05 50.0067C35.05 50.0067 37.2715 49.8404 37.8269 51.0047C38.4378 50.4502 39.3264 49.6741 39.3264 48.787C39.3264 48.2326 39.0487 47.5673 37.8824 47.5673C37.4381 47.5673 36.1052 47.8445 34.9389 47.8445C35.2722 47.1792 36.605 45.1833 37.8269 43.6864C37.9935 44.2408 38.2712 44.8506 38.8821 45.3496C38.9931 44.4071 39.493 41.4687 40.9925 39.75C41.1591 40.9143 41.3812 42.134 41.3812 44.6289C41.3812 50.7829 39.8817 55.2737 36.7717 56.1607C37.1604 56.8815 38.049 57.4913 38.9376 57.4913C40.1039 57.4913 40.7148 56.2162 41.3257 54.9965C41.6589 55.8835 42.5475 58.1012 43.4916 58.1012C44.4357 58.1012 45.3243 55.8835 45.6575 54.9965C46.2685 56.2162 46.9349 57.4913 48.0456 57.4913C48.9342 57.4913 49.8228 56.826 50.2116 56.1607C47.046 55.2737 45.602 50.7829 45.602 44.6289C45.602 42.0786 45.8242 40.9143 45.9908 39.75C47.4347 41.4687 47.9901 44.4071 48.1012 45.3496C48.7121 44.8506 48.9898 44.2408 49.2119 43.6864C50.3782 45.1278 51.7666 47.1237 52.0998 47.8445C50.9335 47.8445 49.6007 47.5673 49.1564 47.5673C47.9901 47.5673 47.7124 48.2326 47.7124 48.787C47.7124 49.6741 48.601 50.4502 49.2119 51.0047C49.7673 49.8404 51.9887 50.0067 51.9887 50.0067C52.433 50.0067 52.6552 50.0067 53.2105 50.0621C53.155 50.3393 53.155 50.7829 53.155 51.1155C53.155 51.6145 53.155 51.9472 53.155 52.3352C53.155 53.7213 53.0995 54.442 52.0998 55.3845C52.2664 55.4954 52.8218 55.939 53.5993 55.939C55.1543 55.939 55.3765 54.8301 55.3765 52.3352C55.3765 52.058 55.3765 52.058 55.3765 51.8363C56.154 52.6679 57.0981 53.8876 57.0981 54.941C57.0981 55.1073 57.0981 55.3845 57.0426 55.6617C58.2644 55.6617 59.2085 54.3866 59.2085 53.4995C59.2085 52.2244 57.2092 50.6166 56.5983 49.8958C56.7094 49.8958 56.7649 49.8958 56.8204 49.8958C58.9864 49.8958 59.4307 50.6166 59.6528 51.171C60.2082 50.672 60.708 49.8404 60.708 48.787C60.708 48.1771 60.5969 47.5118 59.3751 47.5118C58.2644 47.5118 56.5428 47.6782 55.3765 47.8999C54.4879 46.6248 52.7107 44.1853 51.8221 42.3003C52.1554 42.3558 52.6552 42.4112 53.3772 42.4112C53.7659 42.4112 54.1547 42.3558 54.3768 42.3003C50.7669 39.1956 47.7679 35.1483 47.7679 30.6021C47.7679 29.8814 47.9346 29.1607 48.2122 28.329C48.3233 28.329 48.3788 28.2736 48.4899 28.2736L57.598 42.7993C60.3193 47.0683 62.4297 47.0129 65.6508 47.0129C62.985 44.9615 61.2078 42.3558 60.3748 41.0252L51.8777 27.3865C52.322 27.2202 52.8218 27.0539 53.2661 26.8875L60.8191 38.9184C63.5404 43.1874 65.6508 43.1319 68.8719 43.1319C66.2062 41.0806 64.4845 38.5303 63.5959 37.1442L56.2651 25.4461C56.6538 25.2243 57.0981 25.0025 57.4869 24.7253L63.4849 34.3167C66.2062 38.5857 68.3166 38.5303 71.5377 38.5303C68.8719 36.4789 67.1503 33.9286 66.2617 32.5426L60.0971 22.7294C60.4859 22.3968 60.8191 22.0641 61.1523 21.7315L65.5397 28.7171C68.261 32.9861 70.3714 32.9307 73.5926 32.9307C70.9268 30.8793 69.1496 28.2736 68.3166 26.943L63.2627 18.8485C63.5404 18.3495 63.7625 17.8506 63.9292 17.2961L66.4838 21.4543Z" fill="white"/>
<path d="M99.9719 55.9951H90.6973V2.9375H99.9719V55.9951Z" fill="white"/>
<path d="M99.9719 109.051H90.6973V55.9932H99.9719V109.051Z" fill="white"/>
<path d="M99.9719 162.054H90.6973V108.997H99.9719V162.054Z" fill="white"/>
</g>
<defs>
<clipPath id="clip0_1008_64245">
<rect width="362.1" height="161.637" fill="white" transform="translate(0.950195 0.511719)"/>
</clipPath>
</defs>
</svg>
