<svg width="100" height="100" viewBox="0 0 100 100" fill="none" xmlns="http://www.w3.org/2000/svg">
<path d="M88.6907 78.9994L73.2 63.5113C72.5008 62.8123 71.553 62.4239 70.5586 62.4239H68.026C72.3143 56.9402 74.8625 50.0428 74.8625 42.5396C74.8625 24.6903 60.3972 10.2275 42.5448 10.2275C24.6923 10.2275 10.2271 24.6903 10.2271 42.5396C10.2271 60.3889 24.6923 74.8516 42.5448 74.8516C50.0493 74.8516 56.9479 72.3039 62.4326 68.0164V70.5485C62.4326 71.5427 62.821 72.4903 63.5202 73.1894L79.0109 88.6774C80.4715 90.1377 82.8331 90.1377 84.2781 88.6774L88.6752 84.2811C90.1357 82.8209 90.1357 80.4596 88.6907 78.9994Z" stroke="black" stroke-width="2" stroke-miterlimit="10"/>
</svg>
