<svg width="65" height="64" viewBox="0 0 65 64" fill="none" xmlns="http://www.w3.org/2000/svg">
<path fill-rule="evenodd" clip-rule="evenodd" d="M11.1285 18.0345C8.51709 22.0538 7.00018 26.8497 7.00018 31.9999C7.00018 44.9815 16.6376 55.7121 29.148 57.4274L37.7586 42.4998C36.2199 43.2473 34.4924 43.6666 32.6669 43.6666C28.1653 43.6666 24.2593 41.1172 22.3138 37.3834L11.1285 18.0345ZM10.3183 15.6875C6.97423 20.2613 5.00018 25.9001 5.00018 31.9999C5.00018 46.1962 15.6924 57.8952 29.4631 59.4831C29.5335 59.4987 29.6047 59.5065 29.6755 59.5067C30.6581 59.6124 31.6562 59.6666 32.6668 59.6666C47.9467 59.6666 60.3335 47.2798 60.3335 31.9999C60.3335 28.1017 59.5273 24.3918 58.0725 21.0278C58.0518 20.963 58.0246 20.9011 57.9917 20.8428C53.7019 11.1198 43.9769 4.33325 32.6668 4.33325C23.5906 4.33325 15.5351 8.70378 10.4902 15.4551C10.421 15.5246 10.3635 15.6031 10.3183 15.6875ZM12.4037 16.2442L21.0296 31.1656C21.4573 25.1117 26.504 20.3333 32.6669 20.3333H55.5349C51.2865 12.0227 42.6411 6.33325 32.6668 6.33325C24.4305 6.33325 17.1002 10.2128 12.4037 16.2442ZM56.4509 22.3333H39.2009C42.298 24.4308 44.3335 27.9777 44.3335 31.9999C44.3335 34.3067 43.6641 36.457 42.5088 38.2674L31.3383 57.6328C31.7783 57.6552 32.2213 57.6666 32.6668 57.6666C46.8422 57.6666 58.3335 46.1752 58.3335 31.9999C58.3335 28.5803 57.6648 25.3168 56.4509 22.3333ZM41.1089 36.7127C41.8889 35.3184 42.3335 33.7111 42.3335 31.9999C42.3335 26.6612 38.0056 22.3333 32.6669 22.3333C27.3281 22.3333 23.0002 26.6612 23.0002 31.9999C23.0002 33.5965 23.3872 35.1027 24.0727 36.4297L24.3056 36.8328C24.3294 36.8738 24.3499 36.9159 24.3672 36.9586C26.0557 39.7787 29.1408 41.6666 32.6669 41.6666C36.0815 41.6666 39.0826 39.8961 40.8023 37.2231L41.027 36.8336C41.0517 36.7907 41.0791 36.7504 41.1089 36.7127Z" fill="#1C1C1C"/>
</svg>
