<svg width="100" height="100" viewBox="0 0 100 100" fill="none" xmlns="http://www.w3.org/2000/svg">
<path d="M80.3206 43.2853C80.3206 66.7874 50.1037 86.932 50.1037 86.932C50.1037 86.932 19.8867 66.7874 19.8867 43.2853C19.8867 35.2713 23.0703 27.5855 28.7371 21.9187C34.4038 16.2519 42.0896 13.0684 50.1037 13.0684C58.1177 13.0684 65.8035 16.2519 71.4703 21.9187C77.137 27.5855 80.3206 35.2713 80.3206 43.2853Z" stroke="black" stroke-width="2" stroke-linecap="round" stroke-linejoin="round"/>
<path d="M50.1036 53.3575C55.6663 53.3575 60.1759 48.848 60.1759 43.2852C60.1759 37.7224 55.6663 33.2129 50.1036 33.2129C44.5408 33.2129 40.0312 37.7224 40.0312 43.2852C40.0312 48.848 44.5408 53.3575 50.1036 53.3575Z" stroke="black" stroke-width="2" stroke-linecap="round" stroke-linejoin="round"/>
</svg>
