<svg width="65" height="64" viewBox="0 0 65 64" fill="none" xmlns="http://www.w3.org/2000/svg">
<path fill-rule="evenodd" clip-rule="evenodd" d="M32.6665 6.3335C18.4912 6.3335 6.99988 17.8249 6.99988 32.0002C6.99988 46.1755 18.4912 57.6668 32.6665 57.6668C46.8419 57.6668 58.3332 46.1755 58.3332 32.0002C58.3332 17.8249 46.8419 6.3335 32.6665 6.3335ZM4.99988 32.0002C4.99988 16.7203 17.3867 4.3335 32.6665 4.3335C47.9464 4.3335 60.3332 16.7203 60.3332 32.0002C60.3332 47.28 47.9464 59.6668 32.6665 59.6668C17.3867 59.6668 4.99988 47.28 4.99988 32.0002ZM32.6666 17C24.3824 17 17.6666 23.7157 17.6666 32C17.6666 40.2843 24.3824 47 32.6666 47C40.9509 47 47.6666 40.2843 47.6666 32C47.6666 23.7157 40.9509 17 32.6666 17ZM15.6666 32C15.6666 22.6112 23.2778 15 32.6666 15C42.0555 15 49.6666 22.6112 49.6666 32C49.6666 41.3888 42.0555 49 32.6666 49C23.2778 49 15.6666 41.3888 15.6666 32ZM32.6667 27.6665C30.2735 27.6665 28.3334 29.6066 28.3334 31.9998C28.3334 34.3931 30.2735 36.3332 32.6667 36.3332C35.0599 36.3332 37 34.3931 37 31.9998C37 29.6066 35.0599 27.6665 32.6667 27.6665ZM26.3334 31.9998C26.3334 28.502 29.1689 25.6665 32.6667 25.6665C36.1645 25.6665 39 28.502 39 31.9998C39 35.4976 36.1645 38.3332 32.6667 38.3332C29.1689 38.3332 26.3334 35.4976 26.3334 31.9998Z" fill="#1C1C1C"/>
</svg>
