<svg width="65" height="64" viewBox="0 0 65 64" fill="none" xmlns="http://www.w3.org/2000/svg">
<path fill-rule="evenodd" clip-rule="evenodd" d="M22.3333 7.58594L32.7475 18.0002H17.3333C13.6203 18.0002 10.0593 19.4751 7.43379 22.1007C4.80828 24.7262 3.33328 28.2871 3.33328 32.0002C3.33328 35.7132 4.80828 39.2741 7.43379 41.8996C10.0593 44.5252 13.6203 46.0002 17.3333 46.0002H25.3333V48.0002H17.3333C13.0898 48.0002 9.02016 46.3144 6.01957 43.3139C3.01899 40.3133 1.33328 36.2436 1.33328 32.0002C1.33328 27.7567 3.01899 23.687 6.01957 20.6864C9.02016 17.6859 13.0898 16.0002 17.3333 16.0002H27.9191L20.9191 9.00015L22.3333 7.58594ZM39.3333 16.0002H47.3333C51.5767 16.0002 55.6464 17.6859 58.647 20.6864C61.6476 23.687 63.3333 27.7567 63.3333 32.0002C63.3333 36.2436 61.6476 40.3133 58.647 43.3139C55.6464 46.3144 51.5767 48.0002 47.3333 48.0002H36.7475L43.7475 55.0002L42.3333 56.4144L31.9191 46.0002H47.3333C51.0463 46.0002 54.6073 44.5252 57.2328 41.8996C59.8583 39.2741 61.3333 35.7132 61.3333 32.0002C61.3333 28.2871 59.8583 24.7262 57.2328 22.1007C54.6073 19.4751 51.0463 18.0002 47.3333 18.0002H39.3333V16.0002Z" fill="#1C1C1C"/>
</svg>
