<svg width="64" height="64" viewBox="0 0 64 64" fill="none" xmlns="http://www.w3.org/2000/svg">
<path fill-rule="evenodd" clip-rule="evenodd" d="M32.0001 6.33319C17.8248 6.33319 6.33341 17.8245 6.33341 31.9999C6.33341 46.1752 17.8248 57.6665 32.0001 57.6665C46.1754 57.6665 57.6667 46.1752 57.6667 31.9999C57.6667 17.8245 46.1754 6.33319 32.0001 6.33319ZM4.33341 31.9999C4.33341 16.72 16.7202 4.33319 32.0001 4.33319C47.28 4.33319 59.6667 16.72 59.6667 31.9999C59.6667 47.2797 47.28 59.6665 32.0001 59.6665C16.7202 59.6665 4.33341 47.2797 4.33341 31.9999Z" fill="#1C1C1C"/>
<path fill-rule="evenodd" clip-rule="evenodd" d="M33.0004 16.9998V41.9998H31.0004V16.9998H33.0004Z" fill="#1C1C1C"/>
<path fill-rule="evenodd" clip-rule="evenodd" d="M31.0004 43.9998H33.0271V45.9998H31.0004V43.9998Z" fill="#1C1C1C"/>
</svg>
