<svg width="64" height="64" viewBox="0 0 64 64" fill="none" xmlns="http://www.w3.org/2000/svg">
<path fill-rule="evenodd" clip-rule="evenodd" d="M42.4465 8.54014C37.3909 6.28747 31.7425 5.72941 26.3437 6.94918C20.945 8.16896 16.0852 11.1012 12.4891 15.3086C8.89299 19.516 6.75331 24.7732 6.38913 30.296C6.02496 35.8188 7.45581 41.3114 10.4683 45.9546C13.4808 50.5978 17.9135 54.1428 23.1053 56.0609C28.2971 57.979 33.9699 58.1675 39.2776 56.5982C44.5853 55.0288 49.2435 51.7858 52.5575 47.3528C55.8714 42.9198 57.6637 37.5343 57.6668 31.9995V28.5467H59.6668V32C59.6634 37.9661 57.7315 43.7719 54.1593 48.5503C50.5871 53.3288 45.5659 56.8245 39.8447 58.5161C34.1234 60.2077 28.0086 60.0045 22.4122 57.937C16.8158 55.8694 12.0377 52.0482 8.79049 47.0432C5.54327 42.0382 4.00092 36.1176 4.39347 30.1644C4.78602 24.2112 7.09244 18.5445 10.9687 14.0092C14.845 9.47392 20.0835 6.31318 25.903 4.99836C31.7224 3.68353 37.8109 4.28508 43.2605 6.71329L44.1739 7.12029L43.3599 8.94714L42.4465 8.54014ZM60.0809 10.666L32.7075 38.0668C32.52 38.2545 32.2656 38.36 32.0002 38.3601C31.7349 38.3601 31.4805 38.2548 31.2929 38.0672L22.5858 29.3601L24 27.9459L31.9996 35.9455L58.666 9.25254L60.0809 10.666Z" fill="#1C1C1C"/>
</svg>
