<svg width="65" height="64" viewBox="0 0 65 64" fill="none" xmlns="http://www.w3.org/2000/svg">
<path fill-rule="evenodd" clip-rule="evenodd" d="M11.1283 18.0345C8.51691 22.0538 7 26.8497 7 31.9999C7 44.9815 16.6374 55.7121 29.1478 57.4274L37.7584 42.4998C36.2198 43.2473 34.4922 43.6666 32.6667 43.6666C28.1652 43.6666 24.2591 41.1172 22.3136 37.3834L11.1283 18.0345ZM10.3182 15.6875C6.97405 20.2613 5 25.9001 5 31.9999C5 46.1962 15.6922 57.8952 29.4629 59.4831C29.5333 59.4987 29.6045 59.5065 29.6753 59.5067C30.658 59.6124 31.656 59.6666 32.6667 59.6666C47.9465 59.6666 60.3333 47.2798 60.3333 31.9999C60.3333 28.1017 59.5271 24.3918 58.0723 21.0278C58.0516 20.963 58.0244 20.9011 57.9915 20.8428C53.7017 11.1198 43.9767 4.33325 32.6667 4.33325C23.5904 4.33325 15.5349 8.70378 10.49 15.4551C10.4208 15.5246 10.3633 15.6031 10.3182 15.6875ZM12.4035 16.2442L21.0294 31.1656C21.4571 25.1117 26.5039 20.3333 32.6667 20.3333H55.5347C51.2864 12.0227 42.6409 6.33325 32.6667 6.33325C24.4303 6.33325 17.1 10.2128 12.4035 16.2442ZM56.4507 22.3333H39.2007C42.2978 24.4308 44.3333 27.9777 44.3333 31.9999C44.3333 34.3067 43.6639 36.457 42.5086 38.2674L31.3382 57.6328C31.7782 57.6552 32.2211 57.6666 32.6667 57.6666C46.842 57.6666 58.3333 46.1752 58.3333 31.9999C58.3333 28.5803 57.6646 25.3168 56.4507 22.3333ZM41.1087 36.7127C41.8887 35.3184 42.3333 33.7111 42.3333 31.9999C42.3333 26.6612 38.0054 22.3333 32.6667 22.3333C27.3279 22.3333 23 26.6612 23 31.9999C23 33.5965 23.3871 35.1027 24.0725 36.4297L24.3055 36.8328C24.3292 36.8738 24.3497 36.9159 24.367 36.9586C26.0555 39.7787 29.1406 41.6666 32.6667 41.6666C36.0813 41.6666 39.0824 39.8961 40.8021 37.2231L41.0268 36.8336C41.0515 36.7907 41.0789 36.7504 41.1087 36.7127Z" fill="#1C1C1C"/>
</svg>
