<svg width="64" height="64" viewBox="0 0 64 64" fill="none" xmlns="http://www.w3.org/2000/svg">
<path fill-rule="evenodd" clip-rule="evenodd" d="M33 30.9993V56.9993H31V30.9993H33Z" fill="#1C1C1C"/>
<path fill-rule="evenodd" clip-rule="evenodd" d="M23.1634 7.021C26.5369 6.89671 29.8948 7.53881 32.9844 8.89903C36.0741 10.2592 38.8152 12.3022 41.0017 14.8743C43.02 17.2486 44.5173 20.0167 45.4002 22.9993H47.9999C51.1844 23.0014 54.2781 24.0639 56.7917 26.0192C59.3052 27.9744 61.0961 30.7111 61.8815 33.7971C62.667 36.8832 62.4024 40.143 61.1295 43.062C59.8566 45.981 57.6479 48.393 54.8519 49.9173L53.9739 50.396L53.0166 48.64L53.8946 48.1613C56.3004 46.8497 58.201 44.7743 59.2963 42.2626C60.3916 39.7509 60.6192 36.9459 59.9433 34.2905C59.2675 31.635 57.7265 29.2802 55.5637 27.5978C53.4011 25.9155 50.7398 25.0013 47.9999 24.9993M47.9999 24.9993H44.6399C44.184 24.9993 43.7858 24.691 43.6717 24.2496C42.9024 21.2739 41.4685 18.5114 39.4778 16.1696C37.4872 13.8279 34.9915 11.9679 32.1786 10.7295C29.3656 9.49108 26.3085 8.90648 23.237 9.01965C20.1656 9.13281 17.1598 9.94079 14.4456 11.3828C11.7313 12.8249 9.37934 14.8635 7.56639 17.3454C5.75345 19.8273 4.52673 22.6878 3.97847 25.7121C3.4302 28.7363 3.57466 31.8455 4.40098 34.8058C5.22729 37.7662 6.71397 40.5007 8.74923 42.8038L9.41142 43.5531L7.91276 44.8775L7.25056 44.1282C5.01511 41.5985 3.38221 38.5951 2.47461 35.3435C1.56702 32.092 1.40836 28.677 2.01055 25.3553C2.61274 22.0336 3.96011 18.8917 5.95138 16.1657C7.94265 13.4397 10.526 11.2005 13.5072 9.61665C16.4884 8.03275 19.7898 7.1453 23.1634 7.021" fill="#1C1C1C"/>
<path fill-rule="evenodd" clip-rule="evenodd" d="M31.2929 30.2922C31.6834 29.9016 32.3166 29.9016 32.7071 30.2922L44.4142 41.9993L43 43.4135L32 32.4135L21 43.4135L19.5858 41.9993L31.2929 30.2922Z" fill="#1C1C1C"/>
</svg>
