<svg width="64" height="64" viewBox="0 0 64 64" fill="none" xmlns="http://www.w3.org/2000/svg">
<path fill-rule="evenodd" clip-rule="evenodd" d="M10.4617 18.0346C7.85027 22.0538 6.33337 26.8498 6.33337 32C6.33337 35.4196 7.00213 38.6831 8.21599 41.6666H24.1083L18.8397 32.543C18.8219 32.5153 18.8054 32.4868 18.7905 32.4577L10.4617 18.0346ZM9.65461 15.6834C6.30864 20.2579 4.33337 25.8982 4.33337 32C4.33337 35.8983 5.13965 39.6084 6.59454 42.9725C6.61524 43.037 6.64232 43.0987 6.67503 43.1567C10.5538 51.9484 18.8763 58.3393 28.7963 59.4831C28.8667 59.4988 28.9379 59.5066 29.0087 59.5068C29.9913 59.6124 30.9894 59.6666 32 59.6666C41.079 59.6666 49.1366 55.2935 54.1812 48.5388C54.2457 48.4728 54.2999 48.399 54.343 48.3199C57.6905 43.7448 59.6667 38.1032 59.6667 32C59.6667 28.1061 58.8623 24.4 57.4105 21.039C57.3882 20.9664 57.3578 20.8973 57.3204 20.8328C53.4395 12.0461 45.1192 5.65969 35.2025 4.51666C35.1326 4.50117 35.0618 4.49343 34.9914 4.49315C34.0088 4.38751 33.0107 4.33331 32 4.33331C22.9223 4.33331 14.8656 8.70529 9.82084 15.4585C9.75432 15.526 9.69866 15.6019 9.65461 15.6834ZM11.7371 16.2439L19.6803 29.9992L33.3271 6.36703C32.8876 6.34464 32.4451 6.33331 32 6.33331C23.7638 6.33331 16.4336 10.2127 11.7371 16.2439ZM35.518 6.57241L27.5716 20.3333H38.1397C38.1519 20.3331 38.1641 20.3331 38.1762 20.3333H54.8681C51.128 13.0171 43.9802 7.73233 35.518 6.57241ZM55.7841 22.3333H39.8911L45.1597 31.457C45.1776 31.4847 45.194 31.5131 45.209 31.5423L53.5381 45.9659C56.1497 41.9465 57.6667 37.1504 57.6667 32C57.6667 28.5803 56.9979 25.3169 55.7841 22.3333ZM52.2626 47.7565L44.3191 34.0007L39.0387 43.1448C39.031 43.159 39.0229 43.1731 39.0144 43.1869L30.6724 57.6329C31.1121 57.6553 31.5547 57.6666 32 57.6666C40.2361 57.6666 47.5661 53.7874 52.2626 47.7565ZM28.4815 57.4275L36.4279 43.6666H25.8593C25.8474 43.6669 25.8355 43.6669 25.8237 43.6666H9.13202C12.8719 50.9827 20.0195 56.2674 28.4815 57.4275ZM26.4179 41.6666H37.5828L43.1644 32.001L37.5816 22.3333H26.4166L20.8351 31.9989L26.4179 41.6666Z" fill="#1C1C1C"/>
</svg>
