<svg width="65" height="64" viewBox="0 0 65 64" fill="none" xmlns="http://www.w3.org/2000/svg">
<path d="M11.3893 20.549C5.80528 23.455 2.33328 27.51 2.33328 32C2.33328 40.837 15.7643 48 32.3333 48C48.9023 48 62.3333 40.837 62.3333 32C62.3333 23.163 48.9023 16 32.3333 16C29.892 15.9987 27.4534 16.159 25.0333 16.48M43.7843 52.944C40.8783 58.528 36.8233 62 32.3333 62C23.4963 62 16.3333 48.569 16.3333 32C16.3333 15.431 23.4963 2 32.3333 2C41.1703 2 48.3333 15.431 48.3333 32C48.3346 34.4413 48.1743 36.8799 47.8533 39.3M40.3333 32C40.3333 36.4183 36.7516 40 32.3333 40C27.915 40 24.3333 36.4183 24.3333 32C24.3333 27.5817 27.915 24 32.3333 24C36.7516 24 40.3333 27.5817 40.3333 32Z" stroke="#1C1C1C" stroke-width="2" stroke-miterlimit="10" stroke-linecap="square"/>
</svg>
