<svg width="64" height="64" viewBox="0 0 64 64" fill="none" xmlns="http://www.w3.org/2000/svg">
<path d="M47.2286 18.4868V18.4609V8.90004C47.2286 7.81385 47.5841 6.80608 48.1835 5.99202H13.9566C12.5877 5.99202 11.342 6.5559 10.4409 7.4625C9.53894 8.36753 8.98002 9.61999 8.98002 10.9995V57.1194H47.2286V25.8502V18.4868ZM13.5192 15.0094C12.9728 15.0094 12.5292 14.5632 12.5292 14.0134C12.5292 13.4636 12.9728 13.0174 13.5192 13.0174H42.6894C43.2358 13.0174 43.6794 13.4636 43.6794 14.0134C43.6794 14.5632 43.2358 15.0094 42.6894 15.0094H13.5192ZM13.5192 21.9564C12.9728 21.9564 12.5292 21.5101 12.5292 20.9604C12.5292 20.4106 12.9728 19.9644 13.5192 19.9644H42.6894C43.2358 19.9644 43.6794 20.4106 43.6794 20.9604C43.6794 21.5101 43.2358 21.9564 42.6894 21.9564H13.5192ZM32.5422 36.2212C32.8408 35.7625 33.4543 35.6331 33.9103 35.9334C34.3663 36.2338 34.4949 36.851 34.1964 37.3098L23.6649 53.4616C23.3663 53.9204 22.7528 54.0498 22.2968 53.7494C21.8408 53.449 21.7121 52.8318 22.0107 52.373L32.5422 36.2212ZM22.8378 35.7695C24.0617 35.7695 25.1725 36.2707 25.9762 37.0784C26.783 37.8862 27.2811 39.0054 27.2811 40.239C27.2811 41.4726 26.783 42.5918 25.9801 43.3996L25.9177 43.4568C25.1195 44.2309 24.0328 44.7085 22.8378 44.7085C21.6155 44.7085 20.5039 44.2073 19.7002 43.3996C18.8933 42.5918 18.3952 41.4726 18.3952 40.239C18.3952 39.0054 18.8933 37.8862 19.6963 37.0784L19.7586 37.0212C20.5569 36.2471 21.6443 35.7695 22.8378 35.7695ZM24.5808 38.4862C24.1373 38.0392 23.5199 37.7615 22.8378 37.7615C22.1783 37.7615 21.5788 38.0219 21.1376 38.443L21.0963 38.487C20.652 38.934 20.3752 39.5551 20.3752 40.239C20.3752 40.9229 20.652 41.544 21.0963 41.991C21.5391 42.4388 22.1565 42.7165 22.8378 42.7165C23.4981 42.7165 24.0975 42.4561 24.5387 42.035L24.58 41.991C25.0244 41.544 25.3011 40.9229 25.3011 40.239C25.3011 39.5551 25.0244 38.934 24.5808 38.4862ZM33.3693 44.9744C34.5939 44.9744 35.704 45.4755 36.5077 46.2833C37.3145 47.0911 37.8126 48.2102 37.8126 49.4438C37.8126 50.6775 37.3145 51.7966 36.5116 52.6044L36.4492 52.6616C35.651 53.4357 34.5643 53.9133 33.3693 53.9133C32.1462 53.9133 31.0369 53.413 30.2317 52.6044L30.2254 52.5981C29.4233 51.7888 28.9267 50.6736 28.9267 49.4438C28.9267 48.2133 29.4248 47.095 30.2301 46.2856C31.0307 45.4755 32.1423 44.9744 33.3693 44.9744ZM35.1123 47.691C34.6688 47.244 34.0514 46.9664 33.3693 46.9664C32.6888 46.9664 32.0721 47.2448 31.6278 47.6918C31.1811 48.1365 30.9067 48.7568 30.9067 49.4438C30.9067 50.1309 31.1811 50.7512 31.6239 51.1959C32.0698 51.6452 32.6864 51.9213 33.3693 51.9213C34.0296 51.9213 34.629 51.6609 35.0702 51.2398L35.1115 51.1959C35.5559 50.7488 35.8326 50.1277 35.8326 49.4438C35.8326 48.76 35.5559 48.1388 35.1123 47.691ZM49.2086 18.4609V18.4868V24.8283H54.9912V8.90004C54.9912 8.12049 54.6856 7.41074 54.1883 6.88999L54.1415 6.84607C53.6262 6.32768 52.9169 6.00221 52.1366 5.99202H52.1249H52.0991H52.0617C51.2822 6.00221 50.5736 6.32768 50.0583 6.84607C49.5345 7.37309 49.2086 8.10089 49.2086 8.90004V18.4609ZM49.2086 26.8203V58.1154C49.2086 58.6651 48.7651 59.1114 48.2186 59.1114H7.99001C7.44355 59.1114 7 58.6651 7 58.1154V10.9995C7 9.07415 7.78187 7.32525 9.04082 6.05789C10.3005 4.78661 12.0412 4 13.9566 4H52.0991L52.1311 4.00078C53.4602 4.00941 54.6669 4.55761 55.5416 5.43755L55.5977 5.4995C56.4474 6.38336 56.9712 7.58406 56.9712 8.90004V25.8243C56.9712 26.3741 56.5277 26.8203 55.9812 26.8203H49.2086Z" fill="black"/>
</svg>
