<svg width="64" height="64" viewBox="0 0 64 64" fill="none" xmlns="http://www.w3.org/2000/svg">
<path fill-rule="evenodd" clip-rule="evenodd" d="M31.9997 6.33319C17.8244 6.33319 6.33301 17.8245 6.33301 31.9999C6.33301 46.1752 17.8244 57.6665 31.9997 57.6665C46.175 57.6665 57.6663 46.1752 57.6663 31.9999C57.6663 17.8245 46.175 6.33319 31.9997 6.33319ZM4.33301 31.9999C4.33301 16.72 16.7198 4.33319 31.9997 4.33319C47.2795 4.33319 59.6663 16.72 59.6663 31.9999C59.6663 47.2797 47.2795 59.6665 31.9997 59.6665C16.7198 59.6665 4.33301 47.2797 4.33301 31.9999Z" fill="#1C1C1C"/>
<path fill-rule="evenodd" clip-rule="evenodd" d="M32 14.9998C32.5523 14.9998 33 15.4476 33 15.9998V31.3818L43.1139 36.4388C43.6079 36.6857 43.8081 37.2864 43.5611 37.7804C43.3141 38.2744 42.7134 38.4746 42.2195 38.2276L31.5528 32.8943C31.214 32.7249 31 32.3786 31 31.9998V15.9998C31 15.4476 31.4477 14.9998 32 14.9998Z" fill="#1C1C1C"/>
</svg>
