<svg width="65" height="64" viewBox="0 0 65 64" fill="none" xmlns="http://www.w3.org/2000/svg">
<path fill-rule="evenodd" clip-rule="evenodd" d="M22.3333 7.58582L32.7475 18H17.3333C13.6203 18 10.0593 19.475 7.43379 22.1005C4.80828 24.726 3.33328 28.287 3.33328 32C3.33328 35.7131 4.80828 39.274 7.43379 41.8995C10.0593 44.525 13.6203 46 17.3333 46H25.3333V48H17.3333C13.0898 48 9.02016 46.3143 6.01957 43.3137C3.01899 40.3132 1.33328 36.2435 1.33328 32C1.33328 27.7566 3.01899 23.6869 6.01957 20.6863C9.02016 17.6857 13.0898 16 17.3333 16H27.9191L20.9191 9.00003L22.3333 7.58582ZM39.3333 16H47.3333C51.5767 16 55.6464 17.6857 58.647 20.6863C61.6476 23.6869 63.3333 27.7566 63.3333 32C63.3333 36.2435 61.6476 40.3132 58.647 43.3137C55.6464 46.3143 51.5767 48 47.3333 48H36.7475L43.7475 55L42.3333 56.4142L31.9191 46H47.3333C51.0463 46 54.6073 44.525 57.2328 41.8995C59.8583 39.274 61.3333 35.7131 61.3333 32C61.3333 28.287 59.8583 24.726 57.2328 22.1005C54.6073 19.475 51.0463 18 47.3333 18H39.3333V16Z" fill="#1C1C1C"/>
</svg>
