<svg width="100" height="100" viewBox="0 0 100 100" fill="none" xmlns="http://www.w3.org/2000/svg">
<circle cx="49.9982" cy="49.9999" r="35.9318" stroke="black" stroke-width="2"/>
<path fill-rule="evenodd" clip-rule="evenodd" d="M50.5703 71.6172C38.6315 71.6172 28.9531 61.9388 28.9531 50H26.9531C26.9531 63.0434 37.5269 73.6172 50.5703 73.6172C59.3018 73.6172 66.9249 68.8792 71.0118 61.8359L71.1857 68.7488L73.1851 68.6985L72.9207 58.1906L72.8955 57.1909L71.3222 57.2305L70.9896 57.1146C70.9751 57.1565 70.9604 57.1982 70.9455 57.24L70.8962 57.2412L70.8994 57.3686C67.8859 65.6808 59.9201 71.6172 50.5703 71.6172Z" fill="black"/>
<path fill-rule="evenodd" clip-rule="evenodd" d="M50.1407 28.3828C62.0795 28.3828 71.7578 38.0612 71.7578 50H73.7578C73.7578 36.9566 63.1841 26.3828 50.1407 26.3828C41.4091 26.3828 33.7861 31.1208 29.6992 38.1641L29.5252 31.2512L27.5258 31.3015L27.7903 41.8094L27.8154 42.8091L29.3888 42.7695L29.7213 42.8854C29.7359 42.8435 29.7506 42.8018 29.7654 42.76L29.8148 42.7588L29.8116 42.6314C32.8251 34.3192 40.7909 28.3828 50.1407 28.3828Z" fill="black"/>
</svg>
