<svg width="100" height="100" viewBox="0 0 100 100" fill="none" xmlns="http://www.w3.org/2000/svg">
<path d="M40.584 49.6343C40.584 55.5444 35.7929 60.3354 29.8828 60.3354C23.9727 60.3354 19.1816 55.5444 19.1816 49.6343C19.1816 43.7242 23.9727 38.9331 29.8828 38.9331C35.7929 38.9331 40.584 43.7242 40.584 49.6343Z" stroke="black" stroke-width="2"/>
<circle cx="70.1055" cy="24.7695" r="10.7012" stroke="black" stroke-width="2"/>
<line x1="38.8633" y1="42.9345" x2="60.0716" y2="29.7707" stroke="black" stroke-width="2"/>
<path d="M80.8066 75.2305C80.8066 69.3204 76.0156 64.5293 70.1055 64.5293C64.1954 64.5293 59.4043 69.3204 59.4043 75.2305C59.4043 81.1406 64.1954 85.9316 70.1055 85.9316C76.0156 85.9316 80.8066 81.1406 80.8066 75.2305Z" stroke="black" stroke-width="2"/>
<line y1="-1" x2="24.9616" y2="-1" transform="matrix(0.84964 0.527363 0.527363 -0.84964 39.3906 56.2158)" stroke="black" stroke-width="2"/>
</svg>
