<svg width="100" height="100" viewBox="0 0 100 100" fill="none" xmlns="http://www.w3.org/2000/svg">
<path fill-rule="evenodd" clip-rule="evenodd" d="M50.2508 23.6386L75.0069 48.3946L76.4211 49.8089L75.0069 51.2231L50.2508 75.9792L58.6035 84.3318L93.1264 49.8089L58.6035 15.2859L50.2508 23.6386ZM48.8366 77.3934L41.8982 84.3318L40.484 85.746L39.0698 84.3318L5.96109 51.2231L4.54688 49.8089L5.96109 48.3946L39.0698 15.2859L40.484 13.8717L41.8982 15.2859L48.8366 22.2243L57.8963 13.1646L58.6035 12.4575L59.3106 13.1646L95.2477 49.1018L95.9548 49.8089L95.2477 50.516L59.3106 86.4531L58.6035 87.1602L57.8963 86.4531L48.8366 77.3934ZM7.3753 49.8089L40.484 16.7002L73.5927 49.8089L40.484 82.9176L7.3753 49.8089Z" fill="black"/>
</svg>
