<svg width="100" height="100" viewBox="0 0 100 100" fill="none" xmlns="http://www.w3.org/2000/svg">
<path d="M88.6902 78.999L73.1995 63.511C72.5003 62.8119 71.5525 62.4235 70.5581 62.4235H68.0255C72.3138 56.9398 74.862 50.0424 74.862 42.5392C74.862 24.6899 60.3967 10.2272 42.5443 10.2272C24.6918 10.2272 10.2266 24.6899 10.2266 42.5392C10.2266 60.3885 24.6918 74.8512 42.5443 74.8512C50.0488 74.8512 56.9474 72.3036 62.4321 68.016V70.5482C62.4321 71.5424 62.8205 72.49 63.5197 73.189L79.0105 88.6771C80.471 90.1373 82.8326 90.1373 84.2776 88.6771L88.6747 84.2808C90.1352 82.8205 90.1352 80.4593 88.6902 78.999Z" stroke="black" stroke-width="2" stroke-miterlimit="10"/>
</svg>
